SplineFontDB: 3.0
FontName: EtuVetica
FullName: EtuVetica
FamilyName: EtuVetica
Weight: Regular
Copyright: Copyright (c) 1970, Anonymous
UComments: "1970-1-1: Created with FontForge (http://fontforge.org)"
Version: 001.000
ItalicAngle: -3.8
UnderlinePosition: -100
UnderlineWidth: 50
Ascent: 800
Descent: 200
InvalidEm: 0
LayerCount: 2
Layer: 0 0 "Back" 1
Layer: 1 0 "Fore" 0
XUID: [1021 715 881700768 3258521]
FSType: 0
OS2Version: 0
OS2_WeightWidthSlopeOnly: 0
OS2_UseTypoMetrics: 1
CreationTime: 1
ModificationTime: 1
PfmFamily: 17
TTFWeight: 400
TTFWidth: 5
LineGap: 90
VLineGap: 0
OS2TypoAscent: 0
OS2TypoAOffset: 1
OS2TypoDescent: 0
OS2TypoDOffset: 1
OS2TypoLinegap: 90
OS2WinAscent: 0
OS2WinAOffset: 1
OS2WinDescent: 0
OS2WinDOffset: 1
HheadAscent: 0
HheadAOffset: 1
HheadDescent: 0
HheadDOffset: 1
OS2Vendor: 'PfEd'
MarkAttachClasses: 1
DEI: 91125
LangName: 1033
Encoding: ISO8859-1
UnicodeInterp: none
NameList: AGL For New Fonts
DisplaySize: -48
AntiAlias: 1
FitToEm: 0
WinInfo: 0 38 14
BeginPrivate: 0
EndPrivate
TeXData: 1 0 0 1048576 524288 349525 519186 1048576 349525 783286 444596 497025 792723 393216 433062 380633 303038 157286 324010 404750 52429 2506097 1059062 262144
BeginChars: 256 110

StartChar: N
Encoding: 78 78 0
Width: 517
VWidth: 0
Flags: W
LayerCount: 2
Back
Fore
SplineSet
174.732421875 485.282226562 m 0
 180.286132812 493.9453125 188.450195312 501.698242188 192.833984375 502.470703125 c 0
 205.857421875 504.767578125 226.111328125 479.796875 249.700195312 432.361328125 c 0
 286.315429688 358.73046875 314.346679688 269.215820312 332.935546875 166.560546875 c 0
 340.544921875 124.541015625 348.405273438 92.0263671875 350.499023438 93.912109375 c 0
 352.56640625 95.7734375 355.23046875 115.329101562 356.360351562 136.934570312 c 0
 357.490234375 158.540039062 361.315429688 187.78125 364.77734375 201.265625 c 0
 368.317382812 215.063476562 370.581054688 229.043945312 369.900390625 232.90625 c 0
 367.403320312 247.06640625 389.969726562 354.454101562 411.583007812 431.265625 c 0
 414.92578125 443.146484375 429.6640625 448.05859375 445.97265625 442.728515625 c 0
 462.86328125 437.206054688 466.037109375 426.411132812 452.829101562 419.408203125 c 0
 446.9921875 416.314453125 439.948242188 399.4921875 434.67578125 376.05859375 c 0
 429.916992188 354.911132812 423.93359375 332.474609375 421.311523438 325.950195312 c 0
 413.493164062 306.491210938 391.0703125 179.555664062 389.888671875 148.060546875 c 0
 388.458007812 109.936523438 383.23828125 87.3076171875 366.66015625 47.3623046875 c 0
 350.930664062 9.4609375 345.857421875 3.88671875 334.530273438 12.0576171875 c 0
 328.0703125 16.7177734375 319.732421875 49.7919921875 300.546875 146.853515625 c 0
 286.602539062 217.395507812 273.440429688 277.283203125 271.397460938 279.481445312 c 0
 269.357421875 281.676757812 257.521484375 312.987304688 245.233398438 348.692382812 c 0
 223.685546875 411.307617188 202.6328125 451.974609375 195.234375 445.276367188 c 0
 193.142578125 443.383789062 189.602539062 428.625 187.326171875 412.306640625 c 0
 185.048828125 395.987304688 179.060546875 372.819335938 173.948242188 360.547851562 c 0
 168.764648438 348.108398438 164.877929688 337.279296875 165.115234375 335.938476562 c 0
 165.349609375 334.607421875 161.3203125 317.430664062 156.05078125 297.291015625 c 0
 142.348632812 244.92578125 137.181640625 214.202148438 139.685546875 199.997070312 c 0
 140.90625 193.077148438 138.81640625 183.526367188 135.126953125 179.159179688 c 0
 131.411132812 174.76171875 126.790039062 157.106445312 124.959960938 140.317382812 c 0
 123.104492188 123.290039062 116.475585938 91.34375 110.123046875 68.8173828125 c 0
 103.772460938 46.291015625 99.396484375 23.8154296875 100.33203125 18.5146484375 c 0
 104.743164062 -6.5048828125 88.2431640625 -23.3701171875 72.427734375 -10.0068359375 c 0
 62.3359375 -1.48046875 64.783203125 20.8994140625 75.5791015625 18.8154296875 c 0
 85.23828125 16.951171875 90.5791015625 26.6845703125 81.8095703125 30.171875 c 0
 71.79296875 34.154296875 71.7099609375 52.4375 81.5263671875 92.5908203125 c 0
 86.71484375 113.813476562 91.8212890625 143.346679688 92.9296875 158.545898438 c 0
 94.0244140625 173.55859375 97.2021484375 190.2109375 99.91796875 195.180664062 c 0
 102.739257812 200.34375 105.328125 211.50390625 105.891601562 220.93359375 c 0
 107.482421875 247.560546875 130.51953125 350.184570312 138.221679688 364.952148438 c 0
 142.234375 372.646484375 149.74609375 399.092773438 155.043945312 424.178710938 c 0
 160.341796875 449.263671875 169.133789062 476.548828125 174.732421875 485.282226562 c 0
EndSplineSet
EndChar

StartChar: b
Encoding: 98 98 1
Width: 367
VWidth: -60
Flags: W
LayerCount: 2
Back
Fore
SplineSet
156.729492188 526.509765625 m 0
 169.703125 536.098632812 172.645507812 535.975585938 183.215820312 525.405273438 c 0
 190.666992188 517.955078125 191.689453125 510.541015625 188.622070312 486.215820312 c 0
 186.5078125 469.458984375 184.241210938 450.250976562 183.486328125 442.703125 c 0
 182.743164062 435.270507812 179.557617188 419.458984375 176.407226562 407.567382812 c 0
 161.370117188 350.810546875 147.681640625 221.081054688 156.729492188 221.081054688 c 0
 159.388671875 221.081054688 172.447265625 242.162109375 185.526367188 267.567382812 c 0
 223.09375 340.541015625 249.555664062 352.776367188 284.891601562 313.513671875 c 0
 314.93359375 280.133789062 323.083007812 243.784179688 319.1875 160.541015625 c 0
 315.5703125 83.2431640625 305.162109375 39.7646484375 284.381835938 15.134765625 c 0
 271.108398438 -0.595703125 268.622070312 -1.4072265625 243.756835938 1.8837890625 c 0
 215.6484375 5.6044921875 196.729492188 14.6318359375 196.729492188 24.32421875 c 0
 196.729492188 27.5947265625 191.865234375 34.6484375 185.918945312 40 c 0
 179.97265625 45.3515625 175.108398438 52.4052734375 175.108398438 55.67578125 c 0
 175.108398438 65.9462890625 141.40234375 129.15625 137.270507812 126.633789062 c 0
 135.16796875 125.350585938 129.205078125 109.189453125 123.854492188 90.2705078125 c 0
 93.5810546875 -16.7568359375 72.2626953125 -66.390625 55.1083984375 -69.7861328125 c 0
 38.421875 -73.0888671875 38.478515625 -51.3515625 55.255859375 -12.97265625 c 0
 64.05859375 7.1630859375 78.7646484375 51.8916015625 87.779296875 85.9462890625 c 0
 103.688476562 146.046875 106.107421875 161.622070312 112.971679688 248.108398438 c 0
 114.73046875 270.270507812 117.4140625 300.901367188 118.891601562 315.67578125 c 0
 120.3828125 330.586914062 124.866210938 381.3515625 128.891601562 428.918945312 c 0
 132.91796875 476.486328125 138.491210938 515.983398438 141.32421875 517.02734375 c 0
 144.02734375 518.022460938 151.32421875 522.514648438 156.729492188 526.509765625 c 0
263.32421875 292.432617188 m 0
 258.458984375 297.837890625 253.125976562 302.069335938 251.32421875 301.953125 c 0
 241.262695312 301.303710938 227.484375 282.162109375 197.390625 227.02734375 c 2
 163.756835938 165.405273438 l 1
 172.776367188 140.541015625 l 2
 193.364257812 83.7841796875 211.916015625 50.462890625 228.081054688 41.2060546875 c 0
 260.7734375 22.484375 269.274414062 29.7294921875 281.215820312 86.486328125 c 0
 297.93359375 165.946289062 289.46875 263.3828125 263.32421875 292.432617188 c 0
EndSplineSet
EndChar

StartChar: plus
Encoding: 43 43 2
Width: 447
VWidth: 0
Flags: W
HStem: 389.189 25.4053<82.5558 202.151> 397.312 40.0674<246.989 394.198>
VStem: 207.081 29.1758<214.24 388.774> 235.524 18.8535<490.67 507.625>
LayerCount: 2
Back
Fore
SplineSet
233.837890625 470.798828125 m 0xa0
 243.961914062 477.010742188 249.499023438 470.810546875 247.827148438 455.134765625 c 2
 246.270507812 440.541015625 l 1
 305.729492188 437.379882812 l 2
 376 433.64453125 404.353515625 423.259765625 394.5078125 404.865234375 c 0
 389.571289062 395.641601562 385.189453125 394.225585938 371.134765625 397.3125 c 0x60
 339.784179688 404.19921875 273.282226562 405.940429688 258.162109375 400.270507812 c 0
 234.711914062 391.4765625 231.08203125 374.053710938 236.256835938 295.134765625 c 0
 240.297851562 233.513671875 239.767578125 223.500976562 231.946289062 213.784179688 c 0
 223.244140625 202.97265625 222.756835938 202.946289062 211.946289062 212.703125 c 0
 206 218.068359375 201.9921875 225.583007812 203.296875 228.918945312 c 0
 204.62890625 232.321289062 206.341796875 270 207.081054688 312.162109375 c 2
 208.432617188 389.189453125 l 1
 186.810546875 389.189453125 l 2
 174.918945312 389.189453125 156.432617188 386.734375 145.729492188 383.734375 c 0
 120.32421875 376.61328125 87.0595703125 387.674804688 80.55859375 405.405273438 c 0
 76.24609375 417.166015625 77.0810546875 417.662109375 96 414.594726562 c 0
 119.784179688 410.737304688 185.690429688 419.198242188 205.189453125 428.611328125 c 0
 212.64453125 432.2109375 220.520507812 442.162109375 222.756835938 450.810546875 c 0
 224.993164062 459.458984375 229.9609375 468.419921875 233.837890625 470.798828125 c 0xa0
235.524414062 502.703125 m 0x10
 240.469726562 510.784179688 254.377929688 509.189453125 254.377929688 500.541015625 c 0
 254.377929688 491.3515625 239.915039062 484.716796875 235.524414062 491.891601562 c 0
 233.5390625 495.134765625 233.5390625 499.458984375 235.524414062 502.703125 c 0x10
EndSplineSet
EndChar

StartChar: A
Encoding: 65 65 3
Width: 491
VWidth: -32
Flags: W
HStem: 245.346 37.373<218.225 360.456 403.194 438.29>
VStem: 360.229 37.0518<282.742 314.879>
LayerCount: 2
Back
Fore
SplineSet
298.453125 571.911132812 m 0
 309.465820312 589.5 328.983398438 588.780273438 340.541015625 570.359375 c 0
 362.794921875 534.885742188 372.877929688 497.762695312 380.870117188 421.86328125 c 0
 385.178710938 380.953125 390.68359375 332.463867188 393.015625 314.87890625 c 2
 397.28125 282.71875 l 1
 425.790039062 282.403320312 l 2
 472.833007812 281.884765625 474.737304688 256.661132812 428.287109375 249.315429688 c 2
 403.194335938 245.345703125 l 1
 417.926757812 157.377929688 l 2
 428.911132812 91.802734375 435.772460938 63.8427734375 444.87890625 47.5380859375 c 0
 453.864257812 31.4462890625 456.040039062 22.748046875 453.109375 14.634765625 c 0
 448.034179688 0.59375 443.388671875 -0.0361328125 429.107421875 11.38671875 c 0
 413.017578125 24.255859375 401.859375 59.06640625 382.364257812 157.225585938 c 2
 364.975585938 244.772460938 l 1
 323.876953125 245.11328125 l 2
 301.41015625 245.298828125 273.772460938 247.502929688 262.911132812 249.97265625 c 0
 251.983398438 252.458007812 233.202148438 254.4140625 221.178710938 254.317382812 c 2
 199.315429688 254.142578125 l 1
 174.994140625 203.779296875 l 2
 161.543945312 175.930664062 148.641601562 153.094726562 146.1328125 152.697265625 c 0
 143.676757812 152.30859375 137.973632812 140.735351562 133.704101562 127.47265625 c 0
 129.434570312 114.209960938 119.525390625 91.9287109375 112.108398438 78.908203125 c 0
 104.45703125 65.478515625 94.486328125 43.8330078125 89.54296875 29.916015625 c 0
 80.6845703125 4.982421875 65.1708984375 -4.7578125 56.921875 9.4345703125 c 0
 52.265625 17.4462890625 67.7021484375 69.01953125 78.376953125 81.111328125 c 0
 82.552734375 85.8427734375 85.5068359375 91.3916015625 85.126953125 93.794921875 c 0
 84.7587890625 96.1142578125 92.64453125 109.485351562 102.388671875 123.06640625 c 0
 112.12890625 136.646484375 120.014648438 150.018554688 119.647460938 152.338867188 c 0
 119.28515625 154.630859375 123.534179688 160.627929688 128.818359375 165.282226562 c 0
 134.103515625 169.934570312 137.1171875 175.736328125 135.322265625 177.802734375 c 0
 131.306640625 182.421875 146.216796875 219.641601562 154.938476562 226.77734375 c 0
 158.814453125 229.947265625 161.323242188 234.84375 160.79296875 238.19921875 c 0
 160.262695312 241.5546875 162.892578125 248.655273438 166.9296875 254.766601562 c 0
 170.96484375 260.877929688 173.950195312 269.442382812 173.892578125 274.75 c 0
 173.837890625 279.732421875 178.217773438 288.921875 183.342773438 294.577148438 c 0
 188.564453125 300.338867188 199.587890625 324.783203125 207.659179688 348.497070312 c 0
 236.59765625 433.521484375 282.452148438 546.356445312 298.453125 571.911132812 c 0
328.859375 519.803710938 m 0
 324.186523438 528.916992188 318.922851562 535.71875 316.826171875 535.354492188 c 0
 312.96875 534.682617188 262.671875 409.735351562 259.208007812 392.221679688 c 0
 257.966796875 385.9453125 248.168945312 362.018554688 237.16015625 338.387695312 c 0
 226.151367188 314.754882812 217.68359375 293.71484375 218.10546875 291.045898438 c 0
 219.04296875 285.118164062 323.715820312 273.818359375 345.60546875 277.280273438 c 0
 361.017578125 279.71875 361.5703125 280.900390625 360.229492188 308.599609375 c 0
 357.338867188 368.33984375 337.282226562 503.374023438 328.859375 519.803710938 c 0
EndSplineSet
EndChar

StartChar: u
Encoding: 117 117 4
Width: 322
VWidth: -165
Flags: W
VStem: 229.648 73.5137<217.982 318.869>
LayerCount: 2
Back
Fore
SplineSet
106.946289062 409.030273438 m 0
 118.142578125 416.215820312 121.6640625 414.458984375 127.486328125 398.784179688 c 0
 133.012695312 383.90625 130.404296875 367.97265625 115.2734375 324.189453125 c 0
 95.1005859375 265.810546875 73.2294921875 146.563476562 73.0400390625 93.9189453125 c 0
 72.9189453125 60.4052734375 74.7841796875 51.095703125 83.162109375 43.3779296875 c 0
 92.931640625 34.3798828125 94.513671875 35 115.594726562 56.0810546875 c 0
 128.02734375 68.513671875 137.756835938 80.97265625 137.756835938 84.458984375 c 0
 137.756835938 87.8623046875 146.197265625 102.296875 156.405273438 116.3515625 c 0
 166.787109375 130.645507812 180.0859375 153.6484375 186.405273438 168.243164062 c 0
 192.6484375 182.662109375 204.932617188 209.053710938 213.703125 226.891601562 c 0
 222.47265625 244.729492188 229.6484375 261.513671875 229.6484375 264.189453125 c 0
 229.6484375 266.860351562 235.499023438 281.486328125 242.622070312 296.622070312 c 0
 249.809570312 311.895507812 259.267578125 342.02734375 263.830078125 364.189453125 c 0
 272.84375 407.97265625 277.30078125 415.544921875 292.3515625 412.650390625 c 0
 300.719726562 411.041015625 302.721679688 405.270507812 303.162109375 381.486328125 c 0
 303.458984375 365.479492188 300.529296875 337.162109375 296.67578125 318.784179688 c 0
 292.806640625 300.333007812 287.002929688 263.6484375 283.76171875 237.162109375 c 0
 277.478515625 185.810546875 266.532226562 131.030273438 253.196289062 84.189453125 c 0
 241.9609375 44.7294921875 247.455078125 -12.4736328125 263.703125 -25.2119140625 c 0
 277.881835938 -36.328125 272.891601562 -51.486328125 255.053710938 -51.486328125 c 0
 236.786132812 -51.486328125 226.71875 -37.4326171875 217.109375 1.486328125 c 0
 208.596679688 35.9619140625 208.6328125 36.3515625 227.486328125 114.729492188 c 0
 237.888671875 157.97265625 245.431640625 197.271484375 244.243164062 202.02734375 c 0
 243.017578125 206.927734375 231.677734375 189.594726562 218.072265625 162.02734375 c 0
 163.919921875 52.296875 121.340820312 2.5673828125 81.541015625 2.5673828125 c 0
 49.81640625 2.5673828125 32.1787109375 69.0537109375 44.11328125 143.6484375 c 0
 62.7080078125 259.865234375 96.4267578125 402.278320312 106.946289062 409.030273438 c 0
EndSplineSet
EndChar

StartChar: bracketleft
Encoding: 91 91 5
Width: 311
VWidth: -40
Flags: W
HStem: 11.3516 21G<241.973 274.405>
VStem: 100.892 34.3242<44.4167 202.645> 137.108 37.0264<310.829 424.865 522.162 551.892>
LayerCount: 2
Back
Fore
SplineSet
171.162109375 633.404296875 m 0
 214.946289062 653.356445312 266.296875 649.330078125 266.296875 625.946289062 c 0
 266.296875 620.541015625 269.180664062 613.333007812 272.784179688 609.729492188 c 0
 277.6484375 604.865234375 277.715820312 603.243164062 273.053710938 603.243164062 c 0
 269.810546875 603.243164062 265.416015625 605.5703125 263.865234375 608.108398438 c 0
 257.838867188 617.969726562 225.215820312 619.962890625 209 611.461914062 c 0
 200.3515625 606.927734375 189.689453125 603.243164062 185.215820312 603.243164062 c 0
 180.891601562 603.243164062 173.450195312 600.846679688 169.270507812 598.108398438 c 0
 162.303710938 593.543945312 162.36328125 591.891601562 169.810546875 583.243164062 c 0
 176.818359375 575.10546875 177.525390625 563.784179688 174.134765625 514.053710938 c 0
 171.900390625 481.279296875 167.291015625 404.865234375 163.865234375 343.784179688 c 0
 160.165039062 277.837890625 154.293945312 222.030273438 149.364257812 205.946289062 c 0
 127.4921875 134.594726562 125.477539062 122.198242188 131.703125 97.296875 c 0
 134.946289062 84.32421875 136.54296875 65.896484375 135.215820312 56.7568359375 c 0
 132.862304688 40.541015625 133.32421875 40.099609375 149.541015625 43.091796875 c 0
 189.541015625 50.47265625 238.259765625 52.8564453125 255.486328125 48.2744140625 c 0
 271.703125 43.9619140625 274.405273438 40.96484375 274.405273438 27.296875 c 2
 274.405273438 11.3515625 l 1
 241.97265625 13.2431640625 l 2
 224.1171875 14.28515625 187.918945312 11.291015625 161.432617188 6.5830078125 c 0
 106.837890625 -3.123046875 90.154296875 0.6083984375 96.6044921875 21.0810546875 c 0
 98.6728515625 27.6455078125 100.59375 63.2431640625 100.891601562 100.541015625 c 0
 101.315429688 153.513671875 103.526367188 172.194335938 111.127929688 187.02734375 c 0
 122.0078125 208.255859375 124.225585938 222.703125 128.549804688 300.541015625 c 0
 130.290039062 331.870117188 134.124023438 387.567382812 137.108398438 424.865234375 c 0
 140.091796875 462.162109375 142.998046875 505.750976562 143.594726562 522.162109375 c 2
 144.67578125 551.891601562 l 1
 123.053710938 554.594726562 l 2
 106.296875 556.689453125 101.067382812 559.8515625 99.810546875 568.6484375 c 0
 97.7099609375 583.3515625 134.405273438 616.654296875 171.162109375 633.404296875 c 0
EndSplineSet
EndChar

StartChar: h
Encoding: 104 104 6
Width: 287
VWidth: 0
Flags: W
VStem: 58.7354 32.0811<-48.3474 106.424> 110.555 29.2871<240.204 423.527> 209.017 40.4863<2.90499 183.634>
LayerCount: 2
Back
Fore
SplineSet
110.5546875 410.06640625 m 0
 110.087890625 427.713867188 110.522460938 428.127929688 124.916015625 423.7265625 c 0
 138.911132812 419.448242188 139.763671875 416.9921875 139.841796875 380.752929688 c 0
 139.888671875 359.756835938 136.782226562 314.603515625 132.999023438 281.239257812 c 2
 126.071289062 220.163085938 l 1
 140.616210938 221.715820312 l 2
 148.615234375 222.569335938 169.581054688 221.000976562 187.205078125 218.23046875 c 0
 226.192382812 212.103515625 245.649414062 195.416015625 257.385742188 158.0390625 c 0
 263.669921875 138.02734375 263.407226562 124.043945312 255.928710938 80.3544921875 c 0
 250.913085938 51.05078125 248.021484375 24.14453125 249.502929688 20.5625 c 0
 251.028320312 16.8720703125 244.3671875 10.1142578125 234.12890625 4.9697265625 c 0
 209.295898438 -7.509765625 199.411132812 3.59765625 209.016601562 33.189453125 c 0
 241.036132812 131.831054688 239.075195312 159.450195312 198.58984375 180.069335938 c 0
 178.443359375 190.330078125 173.748046875 191.021484375 156.32421875 186.288085938 c 0
 145.370117188 183.311523438 132.374023438 176.159179688 126.865234375 170.076171875 c 0
 114.856445312 156.815429688 92.45703125 52.64453125 90.81640625 2.4375 c 0
 89.623046875 -34.1279296875 82.53515625 -50.9912109375 69.33984375 -48.6640625 c 0
 55.111328125 -46.1552734375 53.3642578125 -29.9296875 58.7353515625 49.80859375 c 0
 62.6806640625 108.391601562 66.8095703125 136.963867188 73.7373046875 153.645507812 c 0
 94.8076171875 204.379882812 112.701171875 329.00390625 110.5546875 410.06640625 c 0
EndSplineSet
EndChar

StartChar: nine
Encoding: 57 57 7
Width: 416
VWidth: -30
Flags: W
HStem: 258.703 24.8105<101.798 160.622>
VStem: 245.656 34.1104<13.6393 186.171>
LayerCount: 2
Back
Fore
SplineSet
235.946289062 532.228515625 m 0
 283.513671875 537.567382812 283.513671875 537.567382812 306.756835938 528.606445312 c 0
 318.6484375 524.021484375 336.405273438 520.624023438 346.215820312 521.057617188 c 0
 365.555664062 521.91015625 364.932617188 522.97265625 374.237304688 473.243164062 c 0
 379.900390625 442.97265625 379.650390625 437.28515625 372.432617188 432.162109375 c 0
 367.885742188 428.935546875 360.345703125 410.270507812 355.946289062 391.3515625 c 0
 351.545898438 372.432617188 344.995117188 349.069335938 341.622070312 340.270507812 c 0
 338.184570312 331.303710938 329.7265625 303.513671875 322.703125 278.108398438 c 0
 315.685546875 252.728515625 302.499023438 206.756835938 293.243164062 175.405273438 c 0
 281.752929688 136.486328125 277.517578125 113.041992188 279.766601562 100.810546875 c 0
 282.59765625 85.419921875 277.229492188 43.513671875 268.412109375 12.162109375 c 0
 266.971679688 7.041015625 260.810546875 2.4326171875 255.405273438 2.4326171875 c 0
 245.831054688 2.4326171875 245.170898438 6.7568359375 245.65625 66.2158203125 c 0
 246.188476562 131.432617188 248.162109375 141.3515625 285.134765625 264.594726562 c 0
 293.147460938 291.303710938 306.555664062 338.108398438 314.865234375 368.377929688 c 0
 323.174804688 398.6484375 331.462890625 425.951171875 333.243164062 428.918945312 c 0
 335.189453125 432.162109375 334.541015625 435.513671875 331.622070312 437.296875 c 0
 328.975585938 438.915039062 317.266601562 424.865234375 305.946289062 406.486328125 c 0
 294.529296875 387.954101562 263.784179688 351.595703125 237.837890625 325.946289062 c 0
 195.67578125 284.265625 186.491210938 277.869140625 153.243164062 267.02734375 c 0
 132.703125 260.329101562 112.545898438 256.58984375 108.377929688 258.703125 c 0
 87.296875 269.396484375 75.8056640625 277.557617188 68.876953125 286.756835938 c 0
 44.796875 318.725585938 81.734375 425.67578125 136.64453125 482.97265625 c 0
 167.336914062 515 192.162109375 527.313476562 235.946289062 532.228515625 c 0
305.67578125 496.100585938 m 0
 275.946289062 504.220703125 201.3515625 502.950195312 201.3515625 494.32421875 c 0
 201.3515625 491.670898438 190.541015625 484.66796875 177.567382812 478.918945312 c 0
 157.94140625 470.220703125 149.767578125 461.622070312 130.810546875 429.729492188 c 0
 118.280273438 408.6484375 107.223632812 385.306640625 106.486328125 378.377929688 c 0
 105.739257812 371.3515625 102.399414062 360.603515625 99.01171875 354.32421875 c 0
 82.681640625 324.053710938 97.328125 283.513671875 124.594726562 283.513671875 c 0
 166.282226562 283.513671875 241.53125 352.703125 292.140625 437.567382812 c 0
 316.961914062 479.189453125 319.969726562 492.196289062 305.67578125 496.100585938 c 0
EndSplineSet
EndChar

StartChar: two
Encoding: 50 50 8
Width: 530
VWidth: -55
Flags: W
LayerCount: 2
Back
Fore
SplineSet
244.97265625 593.20703125 m 0
 272 610.305664062 293.563476562 611.59375 311.458984375 597.176757812 c 0
 331.756835938 580.826171875 375.09765625 459.053710938 383.127929688 395.810546875 c 0
 388.07421875 356.859375 387.330078125 345 376.987304688 297.97265625 c 0
 359.987304688 220.67578125 336.866210938 175.704101562 286.391601562 121.756835938 c 0
 252.505859375 85.541015625 252.541015625 85.0556640625 288.756835938 88.7919921875 c 0
 306.053710938 90.5771484375 331.981445312 95.408203125 346.594726562 99.5693359375 c 0
 407.67578125 116.961914062 479.567382812 102.071289062 479.567382812 72.02734375 c 0
 479.567382812 54.5947265625 473.081054688 51.9716796875 453.622070312 61.537109375 c 0
 432.982421875 71.681640625 383.3515625 73.4990234375 344.432617188 65.53515625 c 0
 288.215820312 54.0322265625 222.561523438 36.6142578125 176.865234375 21.0810546875 c 0
 119.567382812 1.603515625 82.4814453125 -4.3779296875 72 4.16796875 c 0
 57.4140625 16.0615234375 69.296875 24.8369140625 123.891601562 42.486328125 c 0
 170.918945312 57.6884765625 183.581054688 64.5185546875 215.243164062 91.7568359375 c 0
 235.243164062 108.962890625 259.26953125 133.974609375 267.946289062 146.622070312 c 0
 276.845703125 159.594726562 287.713867188 173.014648438 292.541015625 176.994140625 c 0
 308.11328125 189.831054688 336.141601562 244.458984375 348.232421875 285.541015625 c 0
 365.254882812 343.377929688 364.1953125 385.251953125 344.267578125 442.296875 c 0
 335.391601562 467.703125 326.766601562 500.446289062 324.97265625 515.541015625 c 0
 322.661132812 535 317.25390625 547.8046875 306.143554688 560.134765625 c 0
 285.787109375 582.725585938 266.053710938 582.977539062 238.486328125 561.000976562 c 0
 218.486328125 545.056640625 195.190429688 535.323242188 189.837890625 540.67578125 c 0
 185.318359375 545.1953125 217.405273438 575.766601562 244.97265625 593.20703125 c 0
EndSplineSet
EndChar

StartChar: asterisk
Encoding: 42 42 9
Width: 468
VWidth: -30
Flags: W
HStem: 432.973 71.1348<312.005 340.088> 512.538 12.6982<105.103 134.37> 580.811 55.6758<160.027 184.974>
VStem: 199.643 30.5195<334.951 399.982> 250.162 30.8105<584.106 633.137>
LayerCount: 2
Back
Fore
SplineSet
283.67578125 667.891601562 m 0
 294.918945312 675.200195312 298.892578125 673.784179688 303.54296875 660.810546875 c 0
 306.938476562 651.338867188 304.911132812 644.32421875 295.02734375 631.3515625 c 0
 286.579101562 620.263671875 281.676757812 606.215820312 280.97265625 591.081054688 c 2
 279.891601562 567.837890625 l 1
 302.053710938 566.215820312 l 2
 319.891601562 564.911132812 328.224609375 567.7890625 344.756835938 580.96484375 c 0
 377.729492188 607.244140625 400.944335938 620.014648438 409.622070312 616.647460938 c 0
 421.615234375 611.993164062 418.810546875 598.368164062 403.67578125 587.762695312 c 0
 360.97265625 557.83984375 358.760742188 554.948242188 366.506835938 539.189453125 c 0
 370.4921875 531.081054688 379.041992188 518.533203125 384.922851562 512.162109375 c 0
 398.893554688 497.02734375 399.212890625 488.918945312 385.837890625 488.918945312 c 0
 371.243164062 488.918945312 358.025390625 494.697265625 361.108398438 499.729492188 c 0
 364.663085938 505.533203125 338.810546875 532.162109375 329.622070312 532.162109375 c 0
 325.458984375 532.162109375 317.7421875 527.296875 312.471679688 521.3515625 c 0
 302.326171875 509.904296875 304.215820312 507.875976562 328.541015625 504.107421875 c 0
 337.189453125 502.767578125 339.513671875 498.108398438 340.162109375 480.810546875 c 0
 340.608398438 468.918945312 341.82421875 454.689453125 342.865234375 449.189453125 c 0
 343.887695312 443.784179688 340.286132812 436.333007812 335.02734375 432.97265625 c 0
 326.833984375 427.73828125 321.541992188 430.810546875 301.513671875 452.432617188 c 0
 288.495117188 466.486328125 275.283203125 478.108398438 272.32421875 478.108398438 c 0
 265.456054688 478.108398438 247.463867188 419.189453125 240.30078125 373.243164062 c 0
 237.098632812 352.703125 232.543945312 334.002929688 230.162109375 331.622070312 c 0
 222.51171875 323.970703125 202.791015625 332.703125 199.642578125 345.134765625 c 0
 196.494140625 357.567382812 203.852539062 420.100585938 209.565429688 429.458984375 c 0
 211.341796875 432.370117188 209.622070312 434.77734375 205.837890625 434.674804688 c 0
 196.319335938 434.41796875 152.865234375 376.486328125 152.865234375 364.053710938 c 0
 152.865234375 348.918945312 144.408203125 347.477539062 137.008789062 361.3515625 c 0
 125.477539062 382.97265625 135.903320312 402.97265625 189.139648438 461.3515625 c 0
 214.279296875 488.918945312 216.71875 493.583007812 209.3515625 500 c 0
 204.302734375 504.397460938 184.215820312 507.619140625 158.810546875 508.108398438 c 0
 135.567382812 508.5546875 113.98046875 510.54296875 110.703125 512.538085938 c 0
 102.594726562 517.473632812 102.594726562 524.729492188 110.703125 525.236328125 c 0
 114.684570312 525.485351562 124.756835938 528.134765625 133.946289062 531.3515625 c 0
 142.822265625 534.458007812 161.784179688 540.084960938 175.837890625 543.784179688 c 0
 193.67578125 548.477539062 200.688476562 552.850585938 198.810546875 558.108398438 c 0
 197.266601562 562.432617188 196.108398438 568.918945312 196.108398438 573.243164062 c 0
 196.108398438 577.567382812 193.096679688 580.810546875 189.081054688 580.810546875 c 0
 181.513671875 580.810546875 136.6484375 622.438476562 136.6484375 629.458984375 c 0
 136.6484375 631.837890625 141.513671875 635 147.458984375 636.486328125 c 0
 155.080078125 638.391601562 168 630.49609375 191.243164062 609.729492188 c 0
 211.243164062 591.861328125 227.40625 581.440429688 232.32421875 583.243164062 c 0
 236.6484375 584.829101562 242.703125 586.215820312 245.296875 586.215820312 c 0
 247.958984375 586.215820312 250.162109375 599.189453125 250.162109375 614.865234375 c 0
 250.162109375 654.32421875 254.772460938 668.750976562 266.377929688 665.608398438 c 0
 271.784179688 664.14453125 279.471679688 665.159179688 283.67578125 667.891601562 c 0
EndSplineSet
EndChar

StartChar: P
Encoding: 80 80 10
Width: 412
VWidth: 40
Flags: W
VStem: 58.6191 48.4629<219.477 315.75> 114.297 12.9736<83.8717 134.753> 347.541 28.6484<460.769 605.239>
LayerCount: 2
Back
Fore
SplineSet
264.567382812 650.934570312 m 0
 311.053710938 658.903320312 343.131835938 649.440429688 363.930664062 621.622070312 c 0
 375.266601562 606.4609375 376.43359375 599.458984375 376.189453125 548.108398438 c 0
 375.958007812 499.458984375 373.37890625 483.243164062 358.139648438 434.594726562 c 0
 332.741210938 353.513671875 310.10546875 299.790039062 291.408203125 276.215820312 c 0
 257.025390625 232.86328125 170.513671875 186.264648438 124.02734375 186.056640625 c 2
 99.162109375 185.946289062 l 1
 93.1416015625 145.405273438 l 2
 85.8359375 96.2158203125 85.60546875 72.6201171875 92.328125 62.162109375 c 0
 96.60546875 55.509765625 98.123046875 55.9462890625 100.784179688 64.5947265625 c 0
 102.61328125 70.541015625 106.265625 79.2587890625 109.162109375 84.5947265625 c 0
 111.950195312 89.7294921875 114.296875 102.703125 114.296875 112.97265625 c 0
 114.296875 132.97265625 122.052734375 142.344726562 127.270507812 128.6484375 c 0
 137.56640625 101.622070312 125.08203125 19.6552734375 108.3515625 4.431640625 c 0
 98.341796875 -4.6767578125 96.458984375 -4.7568359375 82.9462890625 3.3515625 c 0
 64.7958984375 14.2412109375 55.880859375 52.4326171875 58.619140625 107.567382812 c 0
 63.048828125 196.756835938 71.576171875 280.856445312 79.1728515625 310.270507812 c 0
 83.640625 327.567382812 87.2705078125 348.52734375 87.2705078125 357.02734375 c 0
 87.2705078125 365.515625 92.068359375 396.215820312 97.9580078125 425.405273438 c 0
 111.262695312 491.3515625 111.336914062 495.428710938 99.162109375 491.66015625 c 0
 93.673828125 489.9609375 84.837890625 492.065429688 78.8916015625 496.486328125 c 0
 68.63671875 504.112304688 68.8916015625 504.827148438 88.3515625 522.932617188 c 0
 108.3515625 541.541992188 130.513671875 578.92578125 130.513671875 594.053710938 c 0
 130.513671875 599.141601562 135.6484375 602.162109375 144.296875 602.162109375 c 0
 151.8828125 602.162109375 176.189453125 612.127929688 198.3515625 624.32421875 c 0
 220.513671875 636.520507812 250.2890625 648.486328125 264.567382812 650.934570312 c 0
314.567382812 618.377929688 m 0
 309.162109375 618.377929688 301.338867188 619.309570312 297.541015625 620.405273438 c 0
 287 623.446289062 252.67578125 614.646484375 228.891601562 602.805664062 c 0
 155.918945312 566.477539062 151.022460938 560.030273438 141.360351562 487.567382812 c 0
 138.044921875 462.703125 131.916992188 428.245117188 127.61328125 410.270507812 c 0
 118.03515625 370.270507812 102.654296875 229.75390625 107.08203125 222.703125 c 0
 112.765625 213.650390625 155.377929688 221.821289062 191.053710938 238.803710938 c 0
 257.271484375 270.325195312 284.928710938 307.02734375 314.157226562 402.162109375 c 0
 323.7890625 433.513671875 335.102539062 467.024414062 339.432617188 477.02734375 c 0
 343.938476562 487.436523438 347.384765625 514.32421875 347.541015625 540.270507812 c 0
 347.767578125 578.108398438 345.931640625 588.071289062 336.189453125 601.891601562 c 0
 329.711914062 611.081054688 320.141601562 618.377929688 314.567382812 618.377929688 c 0
EndSplineSet
EndChar

StartChar: four
Encoding: 52 52 11
Width: 436
VWidth: -97
Flags: W
HStem: 181.648 10.2705<93.112 103.212>
VStem: 93.0273 10.2695<181.733 191.834> 117.884 32.1953<519.551 541.496> 276.624 48.1562<363.014 462.011 462.508 512.224>
LayerCount: 2
Back
Fore
SplineSet
93.02734375 189.756835938 m 0
 94.810546875 192.837890625 98.0537109375 193.703125 101.134765625 191.918945312 c 0
 104.215820312 190.134765625 105.081054688 186.891601562 103.296875 183.810546875 c 0
 101.513671875 180.729492188 98.2705078125 179.865234375 95.189453125 181.6484375 c 0
 92.1083984375 183.432617188 91.2431640625 186.67578125 93.02734375 189.756835938 c 0
123.567382812 541.6484375 m 0
 127.3515625 544.123046875 131.841796875 546.280273438 133.296875 546.322265625 c 0
 139.916015625 546.517578125 149.611328125 532.729492188 150.079101562 522.458984375 c 0
 150.373046875 515.97265625 151.70703125 513.887695312 153.189453125 517.594726562 c 0
 156.215820312 525.162109375 171.134765625 526.510742188 171.134765625 519.215820312 c 0
 171.134765625 516.622070312 167.3515625 510.567382812 163.02734375 506.243164062 c 0
 153.837890625 497.053710938 152.6796875 486.01171875 160.079101562 478.134765625 c 0
 162.7265625 475.31640625 161.3515625 440.296875 156.810546875 394.891601562 c 0
 152.486328125 351.6484375 147.8828125 302.581054688 146.541015625 285.432617188 c 2
 144.108398438 254.3515625 l 1
 158.97265625 257.32421875 l 2
 167.057617188 258.94140625 187.891601562 264.2421875 204.6484375 268.946289062 c 2
 235.458984375 277.594726562 l 1
 248.97265625 337.594726562 l 2
 256.399414062 370.567382812 265.408203125 409.768554688 268.97265625 424.622070312 c 0
 272.60546875 439.756835938 275.971679688 461.637695312 276.624023438 474.3515625 c 0
 278.204101562 505.162109375 286.74609375 514.409179688 312.215820312 512.880859375 c 0
 330.053710938 511.810546875 332.1015625 510.439453125 327.779296875 502.458984375 c 0
 320.751953125 489.486328125 321.120117188 466.840820312 328.432617188 462.28125 c 0
 334.778320312 458.325195312 331.919921875 337.053710938 324.780273438 307.32421875 c 0
 321.635742188 294.228515625 323.02734375 293.017578125 345.189453125 289.563476562 c 0
 391.134765625 282.403320312 399.611328125 274.5234375 382.486328125 254.891601562 c 0
 372.112304688 243 360.32421875 239.836914062 360.32421875 248.946289062 c 0
 360.32421875 256.909179688 335.458984375 261.340820312 324.108398438 255.401367188 c 0
 317.37890625 251.879882812 311.57421875 239.215820312 307.272460938 218.67578125 c 0
 299.34765625 180.837890625 239.66015625 12.6064453125 231.134765625 4.0810546875 c 0
 226.67578125 -0.3779296875 223.02734375 0.296875 216.541015625 6.7841796875 c 0
 205.046875 18.27734375 205.202148438 120.837890625 216.8046875 180.296875 c 0
 227.66796875 235.97265625 228.032226562 234.48046875 204.6484375 230.041015625 c 0
 193.837890625 227.98828125 179.30859375 226.491210938 173.02734375 226.784179688 c 0
 166.490234375 227.087890625 154.07421875 219.756835938 144.6484375 210.02734375 c 0
 128.939453125 193.810546875 127.013671875 193.203125 113.837890625 200.296875 c 0
 91.7529296875 212.189453125 82.833984375 240.296875 89.826171875 275.97265625 c 0
 108.576171875 371.6484375 119.684570312 462.385742188 117.883789062 505.162109375 c 0
 116.97265625 526.784179688 118.803710938 538.533203125 123.567382812 541.6484375 c 0
EndSplineSet
EndChar

StartChar: p
Encoding: 112 112 12
Width: 327
VWidth: -230
Flags: W
HStem: 7.83789 27.0273<108.385 153.308>
VStem: 69.2646 34.6816<-162.176 0.881216 49.6804 176.025>
LayerCount: 2
Back
Fore
SplineSet
139.622070312 296.556640625 m 0
 176.377929688 312.444335938 232.125976562 304.266601562 268.270507812 277.684570312 c 0
 287.458984375 263.572265625 306.6484375 221.891601562 306.6484375 194.32421875 c 0
 306.6484375 163.767578125 284.739257812 127.837890625 236.111328125 78.6484375 c 0
 191.7578125 33.7841796875 150.857421875 7.837890625 124.486328125 7.837890625 c 0
 118 7.837890625 110.62890625 4.7666015625 108.270507812 1.0810546875 c 0
 105.884765625 -2.646484375 103.946289062 -40.810546875 103.946289062 -84.0537109375 c 2
 103.946289062 -162.432617188 l 1
 90.4326171875 -162.432617188 l 2
 72.501953125 -162.432617188 69.8125 -150 69.2646484375 -64.5947265625 c 0
 68.8662109375 -2.4326171875 67.5068359375 7.8671875 58.130859375 19.7294921875 c 0
 44.033203125 37.5673828125 44.3173828125 41.8916015625 60.76171875 59.7294921875 c 0
 73.05859375 73.0693359375 74.2158203125 78.6484375 74.2158203125 124.594726562 c 0
 74.2158203125 170.541015625 69.2744140625 189.12109375 60.703125 175.405273438 c 0
 56.6484375 168.918945312 37.9658203125 168.541015625 34.013671875 174.865234375 c 0
 32.3212890625 177.572265625 38.1640625 193.513671875 47.189453125 210.810546875 c 0
 59.31640625 234.053710938 62.6083984375 246.25390625 60.2451171875 259.189453125 c 0
 55.9990234375 282.432617188 67.0693359375 290.989257812 87.7294921875 280.434570312 c 0
 101.243164062 273.53125 103.8203125 273.541992188 111.784179688 280.541015625 c 0
 116.625 284.794921875 129.3515625 292.1171875 139.622070312 296.556640625 c 0
241.243164062 256.65234375 m 0
 220.786132812 271.208984375 195.837890625 277.037109375 173.67578125 272.4375 c 0
 150.97265625 267.725585938 118.668945312 247.5390625 115.280273438 235.946289062 c 0
 113.797851562 230.872070312 111.020507812 183.784179688 109.081054688 130.810546875 c 0
 105.577148438 35.134765625 105.600585938 34.865234375 117.189453125 34.865234375 c 0
 123.581054688 34.865234375 138.541015625 39.849609375 150.432617188 45.9423828125 c 0
 179.622070312 60.896484375 257.408203125 135.541015625 266.755859375 157.567382812 c 0
 282.583007812 194.865234375 272.377929688 234.499023438 241.243164062 256.65234375 c 0
EndSplineSet
EndChar

StartChar: z
Encoding: 122 122 13
Width: 547
VWidth: -180
Flags: W
HStem: 31.459 27.7305<402.927 523.343>
LayerCount: 2
Back
Fore
SplineSet
384.837890625 371.081054688 m 0
 402.67578125 373.013671875 421.405273438 372.5859375 426.458984375 370.130859375 c 0
 449.8125 358.788085938 434.02734375 339.060546875 341.053710938 263.399414062 c 0
 317.810546875 244.484375 281.108398438 212.145507812 260.513671875 192.432617188 c 0
 239.432617188 172.254882812 210.70703125 146.760742188 195.6484375 134.865234375 c 0
 180.764648438 123.106445312 152.958007812 96.7568359375 133.756835938 76.2158203125 c 0
 102.934570312 43.2431640625 100.239257812 38.73046875 110.513671875 37.296875 c 0
 116.892578125 36.4072265625 154.567382812 49.6875 194.02734375 66.734375 c 0
 289.162109375 107.834960938 309.583007812 109.546875 377.810546875 82.138671875 c 0
 416.729492188 66.5048828125 437.293945312 61.515625 472.405273438 59.189453125 c 0
 501.053710938 57.291015625 519.537109375 53.48046875 523.541015625 48.6484375 c 0
 531.87109375 38.5947265625 528.622070312 36.6298828125 495.108398438 31.458984375 c 0
 456.729492188 25.5380859375 426.098632812 27.8974609375 400.513671875 38.74609375 c 0
 379.443359375 47.6796875 354.567382812 54.7255859375 315.108398438 62.9375 c 0
 291.67578125 67.8134765625 236.729492188 51.580078125 170.784179688 20.2978515625 c 0
 117.810546875 -4.830078125 58.546875 -8.9677734375 50.3837890625 11.8916015625 c 0
 48.5712890625 16.525390625 50.6435546875 27.5673828125 54.84765625 35.67578125 c 0
 62.7353515625 50.88671875 147 138.904296875 184.837890625 171.455078125 c 0
 261.053710938 237.021484375 344.786132812 307.099609375 368.622070312 325.271484375 c 0
 378.622070312 332.895507812 377.810546875 333.270507812 357.810546875 330.270507812 c 0
 346.017578125 328.500976562 322.67578125 322.139648438 306.458984375 316.2734375 c 0
 245.377929688 294.180664062 226.682617188 289.534179688 182.134765625 285.373046875 c 0
 143.756835938 281.788085938 131.381835938 282.708984375 107 290.967773438 c 0
 78.3515625 300.670898438 69.068359375 307.984375 68.77734375 321.081054688 c 0
 68.52734375 332.3671875 94.02734375 335.577148438 108.622070312 326.095703125 c 0
 125.604492188 315.063476562 181.594726562 314.482421875 222.134765625 324.91796875 c 0
 238.056640625 329.016601562 274.296875 340.41796875 301.865234375 350 c 0
 329.432617188 359.58203125 367.147460938 369.165039062 384.837890625 371.081054688 c 0
EndSplineSet
EndChar

StartChar: s
Encoding: 115 115 14
Width: 352
VWidth: -127
Flags: W
HStem: 179.713 35.6357<126.1 255.178> 351.948 37.8086<169.762 296.357>
VStem: 30.1279 28.2139<43.9249 123.435>
LayerCount: 2
Back
Fore
SplineSet
193.02734375 388.370117188 m 0
 199.024414062 390.0390625 220.32421875 390.65625 240.865234375 389.756835938 c 0
 271.134765625 388.430664062 282.03515625 385.216796875 300.594726562 372.14453125 c 0
 328.162109375 352.727539062 335.487304688 335.065429688 324.901367188 313.541015625 c 0
 313.631835938 290.625976562 305.5625 291.377929688 301.701171875 315.703125 c 0
 297.388671875 342.872070312 289.784179688 347.15625 237.3515625 351.948242188 c 0
 196.810546875 355.653320312 195.982421875 355.471679688 174.377929688 338.134765625 c 0
 162.486328125 328.591796875 153.844726562 318.345703125 155.458984375 315.703125 c 0
 157.060546875 313.083007812 151.946289062 304.3515625 144.377929688 296.784179688 c 0
 126.173828125 278.579101562 120.744140625 263.810546875 124.108398438 241.6484375 c 0
 128.458007812 212.991210938 135.729492188 211.58984375 260.594726562 215.348632812 c 0
 289.243164062 216.2109375 290.38671875 215.693359375 292.05078125 201.108398438 c 0
 295.944335938 166.983398438 251.946289062 97.3798828125 200.053710938 55.572265625 c 0
 97.3515625 -27.1708984375 20.7373046875 -12.490234375 30.1279296875 88.134765625 c 0
 35.6767578125 147.594726562 62.392578125 171.139648438 58.341796875 113 c 0
 57.2119140625 96.7841796875 59.337890625 72.951171875 63.01953125 60.5673828125 c 0
 71.7685546875 31.140625 86.541015625 29.2001953125 133.02734375 51.375 c 0
 158.97265625 63.751953125 176.166015625 77.1826171875 198.764648438 102.729492188 c 0
 231.280273438 139.486328125 255.189453125 172.010742188 255.189453125 179.486328125 c 0
 255.189453125 182.24609375 239.513671875 182.34375 218.97265625 179.712890625 c 0
 176.270507812 174.243164062 133.225585938 178.341796875 116.270507812 189.490234375 c 0
 83.7421875 210.877929688 81.2470703125 251.918945312 109.0546875 308.134765625 c 0
 125.6328125 341.6484375 166.930664062 381.108398438 193.02734375 388.370117188 c 0
EndSplineSet
EndChar

StartChar: L
Encoding: 76 76 15
Width: 369
VWidth: -130
Flags: W
HStem: 21.0811 53.6406<105.677 305.557>
LayerCount: 2
Back
Fore
SplineSet
123.786132812 455.946289062 m 0
 127.420898438 465.8828125 133.594726562 466.868164062 147.108398438 459.670898438 c 0
 159.541015625 453.049804688 166.41015625 428.294921875 158.4921875 418.6484375 c 0
 152.037109375 410.78515625 142.170898438 361.891601562 129.368164062 274.32421875 c 0
 125.1796875 245.67578125 120.314453125 219.685546875 118.642578125 217.02734375 c 0
 114.682617188 210.732421875 84.765625 94.32421875 80.30078125 67.837890625 c 0
 77.2021484375 49.458984375 77.8623046875 47.6103515625 86.5673828125 50.2705078125 c 0
 91.9248046875 51.9072265625 126.296875 55.7939453125 163.053710938 58.9189453125 c 0
 199.810546875 62.0439453125 231.75390625 65.806640625 234.134765625 67.291015625 c 0
 243.740234375 73.2802734375 313.594726562 78.99609375 324.946289062 74.7216796875 c 0
 342.34375 68.169921875 341.162109375 45.712890625 322.784179688 33.640625 c 0
 311.97265625 26.5390625 307.548828125 25.8759765625 305.720703125 31.0810546875 c 0
 302.572265625 40.041015625 277.918945312 39.490234375 226.02734375 29.3017578125 c 0
 202.243164062 24.6318359375 166 20.9326171875 145.486328125 21.0810546875 c 0
 115.215820312 21.30078125 103.809570312 18.7919921875 84.9462890625 7.767578125 c 0
 46.6904296875 -14.5888671875 31.2109375 1.8916015625 42.232421875 53.2431640625 c 0
 45.8154296875 69.9375 58.6689453125 123.513671875 70.8916015625 172.703125 c 0
 83.1142578125 221.891601562 95.962890625 280.073242188 99.541015625 302.432617188 c 0
 103.086914062 324.594726562 109.334960938 359.635742188 113.32421875 379.729492188 c 0
 117.294921875 399.729492188 120.622070312 423.509765625 120.622070312 431.891601562 c 0
 120.622070312 440.541015625 122.009765625 451.090820312 123.786132812 455.946289062 c 0
EndSplineSet
EndChar

StartChar: bar
Encoding: 124 124 16
Width: 173
VWidth: 0
Flags: W
VStem: 86.7314 30.1533<239.311 503.614>
LayerCount: 2
Back
Fore
SplineSet
89.6826171875 498.548828125 m 0
 91.373046875 501.725585938 97.8896484375 503.973632812 104.4296875 503.637695312 c 0
 113.336914062 503.180664062 116.108398438 499.776367188 115.98046875 489.455078125 c 0
 115.888671875 482.01171875 116.296875 442.819335938 116.884765625 402.717773438 c 0
 118.545898438 289.458984375 114.200195312 201.123046875 103.077148438 122.068359375 c 0
 97.5888671875 83.0625 97.8857421875 77.228515625 105.723632812 70.208984375 c 0
 113.573242188 63.1787109375 113.752929688 58.974609375 107.33984375 32.3681640625 c 0
 99.189453125 -1.443359375 87.3759765625 -8.876953125 72.279296875 10.3095703125 c 0
 63.4609375 21.515625 63.0517578125 26.5947265625 67.171875 73.619140625 c 0
 69.6162109375 101.504882812 72.677734375 138.399414062 73.9072265625 154.78515625 c 0
 75.1552734375 171.395507812 77.853515625 205.592773438 79.9453125 231.278320312 c 0
 84.5517578125 287.852539062 86.833984375 356.13671875 86.7314453125 434.263671875 c 0
 86.6875 466.2734375 88.02734375 495.440429688 89.6826171875 498.548828125 c 0
EndSplineSet
EndChar

StartChar: r
Encoding: 114 114 17
Width: 367
VWidth: -75
Flags: W
VStem: 51.6641 47.2012<2.58682 223.903>
LayerCount: 2
Back
Fore
SplineSet
152.486328125 465.64453125 m 0
 190.194335938 490.616210938 255.431640625 469.32421875 310.14453125 414.189453125 c 0
 335.891601562 388.243164062 349.541015625 359.892578125 340.594726562 350.946289062 c 0
 336.234375 346.5859375 330.32421875 349.32421875 318.432617188 361.215820312 c 0
 309.586914062 370.061523438 284.6484375 390.454101562 263.567382812 406.081054688 c 0
 232.756835938 428.919921875 219.657226562 435.22265625 198.97265625 437.162109375 c 0
 175.729492188 439.340820312 171.694335938 438.07421875 160.234375 425 c 0
 138.028320312 399.666015625 132.783203125 373.108398438 120.525390625 223.918945312 c 0
 116.083984375 169.865234375 110.067382812 119.791992188 107.081054688 112.02734375 c 0
 104.078125 104.21875 100.426757812 80.67578125 98.865234375 59.0537109375 c 0
 95.3125 9.865234375 92.3515625 0.67578125 80.0537109375 0.67578125 c 0
 67.8916015625 0.67578125 55.4716796875 19.5947265625 51.6640625 43.9189453125 c 0
 50.03125 54.349609375 54.4013671875 107.703125 61.4052734375 162.837890625 c 0
 68.4091796875 217.97265625 75.8056640625 287.088867188 77.8916015625 316.891601562 c 0
 79.97265625 346.622070312 83.3779296875 374.229492188 85.458984375 378.243164062 c 0
 87.515625 382.208984375 87.1455078125 396.891601562 84.6484375 410.405273438 c 0
 81.2529296875 428.784179688 81.74609375 436.346679688 86.541015625 439.3984375 c 0
 96.2705078125 445.58984375 99.513671875 445 109.243164062 435.270507812 c 0
 116.377929688 428.134765625 118.421875 428.784179688 126.270507812 440.67578125 c 0
 131.287109375 448.27734375 142.756835938 459.201171875 152.486328125 465.64453125 c 0
EndSplineSet
EndChar

StartChar: percent
Encoding: 37 37 18
Width: 527
VWidth: 10
Flags: W
VStem: 87.4609 24.1533<369.655 452.737>
LayerCount: 2
Back
Fore
SplineSet
398.442382812 175.107421875 m 0
 419.41015625 179.493164062 444.140625 160.80859375 444.140625 140.581054688 c 0
 444.140625 133.591796875 447.09765625 124.720703125 450.592773438 121.225585938 c 0
 461.038085938 110.780273438 457.247070312 68.5380859375 444.223632812 50.2578125 c 0
 418.177734375 13.69921875 359.385742188 -4.9560546875 336.076171875 15.9423828125 c 0
 326.5234375 24.5068359375 325.2265625 30.365234375 327.647460938 54.021484375 c 0
 332.821289062 104.559570312 370.671875 169.297851562 398.442382812 175.107421875 c 0
424.088867188 118 m 0
 408.874023438 136.817382812 389.749023438 138.129882812 377.071289062 121.225585938 c 0
 371.064453125 113.216796875 365.581054688 99.720703125 364.83984375 91.1181640625 c 0
 364.098632812 82.5166015625 360.328125 71.6708984375 356.4296875 66.9248046875 c 0
 347.155273438 55.634765625 347.958007812 39.5771484375 358.119140625 33.119140625 c 0
 372.34765625 24.0771484375 413.95703125 45.95703125 424.453125 68 c 0
 435.717773438 91.65625 435.629882812 103.724609375 424.088867188 118 c 0
461.319335938 481.440429688 m 0
 466.227539062 493.268554688 486.283203125 494.375 490.56640625 483.053710938 c 0
 495.196289062 470.818359375 442.9765625 391.65625 382.397460938 319.075195312 c 0
 352.78125 283.591796875 320.100585938 242.220703125 309.774414062 227.139648438 c 0
 274.43359375 175.52734375 228.861328125 126.299804688 186.076171875 93.5234375 c 0
 172.635742188 83.2265625 158.059570312 67.701171875 153.28125 58.591796875 c 0
 147.639648438 47.8388671875 139.866210938 41.638671875 130.700195312 40.5810546875 c 0
 120.305664062 39.3818359375 114.228515625 33.591796875 107 18 c 0
 97.5283203125 -2.4296875 83.048828125 -9.9267578125 75.84765625 1.87109375 c 0
 68.611328125 13.7255859375 112.743164062 71.2255859375 189.736328125 150.2578125 c 0
 210.162109375 171.225585938 234.732421875 199.559570312 245.215820312 214.236328125 c 0
 255.615234375 228.794921875 282.313476562 258.740234375 304.893554688 281.171875 c 0
 327.474609375 303.604492188 357.7578125 336.194335938 372.586914062 354.021484375 c 0
 400.76171875 387.892578125 454.555664062 465.140625 461.319335938 481.440429688 c 0
112.03125 489.505859375 m 0
 125.834960938 504.418945312 143.065429688 504.693359375 158.657226562 490.249023438 c 0
 165.108398438 484.271484375 171.951171875 480.756835938 173.7109375 482.516601562 c 0
 180.782226562 489.587890625 195.987304688 473.9140625 195.616210938 459.935546875 c 0
 195.401367188 451.87109375 198.049804688 439.639648438 201.319335938 433.591796875 c 0
 211.9609375 413.904296875 208.715820312 395.95703125 190.821289062 375.52734375 c 0
 171.041992188 352.946289062 136.732421875 333.76171875 120.485351562 336.19921875 c 0
 102.037109375 338.965820312 87.58984375 363.69921875 87.4609375 392.731445312 c 0
 87.2587890625 438.4296875 95.763671875 471.928710938 112.03125 489.505859375 c 0
140.915039062 451.174804688 m 0
 131.775390625 452.788085938 122.573242188 455.418945312 119.678710938 457.247070312 c 0
 116.892578125 459.006835938 116.159179688 457.78515625 118.065429688 454.559570312 c 0
 119.971679688 451.333007812 119.60546875 447.422851562 117.259765625 445.95703125 c 0
 114.895507812 444.479492188 112.352539062 427.408203125 111.614257812 408.053710938 c 0
 110.567382812 380.634765625 112.174804688 372.106445312 118.872070312 369.530273438 c 0
 130.922851562 364.895507812 148.979492188 370.872070312 166.721679688 385.368164062 c 0
 179.086914062 395.471679688 181.625976562 400.888671875 178.990234375 411.548828125 c 0
 173.940429688 431.978515625 158.47265625 448.077148438 140.915039062 451.174804688 c 0
EndSplineSet
EndChar

StartChar: Y
Encoding: 89 89 19
Width: 440
VWidth: -95
Flags: W
HStem: 527.302 20G<91.5908 98.4707>
VStem: 199.655 31.7207<5.20044 267.684>
LayerCount: 2
Back
Fore
SplineSet
356.107421875 555.634765625 m 0
 361.592773438 567.462890625 368.41015625 574.182617188 374.924804688 574.182617188 c 0
 394.73828125 574.182617188 392.005859375 558.053710938 365.541992188 518.806640625 c 0
 351.041015625 497.301757812 334.854492188 470.5390625 329.123046875 458.591796875 c 0
 302.5546875 403.21484375 291.077148438 382.235351562 278.236328125 365.581054688 c 0
 245.075195312 322.5703125 241.264648438 314.446289062 246.70703125 298.376953125 c 0
 250.436523438 287.3671875 249.350585938 273.645507812 242.666015625 247.301757812 c 0
 237.659179688 227.567382812 232.553710938 183.323242188 231.375976562 149.452148438 c 0
 230.198242188 115.581054688 227.766601562 67.4462890625 226 43 c 0
 222.967773438 1.064453125 222.077148438 -1.5263671875 211.21484375 -0.0107421875 c 0
 199.833007812 1.5771484375 199.655273438 3.21484375 199.655273438 106.44140625 c 0
 199.655273438 163.967773438 201.353515625 228.263671875 203.418945312 248.9140625 c 0
 206.4296875 279.021484375 205.623046875 287.409179688 199.38671875 290.849609375 c 0
 195.134765625 293.1953125 191.590820312 301.87109375 191.590820312 309.935546875 c 0
 191.590820312 318.030273438 179.791992188 346.495117188 165.515625 372.838867188 c 0
 151.240234375 399.182617188 134.192382812 430.688476562 127.84375 442.462890625 c 0
 110.158203125 475.258789062 84.064453125 533.899414062 84.064453125 540.849609375 c 0
 84.064453125 544.489257812 88.6337890625 547.301757812 94.5478515625 547.301757812 c 0
 102.393554688 547.301757812 109.969726562 536.817382812 124.655273438 505.634765625 c 0
 135.543945312 482.516601562 147.3671875 460.377929688 151.216796875 455.903320312 c 0
 158.430664062 447.516601562 204.293945312 362.35546875 208.544921875 349.452148438 c 0
 215.862304688 327.2421875 272.234375 389.774414062 289.001953125 438.69921875 c 0
 298.767578125 467.193359375 316.7890625 499.760742188 335.1171875 522.032226562 c 0
 341.939453125 530.323242188 351.370117188 545.419921875 356.107421875 555.634765625 c 0
EndSplineSet
EndChar

StartChar: Z
Encoding: 90 90 20
Width: 628
VWidth: 0
Flags: W
LayerCount: 2
Back
Fore
SplineSet
435.58203125 522.905273438 m 0
 472.229492188 536.287109375 528.629882812 540.95703125 556.84375 532.9453125 c 0
 578.823242188 526.703125 592.299804688 507.524414062 589.577148438 486.366210938 c 0
 587.368164062 469.213867188 542.89453125 387.03125 522.349609375 362.137695312 c 0
 488.262695312 320.837890625 478.25390625 309.841796875 463.626953125 297.625 c 0
 455.0703125 290.477539062 429.616210938 264.908203125 407.064453125 240.803710938 c 0
 384.510742188 216.697265625 347.221679688 184.583007812 324.198242188 169.4375 c 0
 266.642578125 131.572265625 211.577148438 92.4580078125 213.565429688 90.8486328125 c 0
 214.499023438 90.0927734375 253.444335938 94.2109375 300.231445312 100.013671875 c 0
 430.9140625 116.21875 500.6953125 107.2890625 556.352539062 67.2392578125 c 0
 569.2890625 57.9296875 586.267578125 46.84375 595.0234375 41.9892578125 c 0
 606.731445312 35.498046875 610.415039062 29.6689453125 609.758789062 18.6748046875 c 0
 608.4453125 -3.3681640625 591.419921875 -2.8720703125 560.4453125 20.1083984375 c 0
 500.0625 64.91015625 449.918945312 73.765625 316.778320312 63.14453125 c 0
 243.188476562 57.2744140625 207.0625 49.6669921875 113.3359375 20.306640625 c 0
 58.484375 3.1240234375 47.12109375 3.3779296875 48.7705078125 21.751953125 c 0
 49.583984375 30.8193359375 61.9248046875 40.76953125 99.7392578125 62.853515625 c 0
 127.05078125 78.802734375 169.723632812 106.029296875 194.018554688 123.004882812 c 0
 218.559570312 140.154296875 250.622070312 160.950195312 265.735351562 169.525390625 c 0
 313.403320312 196.565429688 339.536132812 217.611328125 393.498046875 272.416015625 c 0
 422.278320312 301.645507812 451.696289062 332.3046875 458.728515625 340.399414062 c 0
 502.572265625 390.872070312 519.96484375 414.452148438 531.404296875 438.932617188 c 0
 538.404296875 453.9140625 546.908203125 470.643554688 550.346679688 476.192382812 c 0
 555.599609375 484.671875 554.90234375 487.37890625 545.9296875 493.333984375 c 0
 529.899414062 503.973632812 490.36328125 500.108398438 427.9921875 481.803710938 c 0
 398.140625 473.043945312 358.435546875 462.108398438 339.952148438 457.555664062 c 0
 300.408203125 447.81640625 202.37109375 446.212890625 180.952148438 454.954101562 c 0
 166.017578125 461.049804688 155.8984375 484.063476562 166.202148438 488.5 c 0
 169.423828125 489.88671875 200.547851562 488.995117188 235.862304688 486.50390625 c 0
 297.796875 482.134765625 301.248046875 482.436523438 351.706054688 496.634765625 c 0
 380.51171875 504.739257812 417.932617188 516.459960938 435.58203125 522.905273438 c 0
EndSplineSet
EndChar

StartChar: comma
Encoding: 44 44 21
Width: 248
VWidth: 15
Flags: W
HStem: -178.599 236.842
LayerCount: 2
Back
Fore
SplineSet
151.703125 45.541015625 m 0
 158.729492188 52.5673828125 166.337890625 58.2431640625 168.729492188 58.2431640625 c 0
 176.798828125 58.2431640625 186.567382812 45.810546875 186.567382812 35.541015625 c 0
 186.567382812 20.650390625 145.418945312 -59.5947265625 126.97265625 -80.67578125 c 0
 117.986328125 -90.9462890625 110.891601562 -102.154296875 110.891601562 -106.081054688 c 0
 110.891601562 -109.8515625 105.756835938 -117.7421875 99.810546875 -123.108398438 c 0
 93.7666015625 -128.5625 83.9384765625 -143.918945312 78.189453125 -156.891601562 c 0
 70.5234375 -174.189453125 64.9951171875 -180.109375 57.9189453125 -178.598632812 c 0
 48.189453125 -176.521484375 47.3818359375 -153.272460938 56.837890625 -147.453125 c 0
 59.4619140625 -145.838867188 62.69921875 -133.377929688 63.865234375 -120.405273438 c 0
 65.03125 -107.432617188 68.7666015625 -95.4794921875 71.97265625 -94.458984375 c 0
 75.25390625 -93.416015625 91.609375 -64.458984375 108.458984375 -29.865234375 c 0
 125.309570312 4.7294921875 144.694335938 38.5322265625 151.703125 45.541015625 c 0
EndSplineSet
EndChar

StartChar: I
Encoding: 73 73 22
Width: 228
VWidth: -45
Flags: W
HStem: 524.189 20G<151.459 154.201> 524.189 20G<151.459 154.201>
VStem: 95.4551 35.9893<10.9354 259.244>
LayerCount: 2
Back
Fore
SplineSet
134.081054688 500.405273438 m 0xa0
 141.784179688 524.729492188 150.108398438 544.189453125 152.810546875 544.189453125 c 0
 155.590820312 544.189453125 160.33984375 539.32421875 163.891601562 532.837890625 c 0
 168.624023438 524.197265625 168.065429688 512.837890625 161.555664062 485.270507812 c 0
 127.475585938 340.946289062 116.505859375 186.37109375 131.444335938 60.9462890625 c 0
 135.435546875 27.4326171875 135.013671875 16.1220703125 129.567382812 10.67578125 c 0
 123.858398438 4.9658203125 120.918945312 4.9140625 113.891601562 10.3984375 c 0
 102.408203125 19.361328125 99.638671875 38.2431640625 95.455078125 136.081054688 c 0
 90.1611328125 259.865234375 106.39453125 412.973632812 134.081054688 500.405273438 c 0xa0
EndSplineSet
EndChar

StartChar: V
Encoding: 86 86 23
Width: 443
VWidth: 5
Flags: W
VStem: 83.0811 35.1074<81.2628 520.872>
LayerCount: 2
Back
Fore
SplineSet
390.053710938 608.784179688 m 0
 397.189453125 617.432617188 407.924804688 617.432617188 415.102539062 608.784179688 c 0
 422.583007812 599.770507812 412.967773438 530.405273438 402.58984375 518.513671875 c 0
 398.719726562 514.079101562 391.392578125 494.729492188 386.419921875 475.810546875 c 0
 374.873046875 431.881835938 359.169921875 399.594726562 327.793945312 355.270507812 c 0
 314.01953125 335.810546875 302.541015625 317.260742188 302.541015625 314.458984375 c 0
 302.541015625 311.614257812 290.946289062 291.486328125 276.541015625 269.32421875 c 0
 249.1640625 227.206054688 219.390625 173.6484375 164.157226562 67.162109375 c 0
 124.34375 -9.5947265625 116.478515625 -14.458984375 94.244140625 23.9189453125 c 2
 79.837890625 48.7841796875 l 1
 83.0810546875 187.703125 l 2
 84.8603515625 263.918945312 86.080078125 368.463867188 85.7841796875 419.32421875 c 0
 85.2705078125 507.432617188 85.7919921875 512.321289062 96.32421875 517.97265625 c 0
 102.810546875 521.453125 106.170898438 527.28125 104.426757812 532.02734375 c 0
 100.659179688 542.28515625 107.946289062 542.829101562 120.918945312 533.258789062 c 0
 130.020507812 526.543945312 130.090820312 525 122 509.32421875 c 0
 114.760742188 495.298828125 114.056640625 482.567382812 117.67578125 431.215820312 c 0
 120.060546875 397.379882812 120.291015625 329.865234375 118.188476562 280.67578125 c 0
 112.875976562 156.3515625 112.643554688 53.6484375 117.67578125 53.6484375 c 0
 120.056640625 53.6484375 145.803710938 100.405273438 174.97265625 157.703125 c 0
 204.142578125 215 234.747070312 270.2578125 243.081054688 280.67578125 c 0
 251.405273438 291.081054688 266 314.189453125 275.513671875 332.02734375 c 0
 285.02734375 349.865234375 302.500976562 379.053710938 314.34375 396.891601562 c 0
 333.481445312 425.716796875 341.193359375 445 369.469726562 534.729492188 c 0
 373.728515625 548.243164062 378.81640625 568.6640625 380.918945312 580.67578125 c 0
 383 592.567382812 387.110351562 605.215820312 390.053710938 608.784179688 c 0
EndSplineSet
EndChar

StartChar: question
Encoding: 63 63 24
Width: 371
VWidth: 195
Flags: W
VStem: 108.384 124.948<37.6173 123.731>
LayerCount: 2
Back
Fore
SplineSet
194 169.000976562 m 0
 203.189453125 172.96484375 220.98046875 169.57421875 228.594726562 162.408203125 c 0
 235.46875 155.938476562 238.661132812 92.296875 233.33203125 67.97265625 c 0
 230.252929688 53.9189453125 224.337890625 44.17578125 216.432617188 40.134765625 c 0
 209.830078125 36.7607421875 195.622070312 26.3310546875 185.3515625 17.3203125 c 0
 162.108398438 -3.072265625 133.1171875 -5.4970703125 111.837890625 11.1708984375 c 0
 89.0146484375 29.048828125 88.212890625 46.8916015625 108.383789062 87.97265625 c 0
 118.204101562 107.97265625 128.650390625 124.729492188 131.296875 124.729492188 c 0
 133.970703125 124.729492188 147.243164062 133.862304688 160.756835938 145 c 0
 174.270507812 156.137695312 189.248046875 166.951171875 194 169.000976562 c 0
192.377929688 85.810546875 m 0
 193.833984375 89.5947265625 193.583984375 94.3349609375 191.837890625 96.0810546875 c 0
 190.130859375 97.7880859375 188.850585938 94.458984375 189.134765625 89.0537109375 c 0
 189.4765625 82.5673828125 190.671875 81.373046875 192.377929688 85.810546875 c 0
196.703125 762.831054688 m 0
 258.32421875 771.013671875 294.680664062 765.14453125 319.405273438 743.022460938 c 0
 339.883789062 724.69921875 356.162109375 693.377929688 356.162109375 672.296875 c 0
 356.162109375 645.853515625 321.283203125 575.541015625 292.880859375 544.729492188 c 0
 260.991210938 510.134765625 227.68359375 464.337890625 218.580078125 442.567382812 c 0
 211.018554688 424.485351562 211.012695312 418.784179688 218.5234375 383.108398438 c 0
 228.08203125 337.703125 224.69921875 298.227539062 209.67578125 279.865234375 c 0
 201.71484375 270.134765625 198.176757812 269.059570312 190.215820312 273.947265625 c 0
 177.770507812 281.588867188 175.2109375 305.270507812 183.966796875 331.756835938 c 0
 189.6484375 348.943359375 189.360351562 356.622070312 182.202148438 378.784179688 c 0
 167.288085938 424.958984375 181.171875 462.02734375 240.711914062 535 c 0
 327.15625 640.946289062 336.00390625 661.77734375 309.357421875 696.622070312 c 0
 291.267578125 720.278320312 267.513671875 730.134765625 228.594726562 730.134765625 c 0
 189.87109375 730.134765625 164.270507812 722.7265625 112.918945312 696.66015625 c 0
 90.7568359375 685.41015625 69.6826171875 676.081054688 66.4326171875 676.081054688 c 0
 57.2431640625 676.081054688 48.0966796875 689.142578125 52.4267578125 696.081054688 c 0
 60.0927734375 708.364257812 170.215820312 759.314453125 196.703125 762.831054688 c 0
EndSplineSet
EndChar

StartChar: a
Encoding: 97 97 25
Width: 487
VWidth: 0
Flags: W
LayerCount: 2
Back
Fore
SplineSet
192.688476562 402.170898438 m 0
 238.026367188 423.516601562 282.787109375 425.721679688 315.331054688 408.209960938 c 0
 328.427734375 401.162109375 342.223632812 395.95703125 346.75390625 396.353515625 c 0
 357.991210938 397.336914062 365.430664062 383.336914062 375.958007812 341.392578125 c 0
 381.022460938 321.216796875 387.666015625 299.736328125 390.744140625 293.581054688 c 0
 394.327148438 286.416015625 394.321289062 274.630859375 390.728515625 260.750976562 c 0
 377.215820312 208.564453125 401.392578125 120.583984375 436.756835938 93.25 c 0
 472.838867188 65.361328125 492.104492188 6.6943359375 467.083007812 0.90234375 c 0
 453.887695312 -2.1513671875 446.118164062 7.3173828125 438.334960938 35.9375 c 0
 434.587890625 49.716796875 427.194335938 59.240234375 413.466796875 67.96875 c 0
 384.471679688 86.4052734375 376.497070312 102.693359375 363.287109375 170.44921875 c 0
 356.735351562 204.059570312 350.552734375 232.162109375 349.46875 233.267578125 c 0
 342.884765625 239.973632812 251.811523438 154.3203125 184.669921875 78.275390625 c 0
 130.365234375 16.76953125 107.799804688 -0.6103515625 89.1005859375 4.671875 c 0
 57.9091796875 13.482421875 53.6484375 46.775390625 69.8515625 155.0859375 c 0
 74.62109375 186.974609375 79.6240234375 221.658203125 81.02734375 232.571289062 c 0
 84.767578125 261.65625 116.069335938 330.5078125 139.087890625 360.279296875 c 0
 153.639648438 379.102539062 168.715820312 390.883789062 192.688476562 402.170898438 c 0
294.420898438 380.525390625 m 0
 268.872070312 393.456054688 222.266601562 387.794921875 210.364257812 370.313476562 c 0
 207.307617188 365.826171875 200.555664062 361.859375 195.170898438 361.388671875 c 0
 183.055664062 360.328125 155.671875 327.545898438 148.228515625 305.190429688 c 0
 145.064453125 295.690429688 138.956054688 284.49609375 134.701171875 280.404296875 c 0
 130.197265625 276.071289062 127.141601562 270.684570312 127.415039062 267.557617188 c 0
 127.673828125 264.604492188 125.099609375 254.333007812 121.715820312 244.8125 c 0
 107.251953125 204.1171875 98.54296875 157.053710938 95.5908203125 103.620117188 c 0
 93.8740234375 72.5419921875 92.62890625 44.9677734375 92.8359375 42.6064453125 c 0
 93.97265625 29.609375 112.234375 44.1494140625 151.678710938 89.4580078125 c 0
 202.95703125 148.359375 260.76953125 206.838867188 309.700195312 249.299804688 c 2
 344.498046875 279.497070312 l 1
 338.583007812 310.450195312 l 2
 331.239257812 348.875976562 319.196289062 367.986328125 294.420898438 380.525390625 c 0
EndSplineSet
EndChar

StartChar: f
Encoding: 102 102 26
Width: 400
VWidth: -150
Flags: W
HStem: 163.514 33.7334<43.6065 115.249> 360 39.7295<163.674 238.87>
VStem: 119.812 33.9941<8.69166 162.804>
LayerCount: 2
Back
Fore
SplineSet
142.739257812 387.296875 m 0
 150.415039062 402.25390625 152.134765625 402.82421875 180.243164062 399.729492188 c 0
 201.811523438 397.35546875 225.918945312 388.016601562 270.243164062 364.865234375 c 0
 303.756835938 347.360351562 342.24609375 328.899414062 356.458984375 323.513671875 c 0
 374.837890625 316.548828125 382.134765625 310.865234375 382.134765625 303.513671875 c 0
 382.134765625 279.096679688 356.189453125 284.8203125 264.837890625 329.388671875 c 0
 231.32421875 345.739257812 195.828125 359.5546875 186.189453125 360 c 0
 169.79296875 360.756835938 168.225585938 359.189453125 162.67578125 336.486328125 c 0
 159.387695312 323.03515625 155.159179688 285.946289062 153.215820312 253.513671875 c 2
 149.703125 194.865234375 l 1
 188.622070312 199.013671875 l 2
 232.405273438 203.680664062 261.516601562 203.072265625 271.32421875 197.284179688 c 0
 291.32421875 185.48046875 317.874023438 156.48046875 315.108398438 149.458984375 c 0
 310.423828125 137.567382812 295.108398438 140.45703125 269.162109375 158.126953125 c 0
 256.189453125 166.961914062 241.447265625 173.21875 236.729492188 171.891601562 c 0
 232.012695312 170.565429688 214.567382812 168.021484375 198.3515625 166.296875 c 0
 148.875976562 161.033203125 151.740234375 166.215820312 153.805664062 85.67578125 c 0
 155.357421875 25.134765625 154.283203125 12.673828125 147 6.7568359375 c 0
 139.662109375 0.7939453125 137 1.0400390625 129.432617188 8.3779296875 c 0
 122.641601562 14.962890625 120.345703125 28.3779296875 119.811523438 64.5947265625 c 0
 118.263671875 169.458984375 119.390625 163.513671875 101.053710938 163.513671875 c 0
 77.810546875 163.513671875 41.5947265625 175.6953125 41.5947265625 183.513671875 c 0
 41.5947265625 189.291992188 55.6484375 192.538085938 101.053710938 197.247070312 c 0
 113.891601562 198.578125 114.767578125 200.810546875 118.577148438 241.891601562 c 0
 125.693359375 318.6484375 134.400390625 371.046875 142.739257812 387.296875 c 0
EndSplineSet
EndChar

StartChar: five
Encoding: 53 53 27
Width: 508
VWidth: -55
Flags: W
HStem: 297.973 9.18945<117 124.635> 377.433 36.46<260.169 326.999> 517.472 39.9609<184.136 368.244>
VStem: 125.646 47.9209<318.278 339.361 436.063 519.566>
LayerCount: 2
Back
Fore
SplineSet
117.891601562 566.888671875 m 0
 139.243164062 572.16015625 204.377929688 568.875 248.162109375 560.317382812 c 0
 266.235351562 556.784179688 298.97265625 555.5625 325.458984375 557.432617188 c 0
 354.108398438 559.455078125 370.184570312 558.7421875 368.162109375 555.541015625 c 0
 366.326171875 552.633789062 371.134765625 550.405273438 379.243164062 550.405273438 c 0
 387.037109375 550.405273438 410.32421875 540.596679688 430.32421875 528.889648438 c 0
 465.458984375 508.322265625 478.517578125 492.579101562 470.762695312 480.134765625 c 0
 465.586914062 471.829101562 448.67578125 473.6484375 440.616210938 483.377929688 c 0
 424.38671875 502.97265625 374.108398438 515.7578125 306.541015625 517.471679688 c 0
 283.837890625 518.047851562 254.577148438 520.955078125 241.134765625 523.970703125 c 0
 192.713867188 534.834960938 180.588867188 519.594726562 178.301757812 445 c 0
 177.473632812 417.97265625 175.369140625 378.93359375 173.567382812 357.162109375 c 0
 171.778320312 335.541015625 172.504882812 317.97265625 175.189453125 317.97265625 c 0
 181.134765625 317.97265625 203.25 342.296875 219.41796875 366.622070312 c 0
 239.1796875 396.3515625 261.168945312 411.124023438 289.784179688 413.892578125 c 0
 313.02734375 416.142578125 317.12109375 414.618164062 337.891601562 395.983398438 c 0
 394.420898438 345.26953125 405.478515625 289.32421875 389.635742188 134.189453125 c 0
 385.330078125 92.02734375 360.861328125 32.7119140625 340.053710938 13.9990234375 c 0
 324.918945312 0.38671875 295.189453125 -4.8603515625 295.189453125 6.0810546875 c 0
 295.189453125 13.0556640625 291.946289062 13.7880859375 278.432617188 9.865234375 c 0
 264.536132812 5.8310546875 256 7.861328125 228.432617188 21.7568359375 c 0
 210.053710938 31.0205078125 184.3125 49.02734375 170.865234375 62.02734375 c 0
 157.428710938 75.015625 133.837890625 93.404296875 118.162109375 103.108398438 c 0
 102.486328125 112.8125 89.7841796875 123.579101562 89.7841796875 127.162109375 c 0
 89.7841796875 130.700195312 83.02734375 137.333984375 74.9189453125 141.756835938 c 2
 60.0537109375 149.865234375 l 1
 77.3515625 150.134765625 l 2
 87.0810546875 150.287109375 96.185546875 147.921875 98.162109375 144.729492188 c 0
 100.109375 141.583984375 111.67578125 134.35546875 124.108398438 128.513671875 c 0
 136.446289062 122.715820312 161.134765625 106.172851562 178.97265625 91.7509765625 c 0
 213.02734375 64.2177734375 231.645507812 53.2314453125 262.756835938 42.3115234375 c 0
 298.97265625 29.599609375 306.34375 29.5625 319.513671875 42.0224609375 c 0
 331.946289062 53.7861328125 353.296875 115.541015625 347.081054688 121.756835938 c 0
 345.3125 123.525390625 346.096679688 127.703125 348.807617188 130.946289062 c 0
 358.903320312 143.024414062 365.700195312 227.162109375 360.1171875 270.946289062 c 0
 351.916015625 335.270507812 325.138671875 377.432617188 292.486328125 377.432617188 c 0
 274.862304688 377.432617188 254.409179688 359.053710938 201.051757812 295.270507812 c 0
 176.181640625 265.541015625 175.430664062 265.111328125 158.97265625 271.215820312 c 0
 149.784179688 274.625 139.897460938 282.680664062 137.081054688 289.053710938 c 0
 134.21484375 295.541015625 128.602539062 299.481445312 124.377929688 297.97265625 c 0
 120.053710938 296.428710938 116.810546875 297.818359375 116.810546875 301.215820312 c 0
 116.810546875 304.458984375 119.513671875 307.162109375 122.756835938 307.162109375 c 0
 126.280273438 307.162109375 127.45703125 313.108398438 125.646484375 321.756835938 c 0
 119.678710938 350.250976562 122.983398438 482.296875 130.516601562 516.3515625 c 0
 131.951171875 522.837890625 129.551757812 530.482421875 124.918945312 534.189453125 c 0
 120.594726562 537.6484375 116.810546875 544.20703125 116.810546875 548.243164062 c 0
 116.810546875 552.37109375 111.405273438 555.810546875 104.918945312 555.810546875 c 0
 89.1650390625 555.810546875 95.7294921875 561.416015625 117.891601562 566.888671875 c 0
EndSplineSet
EndChar

StartChar: O
Encoding: 79 79 28
Width: 492
VWidth: -25
Flags: W
HStem: 507.814 22.1973<302.569 320.406>
LayerCount: 2
Back
Fore
SplineSet
283.784179688 530.01171875 m 0
 310.810546875 544.655273438 366.694335938 547.13671875 371.784179688 533.918945312 c 0
 375.323242188 524.729492188 358.584960938 503.345703125 351.3515625 507.814453125 c 0
 345.405273438 511.486328125 299.458984375 497.984375 275.67578125 485.576171875 c 0
 246.416992188 470.310546875 196.546875 418.784179688 159.759765625 365.810546875 c 0
 119.844726562 308.333007812 114.4453125 296.622070312 94.96484375 225.270507812 c 0
 78.1396484375 163.6484375 78.6650390625 122.310546875 96.791015625 81.486328125 c 0
 118.206054688 33.255859375 164.865234375 21.609375 219.458984375 50.8681640625 c 0
 283.784179688 85.341796875 329.661132812 127.198242188 370.32421875 188.513671875 c 0
 412.836914062 252.616210938 415.778320312 260.405273438 427.67578125 340.405273438 c 0
 442.38671875 439.32421875 437.533203125 466.891601562 405.405273438 466.891601562 c 0
 383.4296875 466.891601562 367.567382812 459.782226562 320.541015625 428.857421875 c 0
 295.67578125 412.505859375 278.07421875 404.09765625 276.8203125 407.97265625 c 0
 274.33984375 415.641601562 327.567382812 470.39453125 348.108398438 481.303710938 c 0
 356.215820312 485.609375 362.703125 492.176757812 362.703125 496.081054688 c 0
 362.703125 504.916015625 420.541015625 503.360351562 437.837890625 494.060546875 c 0
 454.053710938 485.340820312 470.903320312 446.3515625 471.536132812 416.081054688 c 0
 472.270507812 380.946289062 455.087890625 273.579101562 444.19921875 245.270507812 c 0
 430.092773438 208.592773438 361.081054688 114.404296875 323.243164062 80.1865234375 c 0
 278.377929688 39.6142578125 201.125 0.9296875 163.784179688 0.3369140625 c 0
 120.541015625 -0.349609375 89.9755859375 18.47265625 68.87109375 58.7841796875 c 0
 53.0234375 89.0537109375 51.8916015625 95 51.8916015625 147.97265625 c 0
 51.8916015625 195.541015625 54.41796875 212.606445312 67.49609375 253.377929688 c 0
 85.52734375 309.594726562 94.1142578125 327.618164062 125.69140625 375.541015625 c 0
 170.926757812 444.189453125 227.6171875 499.580078125 283.784179688 530.01171875 c 0
EndSplineSet
EndChar

StartChar: less
Encoding: 60 60 29
Width: 465
VWidth: 0
Flags: W
LayerCount: 2
Back
Fore
SplineSet
356.081054688 535.94921875 m 0
 375 550.537109375 387.97265625 549.106445312 387.97265625 532.432617188 c 0
 387.97265625 524.865234375 385.119140625 518.918945312 381.486328125 518.918945312 c 0
 377.948242188 518.918945312 369.918945312 513.513671875 363.821289062 507.02734375 c 0
 351.56640625 493.990234375 334.458984375 481.90234375 240.405273438 419.827148438 c 0
 152.837890625 362.032226562 131.774414062 347.223632812 124.55859375 338.377929688 c 0
 118.013671875 330.35546875 127.432617188 319.724609375 178.243164062 277.780273438 c 0
 188.513671875 269.301757812 198.397460938 260.926757812 199.865234375 259.458984375 c 0
 201.3515625 257.97265625 212.296875 249.703125 224.189453125 241.081054688 c 0
 236.081054688 232.458984375 248.157226562 222.729492188 251.025390625 219.458984375 c 0
 266.5234375 201.78515625 299.865234375 182.051757812 335.541015625 169.438476562 c 0
 420.405273438 139.432617188 428.362304688 136.13671875 432.724609375 129.189453125 c 0
 439.512695312 118.377929688 438.708984375 109.655273438 430.134765625 101.081054688 c 0
 423.055664062 94.001953125 412.837890625 96.630859375 349.594726562 121.802734375 c 0
 282.567382812 148.481445312 250.389648438 165.37109375 230.67578125 184.220703125 c 0
 184.729492188 228.153320312 99.8779296875 296.64453125 83.6484375 302.899414062 c 0
 73.2880859375 306.892578125 70.134765625 311.891601562 70.134765625 324.32421875 c 0
 70.134765625 342.139648438 98.2431640625 369.40625 149.594726562 401.404296875 c 0
 164.982421875 410.9921875 211.215820312 441.791015625 251.756835938 469.458984375 c 0
 292.296875 497.127929688 329.724609375 521.345703125 334.458984375 522.97265625 c 0
 339.14453125 524.583007812 349.053710938 530.53125 356.081054688 535.94921875 c 0
409.053710938 556.215820312 m 0
 420.946289062 563.153320312 430.841796875 563.784179688 434.500976562 557.837890625 c 0
 435.969726562 555.452148438 430.134765625 550.858398438 421.486328125 547.58984375 c 0
 403.6484375 540.848632812 394.084960938 547.484375 409.053710938 556.215820312 c 0
EndSplineSet
EndChar

StartChar: one
Encoding: 49 49 30
Width: 263
VWidth: -70
Flags: W
VStem: 96.543 32.0303<444.431 460.464> 150.429 25.2871<16.1246 249.938> 153.757 34.8652<111.591 512.548>
LayerCount: 2
Back
Fore
SplineSet
112.536132812 472.162109375 m 0x80
 128.91015625 505.560546875 139.412109375 499.189453125 128.573242188 462.432617188 c 0
 119.806640625 432.703125 103.095703125 411.833007812 96.54296875 422.432617188 c 0
 92.1650390625 429.514648438 93.189453125 432.703125 112.536132812 472.162109375 c 0x80
167.87109375 544.594726562 m 0
 181.435546875 559.189453125 189.868164062 560.50390625 199.072265625 549.458984375 c 0
 203.821289062 543.760742188 203.309570312 525.405273438 197 475.134765625 c 0
 192.115234375 436.215820312 189.973632812 393.7265625 191.865234375 373.243164062 c 0
 193.643554688 353.975585938 192.178710938 300.270507812 188.622070312 254.32421875 c 0xa0
 185.064453125 208.377929688 181.524414062 134.899414062 180.784179688 91.6220703125 c 0
 180.04296875 48.3779296875 177.752929688 10.0146484375 175.715820312 6.7568359375 c 0
 169.380859375 -3.3798828125 156.91015625 6.2158203125 150.428710938 26.2158203125 c 0xc0
 146.022460938 39.8115234375 145.286132812 80.2705078125 147.810546875 170 c 0
 149.7421875 238.6484375 152.419921875 302.166015625 153.756835938 311.081054688 c 0xa0
 155.102539062 320.053710938 157.155273438 363.513671875 158.3515625 408.377929688 c 0
 159.547851562 453.243164062 162.4453125 494.16796875 164.837890625 500 c 0
 167.499023438 506.486328125 166.666992188 511.336914062 162.67578125 512.610351562 c 0
 152.427734375 515.880859375 154.809570312 530.541015625 167.87109375 544.594726562 c 0
EndSplineSet
EndChar

StartChar: U
Encoding: 85 85 31
Width: 435
VWidth: -50
Flags: W
LayerCount: 2
Back
Fore
SplineSet
144.3515625 583.243164062 m 0
 149.509765625 591.891601562 155.911132812 597.87109375 158.946289062 596.875 c 0
 168.208007812 593.8359375 169.232421875 548.918945312 160.446289062 531.081054688 c 0
 156.02734375 522.108398438 143.884765625 478.6484375 133.262695312 433.784179688 c 0
 89.87890625 250.541015625 79.833984375 162.774414062 93.607421875 87.296875 c 0
 98.341796875 61.3515625 104.612304688 37.8466796875 107.594726562 34.865234375 c 0
 112.879882812 29.5791015625 121.6484375 33.376953125 186.513671875 69.0380859375 c 0
 229.32421875 92.5751953125 247.778320312 108.918945312 291.965820312 162.432617188 c 0
 339.791015625 220.3515625 348.229492188 238.108398438 365.690429688 317.567382812 c 0
 381.122070312 387.790039062 380.729492188 409.458984375 362.48046875 494.865234375 c 0
 359.015625 511.081054688 357.504882812 527.416992188 359.081054688 531.622070312 c 0
 363.12890625 542.415039062 382.342773438 541.3515625 388.3828125 530 c 0
 396.272460938 515.173828125 405.534179688 465.134765625 409.993164062 413.243164062 c 0
 413.76953125 369.303710938 412.755859375 360.810546875 396.705078125 301.891601562 c 0
 374.912109375 221.891601562 364.794921875 200.697265625 324.198242188 150 c 0
 267.495117188 79.189453125 248.099609375 62.5517578125 183.810546875 29.578125 c 0
 103.270507812 -11.7314453125 88.51171875 -10.9521484375 73.44140625 35.4052734375 c 0
 49.3251953125 109.58984375 49.1875 176.486328125 72.9013671875 298.6484375 c 0
 93.15234375 402.97265625 95.544921875 413.940429688 108.279296875 460.810546875 c 0
 114.740234375 484.594726562 123.432617188 518.405273438 127.594726562 535.946289062 c 0
 131.69921875 553.243164062 139.3671875 574.887695312 144.3515625 583.243164062 c 0
EndSplineSet
EndChar

StartChar: exclam
Encoding: 33 33 32
Width: 270
VWidth: 90
Flags: W
VStem: 92.1348 51.7783<22.9655 104.485> 107.271 46.4688<276.927 548.201> 116.562 41.0215<282.173 584.357>
LayerCount: 2
Back
Fore
SplineSet
131.44140625 150.541015625 m 0x80
 145.478515625 182.778320312 150.797851562 158.108398438 143.913085938 92.703125 c 0
 142.491210938 79.189453125 120.626953125 13.9755859375 114.010742188 3.513671875 c 0
 106.18359375 -8.8642578125 92.134765625 6.7568359375 92.134765625 27.837890625 c 0
 92.134765625 43.568359375 112.376953125 106.756835938 131.44140625 150.541015625 c 0x80
157 734.284179688 m 0
 170.513671875 745.294921875 177.490234375 746.353515625 188.891601562 739.123046875 c 0
 195.330078125 735.041015625 195.112304688 723.513671875 187.430664062 661.891601562 c 0
 173.482421875 550 171.981445312 537.236328125 170.385742188 517.02734375 c 0
 169.57421875 506.756835938 168.397460938 498.108398438 167.810546875 498.108398438 c 0
 163.290039062 498.108398438 154.188476562 397.567382812 157.583984375 385.134765625 c 0x20
 159.9453125 376.486328125 160.168945312 366.793945312 158.081054688 363.513671875 c 0
 156 360.243164062 154.045898438 347.837890625 153.739257812 335.946289062 c 0
 152.958007812 305.67578125 137.9921875 273.784179688 124.567382812 273.784179688 c 0
 104.606445312 273.784179688 100.083984375 295.405273438 107.270507812 356.486328125 c 0x40
 110.850585938 386.920898438 115.013671875 441.891601562 116.5625 479.189453125 c 0x20
 119.008789062 538.108398438 124.629882812 590.678710938 133.323242188 635.946289062 c 0
 134.7421875 643.334960938 138.000976562 666.486328125 140.513671875 687.02734375 c 0
 144.017578125 715.67578125 147.931640625 726.895507812 157 734.284179688 c 0
EndSplineSet
EndChar

StartChar: seven
Encoding: 55 55 33
Width: 488
VWidth: 0
Flags: W
HStem: 552.973 28.1084<74.4524 115.896>
LayerCount: 2
Back
Fore
SplineSet
305.162109375 645.888671875 m 0
 383 660.227539062 441.83203125 652.764648438 458.124023438 626.486328125 c 0
 462.145507812 620 464.475585938 614.440429688 463.561523438 613.513671875 c 0
 432.84375 582.40234375 407.047851562 541.081054688 357.267578125 443.243164062 c 0
 324.813476562 379.458984375 289.431640625 309.956054688 278.842773438 289.189453125 c 0
 244.1171875 221.081054688 195.4296875 111.009765625 191.573242188 91.8916015625 c 0
 189.53515625 81.791015625 181.047851562 57.5673828125 172.729492188 38.1083984375 c 0
 160.251953125 8.9189453125 155.221679688 2.4130859375 144.081054688 1.05078125 c 0
 121.807617188 -1.6708984375 119.961914062 18.9189453125 139.0390625 57.296875 c 0
 147.637695312 74.5947265625 156.749023438 95.373046875 158.94921875 102.703125 c 0
 180.775390625 175.400390625 343.083984375 500 404.09765625 592.97265625 c 0
 410.837890625 603.243164062 415.03125 613.375 413.270507812 615.134765625 c 0
 407.96875 620.436523438 343 617.64453125 308.946289062 610.651367188 c 0
 291.860351562 607.142578125 251.6484375 596.137695312 218.67578125 585.946289062 c 0
 185.703125 575.75390625 140.67578125 564.317382812 117.594726562 560.270507812 c 2
 75.97265625 552.97265625 l 1
 72.7294921875 566.215820312 l 2
 71.0087890625 573.243164062 70.248046875 580.220703125 71.1083984375 581.081054688 c 0
 72 581.97265625 97.0537109375 588.17578125 126.784179688 594.865234375 c 0
 156.513671875 601.553710938 200.296875 614.203125 224.081054688 622.97265625 c 0
 247.865234375 631.743164062 284.3515625 642.055664062 305.162109375 645.888671875 c 0
EndSplineSet
EndChar

StartChar: v
Encoding: 118 118 34
Width: 384
VWidth: -155
Flags: W
HStem: 397.973 20G<343.108 355.751>
VStem: 65.5811 33.7803<86.207 417.778> 328.972 32.7217<350.229 417.785>
LayerCount: 2
Back
Fore
SplineSet
78.4052734375 418.505859375 m 0
 102.450195312 433.936523438 105.817382812 412.567382812 99.361328125 285.541015625 c 0
 86.5595703125 33.6484375 86.771484375 43.2802734375 94.0810546875 45.810546875 c 0
 97.9140625 47.1376953125 109.90234375 64.458984375 120.456054688 83.9189453125 c 0
 150.064453125 138.513671875 245.549804688 278.086914062 261.6484375 290.301757812 c 0
 282.729492188 306.298828125 325.514648438 363.388671875 328.971679688 380.134765625 c 0
 335.890625 413.6484375 338.081054688 417.97265625 348.134765625 417.97265625 c 0
 363.368164062 417.97265625 366.009765625 409.865234375 361.693359375 376.3515625 c 0
 358.0546875 348.09375 355.408203125 343.918945312 308.233398438 292.02734375 c 0
 266.040039062 245.614257812 243.743164062 215.810546875 199.450195312 146.622070312 c 0
 103.251953125 -3.6484375 87.009765625 -19.1435546875 67.42578125 20.67578125 c 0
 58.2119140625 39.4111328125 58.0498046875 61.2158203125 65.5810546875 268.784179688 c 0
 69.7197265625 382.837890625 72.447265625 414.681640625 78.4052734375 418.505859375 c 0
EndSplineSet
EndChar

StartChar: c
Encoding: 99 99 35
Width: 324
VWidth: -125
Flags: W
HStem: 350.676 16.6211<253.752 278.263>
LayerCount: 2
Back
Fore
SplineSet
252.02734375 367.296875 m 0
 265.541015625 370.337890625 279.053710938 364.458984375 279.053710938 355.541015625 c 0
 279.053710938 352.9296875 273.918945312 350.67578125 267.97265625 350.67578125 c 0
 262.02734375 350.67578125 255.514648438 347.043945312 253.918945312 342.837890625 c 0
 252.284179688 338.52734375 246.081054688 333.440429688 240.134765625 331.53515625 c 0
 222.518554688 325.888671875 192.875976562 296.622070312 172.473632812 264.729492188 c 0
 161.6796875 247.857421875 141.747070312 219.865234375 127.44140625 201.486328125 c 0
 96.7255859375 162.02734375 79.0537109375 129.05859375 79.0537109375 111.215820312 c 0
 79.0537109375 93.4208984375 99.5947265625 64.154296875 120.67578125 51.9140625 c 0
 147.142578125 36.5458984375 190.405273438 34.126953125 236.891601562 45.4169921875 c 0
 258.513671875 50.66796875 278.794921875 57.2216796875 281.756835938 59.9140625 c 0
 290.818359375 68.15234375 306.081054688 64.7294921875 306.081054688 54.458984375 c 0
 306.081054688 38.9365234375 290.405273438 28.572265625 246.622070312 15.146484375 c 0
 195.270507812 -0.5986328125 132.916015625 -1.126953125 112.02734375 14.0068359375 c 0
 104.458984375 19.490234375 93.7314453125 25.810546875 88.7841796875 27.703125 c 0
 83.806640625 29.60546875 72.115234375 43.1083984375 63.2763671875 57.162109375 c 0
 36.68359375 99.4443359375 42.3193359375 140.946289062 82.3603515625 197.703125 c 0
 168.924804688 320.405273438 205.323242188 356.7890625 252.02734375 367.296875 c 0
EndSplineSet
EndChar

StartChar: e
Encoding: 101 101 36
Width: 352
VWidth: -130
Flags: W
HStem: 10.1201 36.6943<112.364 319.089> 187.027 31.9619<83.7288 202.9>
VStem: 33.7363 296.831
LayerCount: 2
Back
Fore
SplineSet
198.134765625 437.733398438 m 0
 235.97265625 457.545898438 277.479492188 446.424804688 305.67578125 408.918945312 c 0
 315.075195312 396.416015625 317.1484375 385.134765625 317.594726562 344.053710938 c 0
 318.087890625 298.6484375 316.936523438 292.7265625 304.3515625 275.946289062 c 0
 277.350585938 239.9453125 246.784179688 215.961914062 208.946289062 201.088867188 c 0
 176.455078125 188.317382812 164.081054688 186.331054688 121.377929688 187.02734375 c 2
 71.6484375 187.837890625 l 1
 68.353515625 170.541015625 l 2
 60.251953125 128.0078125 86.2431640625 77.1328125 130.02734375 49.8193359375 c 0
 154.366210938 34.63671875 203.541015625 33.564453125 267.865234375 46.814453125 c 0
 313.810546875 56.2783203125 330.567382812 54.529296875 330.567382812 40.2705078125 c 0
 330.567382812 29.6591796875 313.270507812 23.18359375 250.02734375 10.1201171875 c 0
 179.756835938 -4.39453125 158.225585938 -3.5126953125 120.837890625 15.4072265625 c 0
 58.9111328125 46.7470703125 32.6552734375 94.32421875 33.736328125 173.243164062 c 0
 34.306640625 214.861328125 37.26171875 224.053710938 74.5693359375 300.270507812 c 0
 96.265625 344.594726562 163.8515625 419.78125 198.134765625 437.733398438 c 0
273.338867188 395.946289062 m 0
 262.326171875 412.162109375 256.484375 415.946289062 242.458984375 415.946289062 c 0
 219.573242188 415.946289062 196.73046875 401.3515625 157.857421875 361.891601562 c 0
 123.77734375 327.296875 77.439453125 245.688476562 83.2744140625 230.541015625 c 0
 87.07421875 220.676757812 133.810546875 213.516601562 158.67578125 218.989257812 c 0
 204.622070312 229.100585938 249.400390625 258.44921875 275.270507812 295.405273438 c 0
 292.975585938 320.69921875 292.060546875 368.377929688 273.338867188 395.946289062 c 0
EndSplineSet
EndChar

StartChar: parenleft
Encoding: 40 40 37
Width: 376
VWidth: 70
Flags: W
LayerCount: 2
Back
Fore
SplineSet
284.088867188 660.270507812 m 0
 288.038085938 666.491210938 303.352539062 663.513671875 303.55078125 656.486328125 c 0
 303.635742188 653.452148438 296.946289062 649.065429688 288.296875 646.486328125 c 0
 277.30859375 643.208984375 265.995117188 630.810546875 248.837890625 603.243164062 c 0
 235.717773438 582.162109375 215.706054688 553.538085938 204.8125 540.270507812 c 0
 160.864257812 486.743164062 140.458984375 419.729492188 140.458984375 328.918945312 c 0
 140.458984375 230.541015625 168.25 133.403320312 210.051757812 85.67578125 c 0
 243.190429688 47.837890625 260.2109375 -0.2705078125 240.458984375 -0.2705078125 c 0
 236.134765625 -0.2705078125 232.3515625 2 232.3515625 4.5947265625 c 0
 232.3515625 9.7294921875 216.721679688 30 196.922851562 50.541015625 c 0
 178.688476562 69.458984375 145.865234375 116.717773438 145.865234375 124.053710938 c 0
 145.865234375 127.907226562 139.823242188 146.215820312 132.486328125 164.594726562 c 0
 110.594726562 219.434570312 102.857421875 330 115.46484375 407.837890625 c 0
 116.4453125 413.891601562 118.966796875 430.541015625 121.194335938 445.67578125 c 0
 125.333007812 473.784179688 173.064453125 561.467773438 195.053710938 581.35546875 c 0
 201.215820312 586.928710938 210.802734375 600.270507812 216.025390625 610.541015625 c 0
 229.493164062 637.02734375 250.3515625 655.405273438 266.946289062 655.405273438 c 0
 274.513671875 655.405273438 282.42578125 657.650390625 284.088867188 660.270507812 c 0
EndSplineSet
EndChar

StartChar: underscore
Encoding: 95 95 38
Width: 562
VWidth: 50
Flags: W
HStem: 9.3125 38.5254<10.2259 389.338 430.493 543.998>
LayerCount: 2
Back
Fore
SplineSet
343.377929688 47.6572265625 m 0
 358.599609375 52.7314453125 385 54.2529296875 432.567382812 52.798828125 c 0
 509.865234375 50.4345703125 542.739257812 42.3544921875 545.12109375 25.134765625 c 0
 548.057617188 3.90234375 535.810546875 0.763671875 483.377929688 9.3125 c 0
 421.756835938 19.359375 387.155273438 19.287109375 352.567382812 9.0390625 c 0
 318.470703125 -1.0634765625 160.134765625 -3.2412109375 110.946289062 5.7158203125 c 0
 93.1083984375 8.9638671875 64.4052734375 12.16796875 47.162109375 12.8349609375 c 0
 9.865234375 14.279296875 1.185546875 21.73046875 17.09375 38.6484375 c 0
 27.720703125 49.951171875 32.02734375 50.7861328125 64.458984375 47.837890625 c 0
 83.9189453125 46.068359375 113.6484375 41.98046875 129.865234375 38.84375 c 0
 167.703125 31.525390625 312.969726562 37.521484375 343.377929688 47.6572265625 c 0
EndSplineSet
EndChar

StartChar: E
Encoding: 69 69 39
Width: 492
VWidth: 85
Flags: W
HStem: 79.5947 24.5186<266.615 345.093> 502.839 36.8271<229.198 458.066>
VStem: 58.7627 48.6426<47.5802 183.381> 184.242 31.2715<586.058 640.446>
LayerCount: 2
Back
Fore
SplineSet
184.2421875 637.432617188 m 0
 187.692382812 643.254882812 211.796875 642.837890625 215.513671875 636.891601562 c 0
 217.020507812 634.48046875 216.287109375 620.134765625 213.854492188 604.458984375 c 0
 208.90625 572.567382812 211.0625 568.330078125 241.458984375 550.213867188 c 0
 261.060546875 538.532226562 266.32421875 538.05078125 356.594726562 539.666015625 c 0
 456.594726562 541.45703125 471.216796875 538.420898438 458.475585938 518.513671875 c 0
 450.110351562 505.442382812 418.215820312 501.61328125 327.946289062 502.838867188 c 0
 256.053710938 503.81640625 246.478515625 505.102539062 227.405273438 516.3515625 c 0
 216.053710938 523.045898438 204.578125 526.788085938 202.541015625 524.458984375 c 0
 200.450195312 522.0703125 193.3125 494.729492188 186.594726562 463.377929688 c 0
 179.875976562 432.02734375 169.834960938 392.346679688 164.162109375 374.729492188 c 0
 158.591796875 357.432617188 153.891601562 339.869140625 153.891601562 336.3515625 c 0
 153.891601562 331.903320312 168.756835938 333.772460938 201.189453125 342.296875 c 0
 228.215820312 349.401367188 264.818359375 354.845703125 286.594726562 355 c 0
 322.810546875 355.256835938 325.538085938 354.384765625 341.538085938 337.432617188 c 0
 362.965820312 314.729492188 370.108398438 300.405273438 370.108398438 280.134765625 c 0
 370.108398438 257.045898438 357.098632812 258.513671875 341.3515625 283.377929688 c 0
 320.685546875 316.008789062 314.97265625 318.765625 274.432617188 315.673828125 c 0
 232.270507812 312.458007812 171.182617188 299.403320312 150.6484375 289.221679688 c 0
 135.9140625 281.915039062 120.715820312 247.162109375 113.344726562 203.918945312 c 0
 110.489257812 187.162109375 111.28125 182.134765625 116.594726562 183.3046875 c 0
 125.754882812 185.323242188 129.510742188 162.837890625 122.541015625 147.703125 c 0
 110.840820312 122.296875 105.065429688 105.177734375 107.405273438 102.837890625 c 0
 108.584960938 101.658203125 106.373046875 88.513671875 102.541015625 73.9189453125 c 2
 95.513671875 47.162109375 l 1
 110.108398438 54.5947265625 l 2
 133.908203125 66.71484375 202 89.31640625 259.296875 104.11328125 c 0
 316.594726562 118.911132812 337.28515625 116.986328125 348.526367188 95.810546875 c 0
 355.44140625 82.78515625 350.6484375 79.5947265625 324.162109375 79.5947265625 c 0
 300.057617188 79.5947265625 193.3515625 48.8515625 146.865234375 28.513671875 c 0
 103.081054688 9.3583984375 44.0771484375 -5.0146484375 41.458984375 2.837890625 c 0
 40.2705078125 6.4052734375 34.4326171875 9.32421875 28.486328125 9.32421875 c 0
 19.837890625 9.32421875 18.9189453125 10.837890625 23.8916015625 16.8916015625 c 0
 27.345703125 21.095703125 36.5947265625 27.1025390625 44.703125 30.4052734375 c 0
 58.61328125 36.072265625 59.2724609375 37.97265625 58.7626953125 70.9462890625 c 0
 58.048828125 117.077148438 64.8154296875 165.541015625 78.4609375 212.02734375 c 0
 84.6484375 233.108398438 90.8837890625 254.413085938 92.541015625 260.134765625 c 0
 95.173828125 269.231445312 93.3515625 269.97265625 76.5947265625 266.622070312 c 0
 65.2431640625 264.3515625 56.2705078125 265.108398438 54.162109375 268.513671875 c 0
 52.154296875 271.756835938 48.4482421875 272.915039062 45.513671875 271.215820312 c 0
 42.689453125 269.581054688 40.3779296875 273.108398438 40.3779296875 279.053710938 c 0
 40.3779296875 287.383789062 47.9462890625 292.60546875 73.3515625 301.807617188 c 0
 110.541015625 315.278320312 107.913085938 310.946289062 135.293945312 403.918945312 c 0
 160.446289062 489.32421875 173.33984375 565.970703125 163.622070312 572.30859375 c 0
 158.084960938 575.919921875 158.486328125 578.038085938 165.513671875 582.296875 c 0
 170.33984375 585.22265625 176.168945312 598.243164062 178.215820312 610.67578125 c 0
 180.263671875 623.108398438 183.028320312 635.384765625 184.2421875 637.432617188 c 0
EndSplineSet
EndChar

StartChar: d
Encoding: 100 100 40
Width: 341
VWidth: -50
Flags: W
VStem: 263.407 34.6641<21.3571 236.699>
LayerCount: 2
Back
Fore
SplineSet
272.26171875 534.32421875 m 0
 269.82421875 576.486328125 272.452148438 583.03515625 287.703125 572.798828125 c 0
 306.3828125 560.260742188 307.563476562 517.02734375 298.071289062 193.243164062 c 0
 294.696289062 78.1083984375 295.318359375 58.1630859375 302.837890625 40.541015625 c 0
 307.680664062 29.189453125 313.74609375 20.2705078125 316.622070312 20.2705078125 c 0
 319.360351562 20.2705078125 320.331054688 16.486328125 318.701171875 12.162109375 c 0
 313.434570312 -1.8154296875 292.703125 2.97265625 278.918945312 21.3515625 c 0
 265.005859375 39.90234375 265.625976562 33.7841796875 263.407226562 174.32421875 c 0
 262.723632812 217.567382812 260.530273438 241.4765625 257.703125 236.486328125 c 0
 255.18359375 232.041992188 239.666992188 187.837890625 223.358398438 138.6484375 c 0
 189.844726562 37.5673828125 183.188476562 24.849609375 157.432617188 12.681640625 c 0
 127.703125 -1.3642578125 108.827148438 1.5556640625 83.9189453125 24.0537109375 c 0
 52.0927734375 52.7998046875 32.3779296875 97.02734375 30.1865234375 144.594726562 c 0
 28.3681640625 184.053710938 29.525390625 187.295898438 48.2431640625 195.162109375 c 0
 57.7568359375 199.161132812 84.166015625 221.891601562 106.930664062 245.67578125 c 0
 156.598632812 297.567382812 188.043945312 317.4140625 227.162109375 321.55859375 c 2
 255.810546875 324.594726562 l 1
 261.936523438 352.162109375 l 2
 267.791992188 378.510742188 266.666992188 394.32421875 254.170898438 461.3515625 c 0
 251.55078125 475.405273438 253.17578125 479.865234375 262.837890625 485.134765625 c 0
 273.977539062 491.2109375 274.573242188 494.32421875 272.26171875 534.32421875 c 0
235.810546875 278.6484375 m 0
 235.810546875 287.21484375 191.814453125 286.756835938 183.905273438 278.108398438 c 0
 180.659179688 274.55859375 152.02734375 246.465820312 120.67578125 216.068359375 c 0
 55.2705078125 152.653320312 54.169921875 149.708007812 75.1904296875 94.32421875 c 0
 95.9111328125 39.7294921875 138.704101562 22.5166015625 162.541015625 59.189453125 c 0
 171.360351562 72.7578125 191.450195312 128.918945312 205.659179688 179.729492188 c 0
 210.6484375 197.567382812 219.47265625 225.784179688 225.270507812 242.432617188 c 0
 231.10546875 259.189453125 235.810546875 275.357421875 235.810546875 278.6484375 c 0
EndSplineSet
EndChar

StartChar: n
Encoding: 110 110 41
Width: 300
VWidth: 0
Flags: W
VStem: 28.3779 58.5801<21.0096 133.068> 62.3838 32.3477<236.904 348.084> 210 35.3613<24.3923 119.692>
LayerCount: 2
Back
Fore
SplineSet
62.3837890625 338.918945312 m 0x60
 65.83984375 352.97265625 89.7763671875 356.172851562 94.7314453125 343.243164062 c 0x60
 96.4453125 338.76953125 94.03515625 314.053710938 89.35546875 288.108398438 c 0
 76.6806640625 217.837890625 64.0634765625 128.369140625 66.486328125 125.946289062 c 0
 67.6572265625 124.774414062 74.1103515625 135.67578125 80.56640625 149.729492188 c 0
 148.594726562 297.837890625 172.150390625 329.729492188 213.513671875 329.729492188 c 0
 273.745117188 329.729492188 294.829101562 240.541015625 262.708007812 121.622070312 c 0
 254.677734375 91.8916015625 246.872070312 61 245.361328125 52.97265625 c 0
 242.51171875 37.837890625 229.673828125 21.6220703125 220.541015625 21.6220703125 c 0
 217.837890625 21.6220703125 213.153320312 28.1083984375 210 36.2158203125 c 0
 205.412109375 48.013671875 208.137695312 63.2431640625 224.221679688 115.67578125 c 0
 250.750976562 202.162109375 253.75390625 236.200195312 237.66796875 268.108398438 c 0
 230.85546875 281.622070312 221.801757812 293.861328125 217.296875 295.647460938 c 0
 202.34765625 301.576171875 173.1015625 263.784179688 135.33203125 189.729492188 c 0
 114.655273438 149.189453125 92.9580078125 100.45703125 86.9580078125 81.0810546875 c 0
 73.2333984375 36.7568359375 60.76953125 7.1357421875 54.0537109375 2.8828125 c 0
 51.037109375 0.9716796875 43.513671875 4.5947265625 37.02734375 11.0810546875 c 0
 26.0830078125 22.025390625 25.5791015625 26.2158203125 28.3779296875 82.97265625 c 0xa0
 30.0048828125 115.946289062 32.5751953125 149.36328125 34.0537109375 156.756835938 c 0
 35.544921875 164.212890625 41.845703125 205.405273438 48.1083984375 248.6484375 c 0
 54.37109375 291.891601562 60.7705078125 332.357421875 62.3837890625 338.918945312 c 0x60
EndSplineSet
EndChar

StartChar: J
Encoding: 74 74 42
Width: 352
VWidth: 40
Flags: W
VStem: 263.946 30.2695<451.773 601.173>
LayerCount: 2
Back
Fore
SplineSet
267.426757812 605.405273438 m 0
 279.569335938 619.860351562 294.215820312 596.215820312 294.215820312 562.162109375 c 0
 294.215820312 547.02734375 296.532226562 526.427734375 299.3515625 516.486328125 c 0
 302.190429688 506.475585938 305.936523438 483.513671875 307.729492188 465.134765625 c 0
 309.537109375 446.614257812 313.604492188 415.134765625 316.9140625 394.053710938 c 0
 329.985351562 310.810546875 324.4453125 202.083007812 305.236328125 164.865234375 c 0
 293.518554688 142.162109375 232.400390625 68.0205078125 209.891601562 49.203125 c 0
 184.901367188 28.3115234375 152.594726562 13.8291015625 121.784179688 9.70703125 c 0
 94.2158203125 6.0185546875 93.2822265625 6.361328125 73.22265625 27.5673828125 c 0
 42.5439453125 60 28.5498046875 135.415039062 49.3515625 156.215820312 c 0
 63.3251953125 170.190429688 69.7900390625 162.703125 74.0859375 127.567382812 c 0
 78.779296875 89.189453125 95.4814453125 46.701171875 107.729492188 41.9853515625 c 0
 138.952148438 29.962890625 227.798828125 95.134765625 268.614257812 160 c 0
 294.4453125 201.05078125 300.265625 280.541015625 285.752929688 394.053710938 c 0
 281.19140625 429.729492188 275.270507812 477.162109375 272.594726562 499.458984375 c 0
 269.935546875 521.622070312 266.014648438 552.865234375 263.946289062 568.377929688 c 0
 261.20703125 588.918945312 262.168945312 599.145507812 267.426757812 605.405273438 c 0
EndSplineSet
EndChar

StartChar: S
Encoding: 83 83 43
Width: 430
VWidth: -10
Flags: W
LayerCount: 2
Back
Fore
SplineSet
297.486328125 624.044921875 m 0
 327.756835938 632.345703125 376.241210938 614.953125 380.33984375 594.32421875 c 0
 382.58203125 583.0390625 363.97265625 578.970703125 351.541015625 588.02734375 c 0
 325.71484375 606.840820312 279.984375 587.296875 248.646484375 544.053710938 c 0
 211.432617188 492.703125 181.270507812 430.270507812 181.270507812 404.594726562 c 0
 181.270507812 347.837890625 199.298828125 324.266601562 250.458984375 314.131835938 c 0
 373.703125 289.71875 407.979492188 266.70703125 408.786132812 207.837890625 c 0
 409.579101562 149.926757812 328.296875 49.37109375 254.243164062 16.650390625 c 0
 221.576171875 2.2158203125 176.405273438 -1.7392578125 136.405273438 6.3330078125 c 0
 91 15.4951171875 75.689453125 25.2451171875 53.4052734375 59.189453125 c 0
 36.7275390625 84.5947265625 34.6953125 91.2509765625 37.7294921875 110.541015625 c 0
 42.40625 140.270507812 74.291015625 184.594726562 91 184.594726562 c 0
 104.953125 184.594726562 104.421875 177.567382812 89.240234375 161.3515625 c 0
 62.9267578125 133.243164062 60.9609375 89.265625 85.0537109375 67.66015625 c 0
 100.477539062 53.8291015625 158.02734375 33.2431640625 181.270507812 33.2431640625 c 0
 202.711914062 33.2431640625 240.189453125 46.201171875 267.756835938 63.146484375 c 0
 296.946289062 81.0888671875 352.731445312 139.73828125 364.25 164.594726562 c 0
 383.037109375 205.134765625 383.212890625 221.138671875 365.053710938 237.751953125 c 0
 345.739257812 255.422851562 312.081054688 267.73046875 252.622070312 278.865234375 c 0
 199.6484375 288.78515625 191.04296875 292.830078125 173.740234375 315.946289062 c 0
 143.01953125 356.987304688 141.182617188 415.946289062 168.940429688 470 c 0
 193.921875 518.6484375 198.229492188 525.436523438 228.635742188 564.053710938 c 0
 257.576171875 600.810546875 278.161132812 618.74609375 297.486328125 624.044921875 c 0
EndSplineSet
EndChar

StartChar: quotedbl
Encoding: 34 34 44
Width: 441
VWidth: 90
Flags: W
HStem: 584.693 213.338
VStem: 145.297 69.8906<712.636 785.465> 308.425 50.6562<654.495 724.872> 308.425 17.6191<611.263 645.373>
LayerCount: 2
Back
Fore
SplineSet
349.3515625 777.193359375 m 0xd0
 360.162109375 784.064453125 375.24609375 782.844726562 378.147460938 774.865234375 c 0
 379.544921875 771.021484375 375.805664062 753.513671875 369.891601562 736.215820312 c 0
 363.978515625 718.918945312 359.081054688 698.840820312 359.081054688 691.891601562 c 0xe0
 359.081054688 684.865234375 354.250976562 674.358398438 348.270507812 668.377929688 c 0
 342.32421875 662.432617188 337.112304688 655.622070312 336.6875 653.243164062 c 0
 335.529296875 646.756835938 331.271484375 633.784179688 326.043945312 620.810546875 c 0
 318.795898438 602.82421875 307.4140625 609.458984375 308.424804688 631.081054688 c 0
 309.765625 659.729492188 341.219726562 772.026367188 349.3515625 777.193359375 c 0xd0
164.215820312 782.703125 m 0
 172.865234375 791.3515625 181.518554688 798.07421875 183.946289062 798.03125 c 0
 196.377929688 797.80859375 212.650390625 790.529296875 215.1875 784.053710938 c 0
 218.004882812 776.865234375 204.469726562 730 196.610351562 719.729492188 c 0
 192.467773438 714.317382812 173.666992188 652.162109375 167.342773438 622.97265625 c 0
 164.8828125 611.622070312 162.305664062 608.9375 158 613.243164062 c 0
 151.153320312 620.08984375 137.458984375 612.162109375 137.458984375 601.3515625 c 0
 137.458984375 593.243164062 116.971679688 580.615234375 110.432617188 584.693359375 c 0
 103.58203125 588.965820312 109.78515625 635.405273438 119.228515625 650.541015625 c 0
 123.276367188 657.02734375 126.6484375 666.118164062 126.6484375 670.541015625 c 0
 126.6484375 675.06640625 129.9921875 688.918945312 134.215820312 701.891601562 c 0
 138.440429688 714.865234375 143.3359375 734.450195312 145.296875 746.215820312 c 0
 147.369140625 758.6484375 155.130859375 773.6171875 164.215820312 782.703125 c 0
163.405273438 638.6484375 m 0
 163.405273438 653.243164062 162.995117188 653.921875 157.458984375 648.486328125 c 0
 152.2890625 643.41015625 153.134765625 625.134765625 158.541015625 625.134765625 c 0
 161.264648438 625.134765625 163.405273438 631.081054688 163.405273438 638.6484375 c 0
EndSplineSet
EndChar

StartChar: dollar
Encoding: 36 36 45
Width: 483
VWidth: 0
Flags: W
HStem: 98.1211 35.2676<85.649 173.159> 530.51 38.5332<293.59 354.993>
VStem: 215.946 34.3213<2.57892 72.4729> 259.216 34.5654<571.495 628.793>
LayerCount: 2
Back
Fore
SplineSet
263.4921875 624.173828125 m 0
 264.903320312 627.010742188 272.556640625 629.115234375 280.713867188 628.911132812 c 0
 295.998046875 628.525390625 298.571289062 621.275390625 293.78125 592.09765625 c 0
 291.61328125 578.885742188 293.4375 576.060546875 306.5546875 572.32421875 c 0
 314.970703125 569.927734375 331.58203125 568.451171875 343.466796875 569.04296875 c 0
 361.788085938 569.956054688 368.904296875 566.65625 390.231445312 547.360351562 c 0
 415.931640625 524.106445312 423.525390625 503.408203125 408.978515625 496.262695312 c 0
 404.469726562 494.047851562 395.631835938 496.870117188 388.045898438 502.947265625 c 0
 381.043945312 508.556640625 370.896484375 513.112304688 366.301757812 512.709960938 c 0
 361.455078125 512.286132812 356.58203125 514.471679688 355.162109375 517.705078125 c 0
 352.407226562 523.974609375 294.754882812 535.420898438 290.66015625 530.509765625 c 0
 287.133789062 526.283203125 290.610351562 386.71484375 294.435546875 378.911132812 c 0
 296.23828125 375.232421875 312.110351562 369.274414062 329.23046875 365.849609375 c 0
 374.227539062 356.845703125 390.997070312 340.15234375 399.530273438 295.862304688 c 0
 403.231445312 276.653320312 405.211914062 254.311523438 403.966796875 245.7890625 c 0
 396.263671875 193.024414062 370.41015625 112.495117188 356.901367188 99.1826171875 c 0
 352.790039062 95.1298828125 329.580078125 88.9619140625 305.46484375 85.5126953125 c 0
 281.349609375 82.0634765625 259.040039062 76.8056640625 256.021484375 73.861328125 c 0
 253.002929688 70.916015625 250.408203125 56.0078125 250.267578125 40.8017578125 c 0
 249.977539062 9.3056640625 238.008789062 -7.685546875 223.20703125 2.3876953125 c 0
 217.318359375 6.3955078125 215.3515625 14.9580078125 215.946289062 34.0009765625 c 0
 216.879882812 63.92578125 207.744140625 75.6064453125 184.961914062 73.61328125 c 0
 174.193359375 72.671875 171.805664062 74.5244140625 173.028320312 82.87890625 c 0
 174.258789062 91.2841796875 170.133789062 94.2578125 151.889648438 98.12109375 c 0
 139.173828125 100.814453125 120.5234375 101.614257812 109.407226562 99.9423828125 c 0
 83.7001953125 96.078125 75.6494140625 108.022460938 92.572265625 124.916015625 c 0
 106.514648438 138.833984375 136.047851562 142.75390625 156.400390625 133.388671875 c 0
 168.2734375 127.92578125 216.608398438 127.42578125 216.140625 132.771484375 c 0
 216.063476562 133.661132812 218.311523438 161.177734375 221.141601562 193.981445312 c 0
 230.48046875 302.234375 231.0078125 296.244140625 211.243164062 306.596679688 c 0
 201.466796875 311.716796875 180.375 329.049804688 163.887695312 345.513671875 c 2
 134.16015625 375.198242188 l 1
 134.373046875 416.18359375 l 2
 134.491210938 438.983398438 137.350585938 463.911132812 140.817382812 472.364257812 c 0
 151.434570312 498.252929688 208.998046875 547.783203125 230.671875 549.6796875 c 0
 244.907226562 550.924804688 257.396484375 571.0078125 259.215820312 595.584960938 c 0
 260.186523438 608.692382812 262.076171875 621.325195312 263.4921875 624.173828125 c 0
247.75390625 487.146484375 m 0
 250.517578125 512.141601562 245.319335938 512.504882812 210.412109375 489.7578125 c 0
 181.151367188 470.689453125 170.270507812 453.024414062 176.559570312 434.795898438 c 0
 182.01171875 418.995117188 213.900390625 392.375 228.802734375 391.184570312 c 0
 237.849609375 390.461914062 239.591796875 395.274414062 242.348632812 428.614257812 c 0
 244.111328125 449.930664062 246.505859375 475.8515625 247.75390625 487.146484375 c 0
212.615234375 371.5390625 m 0
 178.23828125 379.946289062 177.70703125 379.249023438 203.85546875 360.036132812 c 0
 229.950195312 340.861328125 233.766601562 340.249023438 236.30078125 354.833984375 c 0
 237.765625 363.254882812 233.130859375 366.5234375 212.615234375 371.5390625 c 0
326.985351562 335.697265625 m 0
 310.877929688 346.150390625 305.91796875 347.022460938 306.594726562 339.279296875 c 0
 306.848632812 336.379882812 313.745117188 331.981445312 321.537109375 329.749023438 c 0
 342.129882812 323.850585938 343.288085938 325.116210938 326.985351562 335.697265625 c 0
332.915039062 286.522460938 m 0
 320.208007812 289.116210938 306.432617188 292.264648438 302.462890625 293.481445312 c 0
 292.604492188 296.502929688 282.905273438 272.09375 277.611328125 230.935546875 c 0
 275.282226562 212.826171875 273.143554688 196.767578125 272.859375 195.250976562 c 0
 264.797851562 152.22265625 268.890625 134.048828125 282.97265625 150.333984375 c 0
 288.377929688 156.58203125 306.76953125 176.040039062 323.697265625 193.419921875 c 0
 374.979492188 246.068359375 378.071289062 277.302734375 332.915039062 286.522460938 c 0
346.498046875 149.874023438 m 0
 350.9375 161.657226562 353.135742188 171.997070312 351.49609375 173.372070312 c 0
 348.680664062 175.734375 291.879882812 116.609375 289.462890625 108.80078125 c 0
 288.694335938 106.317382812 299.2734375 109.768554688 313.327148438 116.5859375 c 0
 333.106445312 126.181640625 340.288085938 133.388671875 346.498046875 149.874023438 c 0
EndSplineSet
EndChar

StartChar: R
Encoding: 82 82 46
Width: 489
VWidth: 0
Flags: W
HStem: 231.232 41.4023<209.856 338.424>
VStem: 131.803 22.1973<4.62845 183.292>
LayerCount: 2
Back
Fore
SplineSet
212.212890625 452.8203125 m 0
 227.369140625 459.3828125 234.793945312 459.141601562 274.578125 450.799804688 c 0
 317.588867188 441.78125 336.084960938 432.34375 360.331054688 407.04296875 c 0
 377.81640625 388.797851562 378.987304688 385.26953125 380.76171875 345.484375 c 0
 382.53515625 305.69921875 381.69140625 301.893554688 366.04296875 279.086914062 c 0
 347.598632812 252.205078125 309.524414062 230.358398438 282.642578125 231.232421875 c 0
 273.412109375 231.533203125 250.384765625 235.732421875 231.030273438 240.645507812 c 0
 204.1484375 247.469726562 192.734375 248.190429688 181.567382812 243.770507812 c 0
 156.185546875 233.723632812 163.826171875 223.258789062 205.76171875 210.633789062 c 0
 227.266601562 204.159179688 254.506835938 193.186523438 267.051757812 185.946289062 c 0
 299.84765625 167.018554688 348.61328125 120.520507812 357.1328125 100.053710938 c 0
 365.189453125 80.69921875 395.262695312 61.1142578125 399.235351562 72.634765625 c 0
 400.462890625 76.1943359375 406.762695312 68.6025390625 413.288085938 55.69921875 c 0
 419.814453125 42.7958984375 423.831054688 28.9384765625 422.249023438 24.78515625 c 0
 418.272460938 14.3466796875 399.612304688 15.6455078125 391.34375 26.935546875 c 0
 387.518554688 32.158203125 376.459960938 42.0576171875 367.3203125 48.44140625 c 0
 357.98828125 54.958984375 343.111328125 72.09765625 334.184570312 86.61328125 c 0
 314.287109375 118.970703125 255.223632812 164.922851562 220.27734375 175.235351562 c 0
 206.298828125 179.359375 189.7890625 185.37109375 184.255859375 188.350585938 c 0
 161.51953125 200.592773438 159.079101562 188.2265625 154 35 c 0
 153.287109375 13.4951171875 150.83984375 6.46484375 143.395507812 4.5341796875 c 0
 131.518554688 1.455078125 127.040039062 8.65625 131.802734375 23.1728515625 c 0
 133.743164062 29.0869140625 132.548828125 37.19140625 129.1484375 41.18359375 c 0
 124.8125 46.2734375 124.491210938 54.6240234375 128.073242188 69.140625 c 0
 130.90234375 80.6044921875 133.419921875 121.021484375 133.716796875 159.731445312 c 0
 134.669921875 283.924804688 137.920898438 310.188476562 162.002929688 388.2265625 c 0
 172.62109375 422.634765625 187.90234375 442.293945312 212.212890625 452.8203125 c 0
283.71875 420.14453125 m 0
 224.041015625 432.775390625 203.512695312 422.934570312 184.615234375 372.634765625 c 0
 177.545898438 353.817382812 171.890625 331.237304688 171.890625 321.828125 c 0
 171.890625 312.688476562 169.663085938 301.551757812 167.051757812 297.634765625 c 0
 164.436523438 293.711914062 163.448242188 285.806640625 164.901367188 280.430664062 c 0
 167.2109375 271.8828125 172.427734375 270.787109375 201.998046875 272.634765625 c 0
 225.653320312 274.11328125 241.615234375 272.181640625 253.073242188 266.452148438 c 0
 288.471679688 248.752929688 341.959960938 272.09765625 354.69921875 310.806640625 c 0
 370.61328125 359.159179688 338.556640625 408.537109375 283.71875 420.14453125 c 0
EndSplineSet
EndChar

StartChar: D
Encoding: 68 68 47
Width: 473
VWidth: 20
Flags: W
HStem: 20.8682 43.3047<74.8477 124.259>
VStem: 121.728 45.7246<66.145 191.757> 396.841 30.1416<348.764 508.517>
LayerCount: 2
Back
Fore
SplineSet
206.331054688 583.012695312 m 0
 257.22265625 608.09765625 338.27734375 598.465820312 381.952148438 562.14453125 c 0
 422.262695312 528.619140625 423.172851562 526.850585938 426.982421875 474.546875 c 0
 430.87109375 421.165039062 424.791992188 362.19921875 411.78515625 327.131835938 c 0
 407.22265625 314.83203125 399.624023438 291.2734375 395.00390625 275.107421875 c 0
 382.111328125 229.993164062 360.147460938 187.766601562 315.83203125 122.897460938 c 0
 278.638671875 68.455078125 241.998046875 40.791015625 193.086914062 30.224609375 c 0
 170.732421875 25.3955078125 161.004882812 20.599609375 157.826171875 12.8388671875 c 0
 151.713867188 -2.0830078125 138.66015625 -1.9501953125 131.25 13.1103515625 c 0
 125.905273438 23.9765625 122.4609375 24.970703125 104.381835938 20.8681640625 c 0
 69.8193359375 13.0244140625 60.197265625 34.046875 87.4013671875 57.9658203125 c 0
 97.9482421875 67.240234375 102.484375 68.43359375 110.986328125 64.1728515625 c 0
 118.953125 60.181640625 121.565429688 60.4873046875 121.727539062 65.4306640625 c 0
 122.163085938 78.7705078125 123.163085938 83.4765625 129.720703125 103.077148438 c 0
 133.327148438 113.858398438 137.728515625 137.46875 139.5 155.543945312 c 0
 141.272460938 173.620117188 144.149414062 197.090820312 145.89453125 207.700195312 c 0
 157.861328125 280.452148438 165.215820312 350.553710938 166.194335938 401.180664062 c 0
 167.40234375 463.715820312 160.873046875 503.138671875 151.228515625 491.541992188 c 0
 143.282226562 481.986328125 136.899414062 482.08203125 136.008789062 491.770507812 c 0
 135.61328125 496.078125 131.499023438 499.499023438 127.192382812 499.103515625 c 0
 104.55078125 497.022460938 135.766601562 547.563476562 166.8828125 563.3671875 c 0
 174.434570312 567.201171875 191.791015625 575.845703125 206.331054688 583.012695312 c 0
310 559.499023438 m 0
 265.158203125 569.008789062 247.37890625 567.01953125 212.211914062 548.560546875 c 0
 187.35546875 535.514648438 184.090820312 531.952148438 186.557617188 520.573242188 c 0
 188.11328125 513.401367188 192.501953125 473.622070312 196.311523438 432.17578125 c 0
 202.79296875 361.662109375 201.653320312 331.71875 190.508789062 279.653320312 c 0
 187.875 267.348632812 183.560546875 235.588867188 180.80078125 208.194335938 c 0
 178.041015625 180.799804688 173.905273438 154.123046875 171.495117188 148.170898438 c 0
 166.69921875 136.33203125 163.465820312 67.8564453125 167.452148438 62.578125 c 0
 171.116210938 57.7255859375 215.37890625 71.1611328125 235.969726562 83.375 c 0
 304.68359375 124.131835938 386.60546875 302.018554688 396.840820312 432.693359375 c 0
 399.282226562 463.858398438 397.928710938 473.456054688 387.76953125 496.998046875 c 0
 371.32421875 535.107421875 352.07421875 550.577148438 310 559.499023438 c 0
EndSplineSet
EndChar

StartChar: eight
Encoding: 56 56 48
Width: 429
VWidth: 45
Flags: W
HStem: 547.479 26.9502<223.997 282.372>
LayerCount: 2
Back
Fore
SplineSet
215.162109375 566.891601562 m 0
 226.513671875 570.924804688 241.990234375 574.295898438 249.756835938 574.428710938 c 0
 287.594726562 575.073242188 342.541992188 533.720703125 352.783203125 496.891601562 c 0
 356.134765625 484.838867188 363.75390625 460.67578125 369.486328125 443.918945312 c 2
 380.02734375 413.108398438 l 1
 365.97265625 388.784179688 l 2
 358.165039062 375.270507812 342.309570312 357.732421875 330.296875 349.32421875 c 0
 318.405273438 341 308.67578125 332.8515625 308.67578125 331.215820312 c 0
 308.67578125 329.587890625 318.946289062 323.478515625 331.377929688 317.7109375 c 0
 384.091796875 293.256835938 391.607421875 225.541015625 352.346679688 128.784179688 c 0
 341.818359375 102.837890625 269.02734375 16.7626953125 251.377929688 9.3896484375 c 0
 218.946289062 -4.16015625 173.541015625 -0.0732421875 149.215820312 18.583984375 c 0
 122.189453125 39.3154296875 97.865234375 63.8623046875 97.865234375 70.4052734375 c 0
 97.865234375 74.533203125 94.30859375 83.3779296875 90.041015625 89.865234375 c 0
 77.5810546875 108.8046875 83.41796875 143.918945312 106.663085938 189.865234375 c 0
 131.548828125 239.053710938 150.740234375 262.096679688 182.189453125 280.55078125 c 0
 201.108398438 291.651367188 207.543945312 293.078125 216.784179688 288.21484375 c 0
 233.185546875 279.58203125 230.296875 274.15625 198.405273438 253.685546875 c 0
 166.4765625 233.190429688 149.448242188 213.108398438 128.24609375 170.946289062 c 0
 111.666015625 137.97265625 110.77734375 126.081054688 122.431640625 93.1083984375 c 0
 128.951171875 74.6630859375 136.784179688 65.4091796875 157.32421875 51.8857421875 c 0
 195.703125 26.6181640625 230.94921875 25.6806640625 253.608398438 49.32421875 c 0
 304.581054688 102.513671875 321.583984375 131.486328125 338.623046875 194.189453125 c 0
 350.814453125 239.053710938 345.981445312 273.7421875 325.432617188 288.858398438 c 0
 313.358398438 297.740234375 300.567382812 299.881835938 251.377929688 301.259765625 c 0
 187.594726562 303.044921875 172.1015625 307.879882812 152.784179688 332.02734375 c 0
 134.814453125 354.48828125 130.387695312 415.810546875 143.80859375 456.3515625 c 0
 151.682617188 480.134765625 185.947265625 550.919921875 193 557.97265625 c 0
 193.896484375 558.869140625 203.810546875 562.859375 215.162109375 566.891601562 c 0
295.97265625 524.729492188 m 0
 280.837890625 537.466796875 264.822265625 547.602539062 260.02734375 547.478515625 c 0
 246.513671875 547.126953125 215.41796875 531.947265625 207.337890625 521.756835938 c 0
 175.192382812 481.215820312 156.283203125 405.639648438 170.01171875 372.567382812 c 0
 176.293945312 357.432617188 182.189453125 352.483398438 199.486328125 347.822265625 c 0
 248.67578125 334.568359375 282.538085938 342.993164062 318.946289062 377.545898438 c 0
 346.124023438 403.338867188 349.327148438 421.215820312 334.8125 466.081054688 c 0
 325.194335938 495.810546875 318.720703125 505.5859375 295.97265625 524.729492188 c 0
EndSplineSet
EndChar

StartChar: M
Encoding: 77 77 49
Width: 435
VWidth: 0
Flags: W
VStem: 44.2129 36.833<6.78663 213.428> 309.153 34.6953<97.1111 380.55>
LayerCount: 2
Back
Fore
SplineSet
93.7841796875 442.672851562 m 0
 102.40625 459.34765625 114.154296875 451.204101562 129.764648438 417.73046875 c 0
 140.127929688 395.509765625 148.080078125 357.838867188 168.865234375 232.517578125 c 0
 187.794921875 118.39453125 196.283203125 77.08984375 199.782226562 82.0869140625 c 0
 205.86328125 90.7734375 222.020507812 184.805664062 229.833984375 256.990234375 c 0
 246.125976562 407.510742188 254.3984375 427.661132812 296.666992188 419.784179688 c 0
 327.880859375 413.967773438 341.083984375 401.348632812 346.177734375 372.459960938 c 0
 348.711914062 358.086914062 349.110351562 341.153320312 347.064453125 334.744140625 c 0
 345.029296875 328.365234375 343.577148438 307.782226562 343.848632812 289.168945312 c 0
 344.119140625 270.654296875 343.018554688 233.036132812 341.426757812 206.41015625 c 0
 338.83984375 163.141601562 340.001953125 153.366210938 351.653320312 120.392578125 c 0
 358.95703125 99.724609375 369.3046875 77.154296875 374.9375 69.609375 c 0
 397.381835938 39.537109375 402.780273438 -5.3662109375 388.1171875 -40.037109375 c 0
 383.350585938 -51.306640625 380.322265625 -53.0205078125 370.702148438 -49.8896484375 c 0
 358.473632812 -45.91015625 353.69921875 -31.287109375 361.153320312 -20.6416015625 c 0
 367.276367188 -11.896484375 357.934570312 21.603515625 337.375 64.6337890625 c 0
 328.780273438 82.62109375 318.227539062 115.596679688 314.09765625 137.372070312 c 0
 307.224609375 173.61328125 306.497070312 193.665039062 309.153320312 273.719726562 c 0
 310.072265625 301.395507812 309.983398438 326.55859375 308.858398438 356.548828125 c 0
 308.245117188 372.907226562 305.892578125 377.477539062 296.422851562 380.702148438 c 0
 286.361328125 384.129882812 284.060546875 382.08984375 279.809570312 365.97265625 c 0
 277.109375 355.731445312 272.647460938 323.268554688 269.952148438 294.251953125 c 0
 267.256835938 265.234375 263.362304688 236.598632812 261.34765625 230.985351562 c 0
 259.41015625 225.587890625 258.512695312 215.940429688 259.451171875 210.6171875 c 0
 260.443359375 204.987304688 257.588867188 188.059570312 253.009765625 172.431640625 c 0
 248.498046875 157.030273438 240.45703125 115.604492188 235.192382812 80.646484375 c 0
 224.834960938 11.8564453125 216.642578125 -3.3505859375 196.712890625 9.2197265625 c 0
 173.140625 24.087890625 163.201171875 56.974609375 138.31640625 202.431640625 c 2
 114.616210938 340.9609375 l 1
 106.626953125 311.559570312 l 2
 102.189453125 295.224609375 98.525390625 268.963867188 98.3837890625 252.473632812 c 0
 98.2431640625 236.147460938 94.1904296875 197.39453125 89.3759765625 166.357421875 c 0
 77.8212890625 91.8681640625 74.62890625 36.412109375 81.0458984375 21.630859375 c 0
 85.8076171875 10.6611328125 84.7607421875 9.11328125 70.919921875 6.6728515625 c 0
 54.9697265625 3.8603515625 47.779296875 10.27734375 44.212890625 30.5048828125 c 0
 42.056640625 42.734375 49.9931640625 126.48046875 58.6552734375 182.895507812 c 0
 61.9755859375 204.516601562 65.9755859375 244.837890625 67.4970703125 272.000976562 c 0
 69.017578125 299.1640625 73.37890625 331.4765625 77.134765625 343.408203125 c 0
 80.9775390625 355.612304688 83.251953125 369.416992188 82.306640625 374.783203125 c 0
 80.3349609375 385.961914062 88.046875 431.575195312 93.7841796875 442.672851562 c 0
EndSplineSet
EndChar

StartChar: y
Encoding: 121 121 50
Width: 388
VWidth: -180
Flags: W
VStem: 61.1201 27.8262<126.915 302.427>
LayerCount: 2
Back
Fore
SplineSet
314.3515625 430.095703125 m 0
 329.486328125 438.883789062 336.791015625 437.296875 350.873046875 422.162109375 c 0
 378.993164062 391.940429688 375.056640625 335.134765625 337.801757812 233.513671875 c 0
 310.455078125 158.918945312 241.39453125 15.3876953125 202.557617188 -47.5673828125 c 0
 189.552734375 -68.6484375 171.31640625 -99.7685546875 161.377929688 -117.837890625 c 0
 130.458984375 -174.053710938 86.18359375 -208.30078125 56.513671875 -198.948242188 c 0
 39.1943359375 -193.489257812 43 -176.134765625 62.458984375 -171.83203125 c 0
 78.67578125 -168.247070312 115.97265625 -140.033203125 115.97265625 -131.3515625 c 0
 115.97265625 -128.958984375 130.259765625 -104.32421875 147.947265625 -76.2158203125 c 0
 180.24609375 -24.8896484375 267.591796875 142.703125 298.103515625 211.891601562 c 0
 338.626953125 303.784179688 354.420898438 417.930664062 323 391.817382812 c 0
 309.765625 380.819335938 234.477539062 253.513671875 195.813476562 176.756835938 c 0
 187.64453125 160.541015625 169.53515625 134.127929688 155.97265625 118.6484375 c 0
 135.133789062 94.865234375 128.176757812 90.2705078125 113 90.2705078125 c 0
 98.9462890625 90.2705078125 91.896484375 94.263671875 81.513671875 108.108398438 c 0
 64.9970703125 130.129882812 59.7099609375 160.541015625 61.1201171875 225.405273438 c 0
 62.458984375 287.02734375 69.9931640625 311.891601562 87.32421875 311.891601562 c 0
 93.810546875 311.891601562 100.690429688 314.348632812 102.458984375 317.296875 c 0
 104.405273438 320.541015625 107.865234375 322.703125 111.108398438 322.703125 c 0
 114.134765625 322.703125 110.448242188 313.784179688 102.729492188 302.432617188 c 0
 90.5673828125 284.546875 88.9462890625 276.756835938 88.9462890625 236.215820312 c 0
 88.9462890625 181.081054688 97.0537109375 127.45703125 106.243164062 121.818359375 c 0
 109.677734375 119.7109375 117.053710938 120.189453125 121.918945312 122.8359375 c 0
 131.3984375 127.991210938 174.47265625 196.215820312 198.622070312 244.32421875 c 0
 206.219726562 259.458984375 217.341796875 281.578125 223.900390625 294.594726562 c 0
 243.509765625 333.513671875 303.94921875 424.055664062 314.3515625 430.095703125 c 0
EndSplineSet
EndChar

StartChar: asciicircum
Encoding: 94 94 51
Width: 356
VWidth: 0
Flags: W
LayerCount: 2
Back
Fore
SplineSet
196.942382812 778.078125 m 0
 231.236328125 811.143554688 244.57421875 803.666015625 251.080078125 747.73046875 c 0
 253.500976562 726.904296875 261.638671875 696.350585938 270.764648438 673.80859375 c 0
 279.270507812 652.8046875 290.7421875 623.723632812 296.072265625 609.661132812 c 0
 301.458984375 595.452148438 312.079101562 572.141601562 319.80078125 557.584960938 c 0
 332.579101562 533.4921875 333.19921875 530.377929688 327.028320312 521.260742188 c 0
 320.779296875 512.02734375 319.251953125 512.206054688 306.416015625 523.665039062 c 0
 285.307617188 542.505859375 263.1015625 593.418945312 230.165039062 698.485351562 c 0
 221.849609375 725.01171875 214.215820312 746.168945312 213.034179688 745.9609375 c 0
 205.0390625 744.55078125 155.231445312 681.4296875 139.078125 652.235351562 c 0
 91.9638671875 567.084960938 76.4560546875 537.1171875 71.876953125 522.376953125 c 0
 66.10546875 503.795898438 65.4443359375 503.489257812 50.05859375 512.264648438 c 0
 33.859375 521.50390625 34.583984375 523.486328125 93.005859375 629.840820312 c 0
 138.7421875 713.102539062 157.921875 740.456054688 196.942382812 778.078125 c 0
EndSplineSet
EndChar

StartChar: slash
Encoding: 47 47 52
Width: 414
VWidth: 30
Flags: W
VStem: 356 32.4326<564.3 590.406>
LayerCount: 2
Back
Fore
SplineSet
356 587.02734375 m 0
 358.764648438 595.551757812 361.67578125 596.149414062 375.729492188 591.081054688 c 0
 389.243164062 586.20703125 391.534179688 583.087890625 388.432617188 573.784179688 c 0
 386.313476562 567.426757812 383.340820312 556.486328125 381.67578125 548.918945312 c 0
 380.010742188 541.3515625 374.302734375 532.313476562 368.703125 528.377929688 c 0
 363.296875 524.580078125 358.703125 518.743164062 358.703125 515.67578125 c 0
 358.703125 512.612304688 352.109375 502.162109375 344.377929688 492.97265625 c 0
 336.565429688 483.685546875 319.366210938 452.97265625 306.541015625 425.405273438 c 0
 293.71484375 397.837890625 275.689453125 366.510742188 266.883789062 356.486328125 c 0
 251.215820312 338.6484375 212.756835938 264.5234375 212.756835938 252.162109375 c 0
 212.756835938 248.918945312 210.791015625 246.215820312 208.432617188 246.215820312 c 0
 206.073242188 246.215820312 201.16015625 239.458984375 197.622070312 231.3515625 c 0
 194.083984375 223.243164062 187.521484375 210.34375 183.185546875 202.97265625 c 0
 167.288085938 175.946289062 137.081054688 110.428710938 137.081054688 102.97265625 c 0
 137.081054688 97.927734375 140.053710938 96.486328125 146 98.6484375 c 0
 151.946289062 100.810546875 153.567382812 99.7294921875 150.865234375 95.4052734375 c 0
 148.583984375 91.7568359375 143.02734375 89.6279296875 138.162109375 90.541015625 c 0
 132.178710938 91.662109375 122.600585938 78.9189453125 107.081054688 49.189453125 c 0
 94.666015625 25.4052734375 81.751953125 5.265625 78.162109375 4.087890625 c 0
 66.3037109375 0.197265625 54.931640625 14.865234375 58.4921875 29.458984375 c 0
 61.9853515625 43.7822265625 137.916992188 195.946289062 196.327148438 305.67578125 c 0
 227.03515625 363.36328125 243.254882812 395.946289062 271.669921875 457.02734375 c 0
 293.546875 504.053710938 313.475585938 536.436523438 332.87890625 556.486328125 c 0
 343.864257812 567.837890625 354.208007812 581.500976562 356 587.02734375 c 0
EndSplineSet
EndChar

StartChar: numbersign
Encoding: 35 35 53
Width: 656
VWidth: 90
Flags: W
HStem: 199.031 36.499<389.669 451.772 499.76 521.988> 224.561 31.125<72.4489 203.572> 411.188 40.0967<86.2137 219.996 276.429 370.359> 422.421 28.8643<88.585 210.745> 423.637 48.5293<537.712 597.642>
VStem: 350.169 23.7236<69.9853 181.015> 421.152 29.1514<566.993 626.481>
LayerCount: 2
Back
Fore
SplineSet
240.494140625 618.114257812 m 0x26
 242.870117188 623.60546875 249.853515625 628.971679688 255.239257812 629.442382812 c 0
 263.423828125 630.158203125 266.564453125 625.278320312 270.938476562 605.041992188 c 0
 273.931640625 591.1953125 279.1953125 568.939453125 282.56640625 555.868164062 c 0
 286.924804688 538.969726562 286.786132812 521.510742188 282.09375 496.140625 c 0
 278.421875 476.28515625 275.58984375 458.849609375 275.74609375 457.060546875 c 0
 276.217773438 451.67578125 360.092773438 454.28515625 376.396484375 460.19140625 c 0
 388.98046875 464.750976562 391.711914062 469.91796875 395.166992188 495.723632812 c 0
 401.637695312 544.0390625 407.263671875 574.03515625 413.16796875 591.711914062 c 0
 416.341796875 601.213867188 419.801757812 612.802734375 421.15234375 618.456054688 c 0
 422.741210938 625.10546875 427.620117188 628.245117188 435.791992188 627.875 c 0
 447.106445312 627.362304688 448.22265625 624.622070312 450.303710938 592.247070312 c 0
 451.53125 573.161132812 448.859375 538.674804688 444.443359375 516.584960938 c 0
 440.02734375 494.493164062 437.262695312 475.208007812 438.37890625 474.272460938 c 0
 439.510742188 473.323242188 465.9453125 472.379882812 497.435546875 472.166015625 c 0
 561.500976562 471.73046875 587.471679688 466.724609375 596.368164062 453.09765625 c 0
 604.412109375 440.778320312 592.137695312 425.459960938 572.762695312 423.63671875 c 0
 551.7734375 421.6640625 534.108398438 414.482421875 537.873046875 409.454101562 c 0
 539.732421875 406.97265625 547.228515625 405.389648438 554.228515625 406.001953125 c 0
 573.240234375 407.665039062 571.618164062 399.505859375 550.4609375 387.051757812 c 0
 534.463867188 377.634765625 530.659179688 377.180664062 517.166992188 383.078125 c 0
 473.161132812 402.3125 426.505859375 407.3515625 419.258789062 393.651367188 c 0
 412.702148438 381.258789062 396.551757812 316.243164062 391.838867188 283.274414062 c 0
 384.883789062 234.610351562 388.235351562 231.849609375 449.770507812 235.530273438 c 0
 492.952148438 238.11328125 505.609375 236.922851562 521.98828125 228.734375 c 2
 541.848632812 218.8046875 l 1
 530.065429688 207.736328125 l 2
 523.547851562 201.61328125 514.547851562 197.794921875 509.922851562 199.19140625 c 0
 505.354492188 200.5703125 477.794921875 200.497070312 449.166015625 199.03125 c 0x8e
 408.651367188 196.955078125 395.095703125 194.353515625 389.396484375 187.561523438 c 0
 383.03125 179.975585938 380.916992188 167.286132812 373.892578125 94.5048828125 c 0
 372.51953125 80.2763671875 368.4453125 71.6640625 362.251953125 69.8974609375 c 0
 347.798828125 65.7744140625 344.173828125 82.1376953125 350.168945312 124.443359375 c 0
 358.1875 181.033203125 355.823242188 195.728515625 337.653320312 202.20703125 c 0
 316.370117188 209.794921875 275.0703125 212.98046875 258.987304688 208.274414062 c 0
 247.1328125 204.805664062 244.58984375 199.581054688 240.590820312 170.47265625 c 0
 236.817382812 143.012695312 233.935546875 136.520507812 225.178710938 135.754882812 c 0
 215.54296875 134.911132812 213.862304688 139.10546875 209.212890625 175.595703125 c 2
 204.017578125 216.37890625 l 1
 175.498046875 219.853515625 l 2
 159.592773438 221.790039062 134.930664062 223.872070312 119.741210938 224.560546875 c 0
 87.599609375 226.017578125 73.0322265625 231.270507812 72.1162109375 241.736328125 c 0
 70.9482421875 255.087890625 81.0810546875 257.110351562 141.9765625 255.685546875 c 0
 208.85546875 254.12109375 212.6640625 255.698242188 212.708984375 284.96484375 c 0
 212.741210938 306.598632812 216.606445312 362.356445312 219.709960938 385.959960938 c 0
 222.4140625 406.537109375 210.610351562 413.920898438 179.377929688 411.188476562 c 0x66
 168.607421875 410.24609375 156.087890625 412.768554688 151.208984375 416.86328125 c 0
 146.416992188 420.883789062 133 423.41015625 121.693359375 422.420898438 c 0x16
 108.768554688 421.290039062 95.83984375 424.24609375 87.3642578125 430.26953125 c 0
 74.056640625 439.7265625 73.970703125 440.120117188 83.302734375 448.784179688 c 0
 95.79296875 460.380859375 158.880859375 465.609375 174.880859375 456.375 c 0
 181.310546875 452.6640625 193.849609375 450.4375 203.541992188 451.28515625 c 0
 219.939453125 452.719726562 221.06640625 454.447265625 226.810546875 486.962890625 c 0
 233.625 525.541015625 238.897460938 581.956054688 237.137695312 597.47265625 c 0
 236.529296875 602.845703125 238.119140625 612.623046875 240.494140625 618.114257812 c 0x26
496.190429688 442.9765625 m 0
 492.767578125 444.896484375 488.69921875 449.103515625 487.2421875 452.231445312 c 0
 485.333007812 456.328125 480.418945312 455.797851562 470.041015625 450.37890625 c 0
 452.1171875 441.01953125 457.7734375 435.544921875 483.08203125 437.759765625 c 0
 493.852539062 438.702148438 499.678710938 441.020507812 496.190429688 442.9765625 c 0
349.712890625 411.674804688 m 0
 270.225585938 414.727539062 269.64453125 414.6640625 264.380859375 402.34765625 c 0
 261.622070312 395.891601562 260.405273438 385.1796875 261.704101562 378.78125 c 0
 263.00390625 372.384765625 262.954101562 364.487304688 261.596679688 361.408203125 c 0
 260.212890625 358.2734375 257.442382812 344.767578125 255.36328125 331.01953125 c 0
 246.630859375 273.282226562 244.458984375 252.727539062 246.857421875 250.513671875 c 0
 248.334960938 249.147460938 273.627929688 245.594726562 303.190429688 242.599609375 c 0
 359.579101562 236.888671875 364.493164062 238.349609375 364.33984375 260.791992188 c 0
 364.306640625 265.671875 364.545898438 271.821289062 364.846679688 273.858398438 c 0
 366.961914062 288.150390625 370.518554688 356.383789062 369.62109375 365.43359375 c 0
 369.043945312 371.240234375 369.604492188 384.15234375 370.837890625 393.484375 c 0
 373.124023438 410.776367188 373.124023438 410.776367188 349.712890625 411.674804688 c 0
EndSplineSet
EndChar

StartChar: w
Encoding: 119 119 54
Width: 461
VWidth: -80
Flags: W
LayerCount: 2
Back
Fore
SplineSet
209.13671875 396.756835938 m 0
 228.299804688 420.541015625 252.947265625 425.08203125 259.004882812 405.946289062 c 0
 267.446289062 379.278320312 255.793945312 308.108398438 218.1171875 156.215820312 c 0
 209.40234375 121.081054688 202.28515625 79.259765625 202.432617188 64.0537109375 c 0
 202.689453125 37.5673828125 203.109375 36.7412109375 211.081054688 47.02734375 c 0
 215.735351562 53.033203125 224.384765625 68.6484375 230.541015625 82.162109375 c 0
 236.598632812 95.458984375 254.364257812 124.865234375 269.729492188 147.02734375 c 0
 285.095703125 169.189453125 299.552734375 192.8359375 301.622070312 199.189453125 c 0
 303.690429688 205.543945312 322.432617188 226.857421875 342.97265625 246.215820312 c 0
 367.296875 269.140625 380.731445312 286.00390625 381.081054688 294.053710938 c 0
 381.376953125 300.850585938 388.115234375 324.865234375 395.946289062 347.02734375 c 0
 407.405273438 379.458984375 412.6484375 387.922851562 422.162109375 389.342773438 c 0
 440.75 392.1171875 441.982421875 379.458984375 427.387695312 335.67578125 c 0
 420 313.513671875 410.919921875 285.189453125 407.02734375 272.162109375 c 0
 401.952148438 255.180664062 391.891601562 241.5234375 370.810546875 222.997070312 c 0
 336.740234375 193.056640625 287.317382812 123.784179688 256.448242188 62.703125 c 0
 244.428710938 38.9189453125 227.662109375 11.189453125 219.189453125 1.0810546875 c 0
 204.237304688 -16.7568359375 203.38671875 -17.0390625 190.270507812 -8.5009765625 c 0
 160.909179688 10.611328125 162.967773438 80.541015625 196.520507812 203.784179688 c 0
 210.94140625 256.756835938 229.189453125 337.671875 229.189453125 348.6484375 c 0
 229.189453125 380.388671875 202.119140625 327.567382812 178.495117188 249.729492188 c 0
 150.93359375 158.918945312 132.428710938 95.3583984375 126.563476562 71.3515625 c 0
 115.073242188 24.32421875 110.0078125 12.888671875 99.458984375 10.171875 c 0
 84.32421875 6.2734375 71.1376953125 22.162109375 59.8994140625 57.837890625 c 0
 46.4482421875 100.541015625 42.8056640625 398.993164062 55.67578125 403.921875 c 0
 60.4453125 405.748046875 66.6220703125 403.243164062 70.67578125 397.837890625 c 0
 78.4462890625 387.477539062 80.0595703125 352.432617188 80.35546875 187.567382812 c 0
 80.4755859375 121.081054688 82.732421875 81.2431640625 86.7568359375 74.5947265625 c 0
 92.4248046875 65.23046875 93.306640625 65.9462890625 96.7568359375 82.703125 c 0
 98.837890625 92.810546875 103.581054688 110.810546875 107.296875 122.703125 c 0
 111.013671875 134.594726562 118.09765625 158.918945312 123.0390625 176.756835938 c 0
 155.985351562 295.67578125 182.705078125 363.951171875 209.13671875 396.756835938 c 0
EndSplineSet
EndChar

StartChar: quotesingle
Encoding: 39 39 55
Width: 174
VWidth: 15
Flags: W
VStem: 99.2705 30.8105<679.492 794.048>
LayerCount: 2
Back
Fore
SplineSet
104.609375 791.756835938 m 0
 108.395507812 803.4765625 123.594726562 799.32421875 130.330078125 784.729492188 c 0
 135.107421875 774.37890625 135.049804688 765.270507812 130.081054688 745.810546875 c 0
 126.538085938 731.93359375 122.521484375 691.215820312 121.229492188 656.081054688 c 0
 118.78515625 589.594726562 114.162109375 575.885742188 97.6484375 586.1640625 c 0
 82.2138671875 595.771484375 76.8203125 653.377929688 87.357421875 696.081054688 c 0
 92.1591796875 715.541015625 97.4736328125 743.274414062 99.2705078125 758.243164062 c 0
 101.086914062 773.377929688 103.435546875 788.124023438 104.609375 791.756835938 c 0
EndSplineSet
EndChar

StartChar: Q
Encoding: 81 81 56
Width: 443
VWidth: 0
Flags: W
HStem: 573.002 17.5371<231.876 307.104>
VStem: 351.328 29.8174<192.724 368.133> 358.945 50.5771<-9.37802 28.4498>
LayerCount: 2
Back
Fore
SplineSet
208.893554688 585.659179688 m 0xa0
 236.88671875 599.3671875 245.3671875 599.815429688 301.341796875 590.5390625 c 0
 328.057617188 586.112304688 315.001953125 578.439453125 271.501953125 573.001953125 c 0
 223.705078125 567.02734375 218.2265625 563.245117188 184.764648438 513.122070312 c 0
 152.303710938 464.498046875 138.846679688 433.122070312 118.294921875 358.143554688 c 0
 102.959960938 302.198242188 99.87890625 280.361328125 100.985351562 235.436523438 c 0
 103.217773438 144.715820312 121.12890625 95.98046875 164.63671875 62.236328125 c 0
 201.573242188 33.5888671875 238.559570312 34.53125 269.4296875 64.90625 c 0
 296.08984375 91.1396484375 297.03125 99.900390625 275.249023438 119.064453125 c 0
 243.545898438 146.956054688 239.23046875 151.981445312 241.6875 158.154296875 c 0
 245.822265625 168.54296875 253.033203125 167.234375 277.743164062 151.610351562 c 0
 290.716796875 143.407226562 304.783203125 136.895507812 308.223632812 137.501953125 c 0
 314.991210938 138.6953125 345.68359375 208.326171875 343.900390625 218.440429688 c 0
 343.267578125 222.02734375 345.102539062 232.100585938 348.083007812 241.407226562 c 0
 351.064453125 250.715820312 352.487304688 263.124023438 351.328125 269.69921875 c 0
 350.171875 276.256835938 350.909179688 287.73828125 353.00390625 295.791015625 c 0
 362.450195312 332.1015625 302.911132812 455.46484375 255.83984375 497.112304688 c 0
 232.044921875 518.165039062 229.276367188 529.751953125 247.28125 532.926757812 c 0
 277.248046875 538.2109375 340.685546875 458.83203125 369.541992188 379.94140625 c 0
 384.844726562 338.107421875 387.8125 304.673828125 381.145507812 249.159179688 c 0xc0
 376.701171875 212.149414062 356.834960938 140.364257812 345.853515625 121.633789062 c 0
 340.97265625 113.307617188 341.452148438 109.056640625 348.251953125 100.375 c 0
 352.887695312 94.45703125 364.165039062 74.365234375 373.060546875 56.1748046875 c 0
 381.95703125 37.9833984375 394.848632812 15.806640625 401.423828125 7.3857421875 c 0
 411.216796875 -5.158203125 412.735351562 -10.8603515625 409.522460938 -23.021484375 c 0
 401.225585938 -54.4208984375 373.830078125 -37.5478515625 358.9453125 8.12890625 c 0
 349.3046875 37.71484375 332.278320312 66.1845703125 321.701171875 70.40625 c 0
 318.83984375 71.548828125 311.512695312 65.0810546875 305.826171875 56.39453125 c 0
 293.234375 37.1591796875 254.428710938 7.263671875 238.377929688 4.43359375 c 0
 212.293945312 -0.166015625 170.404296875 11.9521484375 146.42578125 31.0322265625 c 0
 109.000976562 60.8125 87.90234375 101.3984375 76.638671875 165.278320312 c 0
 60.4580078125 257.045898438 70.4482421875 331.594726562 113.705078125 441.862304688 c 0
 137.299804688 502.008789062 184.893554688 573.90625 208.893554688 585.659179688 c 0xa0
EndSplineSet
EndChar

StartChar: t
Encoding: 116 116 57
Width: 359
VWidth: -165
Flags: W
HStem: 306.758 34.2764<44.6599 156.446> 418.784 37.8379<224.597 239.293>
VStem: 156.541 39.459<206.14 300.729>
LayerCount: 2
Back
Fore
SplineSet
202.486328125 439.053710938 m 0
 206.478515625 452.02734375 211.143554688 456.622070312 220.32421875 456.622070312 c 0
 227.3515625 456.622070312 235.677734375 453.096679688 239.474609375 448.513671875 c 0
 245.745117188 440.946289062 242.348632812 418.784179688 234.918945312 418.784179688 c 0
 229.564453125 418.784179688 219.4375 389.594726562 214.854492188 360.946289062 c 0
 211.740234375 341.486328125 212.630859375 337.703125 220.32421875 337.703125 c 0
 237.622070312 337.703125 318.374023438 295.956054688 330.111328125 280.946289062 c 0
 336.451171875 272.837890625 341.946289062 263.551757812 341.946289062 260.946289062 c 0
 341.946289062 254.922851562 318.162109375 255.288085938 311.67578125 261.411132812 c 0
 303.889648438 268.760742188 233.296875 297.719726562 213.296875 301.768554688 c 0
 198.703125 304.72265625 196 303.666015625 196 295 c 0
 196 289.368164062 190.045898438 262.02734375 182.81640625 234.458984375 c 0
 170.200195312 186.3515625 154.450195312 47.9013671875 160.865234375 41.486328125 c 0
 165.124023438 37.2275390625 201.967773438 73.9189453125 238.482421875 118.784179688 c 0
 287.315429688 178.784179688 312.674804688 203.091796875 322.486328125 199.305664062 c 0
 335.421875 194.3125 333.012695312 185.810546875 311.926757812 162.02734375 c 0
 301.19140625 149.918945312 284.829101562 128.513671875 274.73828125 113.377929688 c 0
 250.234375 76.6220703125 197.743164062 20.0146484375 179.243164062 10.39453125 c 0
 141.708984375 -9.123046875 125.729492188 5.810546875 125.729492188 60.4052734375 c 0
 125.729492188 102.7265625 136.743164062 186.3515625 150.716796875 250.134765625 c 0
 155.454101562 271.756835938 158.041992188 292.296875 156.541015625 296.3515625 c 0
 154.716796875 301.274414062 139.243164062 304.66015625 108.97265625 306.7578125 c 0
 58.162109375 310.279296875 44.6484375 313.94140625 44.6484375 324.189453125 c 0
 44.6484375 338.608398438 60.32421875 344.493164062 89.513671875 341.034179688 c 0
 105.189453125 339.17578125 130.053710938 339.256835938 145.729492188 341.215820312 c 2
 173.837890625 344.729492188 l 1
 185.458984375 383.108398438 l 2
 191.842773438 404.189453125 199.517578125 429.404296875 202.486328125 439.053710938 c 0
EndSplineSet
EndChar

StartChar: equal
Encoding: 61 61 58
Width: 392
VWidth: 0
Flags: W
HStem: 240.411 45.9229<92.2875 349.107> 451.065 54.6953<94.8102 343.217>
LayerCount: 2
Back
Fore
SplineSet
219.891601562 284.053710938 m 0
 221.096679688 285.41015625 236.6484375 286.418945312 255.02734375 286.333984375 c 0
 291.784179688 286.1640625 348.442382812 270.776367188 355.970703125 258.918945312 c 0
 370.642578125 235.810546875 348 227.713867188 304.215820312 240.411132812 c 0
 277.922851562 248.036132812 264.215820312 248.443359375 199.891601562 243.513671875 c 0
 159.3515625 240.40625 107.491210938 234.576171875 85.296875 230.630859375 c 0
 37.189453125 222.078125 27.9375 223.670898438 24.5810546875 241.081054688 c 0
 20.9130859375 260.107421875 31.7841796875 265.958984375 74.486328125 267.944335938 c 0
 95.5673828125 268.924804688 115.057617188 271.19140625 117.729492188 272.97265625 c 0
 120.3828125 274.7421875 144.215820312 277.444335938 170.162109375 278.918945312 c 0
 196.108398438 280.393554688 218.712890625 282.727539062 219.891601562 284.053710938 c 0
136.6484375 507.717773438 m 0
 178.491210938 514.645507812 208.541015625 514.188476562 265.296875 505.760742188 c 0
 339.3515625 494.764648438 364.100585938 479.918945312 350.594726562 454.594726562 c 0
 343.506835938 441.3046875 330.162109375 440 314.486328125 451.065429688 c 0
 302.84375 459.283203125 236.6484375 472.157226562 206.918945312 471.985351562 c 0
 198.049804688 471.934570312 160.703125 469.932617188 124.486328125 467.567382812 c 0
 66.1083984375 463.754882812 58.2705078125 464.235351562 58.2705078125 471.622070312 c 0
 58.2705078125 476.486328125 55.3232421875 481.189453125 51.2431640625 482.8359375 c 0
 40.12890625 487.3203125 58.2705078125 496.486328125 85.296875 500.04296875 c 0
 98.9189453125 501.834960938 121.513671875 505.211914062 136.6484375 507.717773438 c 0
EndSplineSet
EndChar

StartChar: W
Encoding: 87 87 59
Width: 614
VWidth: 5
Flags: W
VStem: 50.3926 41.6348<15.2766 73.2598 135.127 248.355> 70.9727 20.0322<548.27 569.996> 329.352 33.5801<241.917 384.208>
LayerCount: 2
Back
Fore
SplineSet
283.86328125 611.486328125 m 0x60
 291.352539062 625.266601562 309.748046875 623.377929688 315.465820312 608.243164062 c 0
 318.02734375 601.461914062 320.162109375 585 320.162109375 572.02734375 c 0
 320.162109375 558.990234375 327.586914062 515.270507812 336.594726562 475.270507812 c 0
 356.799804688 385.541015625 367.41015625 289.28515625 362.931640625 236.3515625 c 0
 359.409179688 194.729492188 365.40625 169.0703125 372.026367188 197.432617188 c 0
 379.684570312 230.23828125 437.329101562 413.108398438 463.8671875 488.784179688 c 0
 486.802734375 554.189453125 493.80078125 567.193359375 509.3515625 573.311523438 c 0
 517.473632812 576.5078125 537.729492188 585.287109375 555.02734375 593.108398438 c 0
 579.891601562 604.3515625 587.458984375 605.810546875 592.865234375 600.405273438 c 0
 598.270507812 595 596.918945312 591.541015625 586.108398438 583.108398438 c 0
 578.541015625 577.205078125 567.243164062 567.9296875 560.432617188 562.02734375 c 0
 553.946289062 556.405273438 543.477539062 550.01171875 538 548.326171875 c 0
 523.694335938 543.924804688 503.205078125 507.162109375 489.751953125 461.756835938 c 0
 483.5859375 440.946289062 468.935546875 394.729492188 457.197265625 359.053710938 c 0
 424.825195312 260.67578125 403.521484375 190.747070312 391.327148438 142.837890625 c 0
 363.670898438 34.189453125 352.205078125 9.7138671875 336.377929688 25.541015625 c 0
 332.965820312 28.953125 330.375 87.4326171875 329.3515625 184.189453125 c 0
 328.458984375 268.513671875 325.055664062 352.018554688 321.784179688 369.865234375 c 0
 318.490234375 387.827148438 313.515625 417.97265625 310.6328125 437.432617188 c 0
 299.822265625 510.405273438 297.91015625 518.853515625 292.594726562 517.162109375 c 0
 289.310546875 516.1171875 283.380859375 499.053710938 279.3515625 479.053710938 c 0
 275.325195312 459.072265625 265.99609375 425.270507812 258.541015625 403.6484375 c 0
 251.068359375 381.979492188 238.10546875 343.918945312 229.544921875 318.513671875 c 0
 210.66015625 262.466796875 164.3984375 163.377929688 128.34765625 101.756835938 c 0
 113.80078125 76.8916015625 97.3701171875 44.6142578125 92.02734375 30.4052734375 c 0
 74.2646484375 -16.8310546875 51.384765625 -8.513671875 50.392578125 45.541015625 c 0xa0
 49.7158203125 82.4228515625 57.5234375 158.513671875 72.689453125 262.837890625 c 0
 83.8486328125 339.594726562 87.935546875 499.701171875 79.1748046875 516.891601562 c 0
 76.494140625 522.151367188 72.7265625 535.810546875 70.97265625 546.622070312 c 0
 68.255859375 563.377929688 69.5263671875 567.19140625 78.810546875 570.134765625 c 0
 84.7568359375 572.020507812 90.4072265625 572.897460938 91.0048828125 572.02734375 c 0
 100.961914062 557.517578125 112 509.865234375 116.044921875 463.918945312 c 0
 121.345703125 403.716796875 115.076171875 318.513671875 96.9921875 205 c 0
 92.513671875 176.891601562 88.93359375 141.415039062 89.0810546875 126.622070312 c 0
 89.3349609375 101.215820312 89.8544921875 100.243164062 97.744140625 110.405273438 c 0
 125.807617188 146.555664062 215.16015625 357.432617188 229.440429688 421.215820312 c 0
 231.739257812 431.486328125 236.270507812 447.547851562 239.3515625 456.3515625 c 0
 242.47265625 465.270507812 248.579101562 487.162109375 252.919921875 505 c 0
 265.811523438 557.97265625 278.487304688 601.59375 283.86328125 611.486328125 c 0x60
EndSplineSet
EndChar

StartChar: C
Encoding: 67 67 60
Width: 417
VWidth: -20
Flags: W
VStem: 387.757 4.86523<116.771 122.019>
LayerCount: 2
Back
Fore
SplineSet
241.810546875 505.912109375 m 0
 260.385742188 513.264648438 316.405273438 505.977539062 339.108398438 493.254882812 c 0
 367.756835938 477.200195312 386.131835938 447.327148438 375.189453125 434.594726562 c 0
 371.008789062 429.729492188 366.57421875 422.3984375 365.053710938 417.837890625 c 0
 363.38671875 412.834960938 357.900390625 419.458984375 350.729492188 435.134765625 c 0
 340.302734375 457.928710938 336.134765625 461.485351562 310.189453125 469.729492188 c 0
 291.810546875 475.569335938 274.375 477.62109375 262.3515625 475.357421875 c 0
 220.541015625 467.487304688 164.364257812 396.756835938 130.802734375 309.729492188 c 0
 119.963867188 281.622070312 107.323242188 249.815429688 102.876953125 239.458984375 c 0
 90.5751953125 210.810546875 82.6005859375 117.982421875 90.1533203125 91.3515625 c 0
 97.2041015625 66.486328125 109.377929688 49.44140625 126.67578125 40.2158203125 c 0
 143.162109375 31.423828125 186.134765625 32.2919921875 219.108398438 42.083984375 c 0
 234.225585938 46.5732421875 269.377929688 53.6875 296.946289062 57.837890625 c 0
 332.081054688 63.126953125 348.84375 68.0908203125 352.622070312 74.32421875 c 0
 355.5390625 79.1376953125 364.869140625 91.0810546875 372.891601562 100.270507812 c 0
 380.9140625 109.458984375 387.756835938 119.412109375 387.756835938 121.891601562 c 0
 387.756835938 124.6484375 389.703125 125.296875 392.622070312 123.513671875 c 0
 395.438476562 121.791992188 394.51171875 107.567382812 390.421875 89.7294921875 c 0
 380.98828125 48.5908203125 363.432617188 32.8720703125 316.946289062 23.9423828125 c 0
 298.02734375 20.30859375 267.41015625 13.5859375 249.377929688 9.10546875 c 0
 171.541015625 -10.2314453125 95.7109375 3.115234375 76.916015625 39.458984375 c 0
 38.9384765625 112.897460938 46.0615234375 204.865234375 98.8974609375 323.243164062 c 0
 102.999023438 332.432617188 108.775390625 346.486328125 112.227539062 355.67578125 c 0
 124.616210938 388.6484375 178.155273438 460.798828125 205.594726562 481.498046875 c 0
 221.270507812 493.32421875 237.2890625 504.122070312 241.810546875 505.912109375 c 0
EndSplineSet
EndChar

StartChar: H
Encoding: 72 72 61
Width: 458
VWidth: 0
Flags: W
HStem: 315.523 32.1816<124.811 321.516 363.353 432.606>
VStem: 73.9746 37.6914<335.201 505.283> 315.399 29.5654<354.88 557.401> 324.098 33.874<33.2344 295.033 347.705 548.098>
LayerCount: 2
Back
Fore
SplineSet
65.42578125 538.166015625 m 0xd0
 83.4970703125 545.662109375 90.9541015625 530.713867188 97.5849609375 473.701171875 c 0
 101.024414062 444.120117188 104.7109375 401.669921875 105.775390625 379.366210938 c 0
 106.866210938 356.506835938 110.033203125 337.190429688 113.033203125 335.08984375 c 0
 116.052734375 332.975585938 133.329101562 336.719726562 152.948242188 343.740234375 c 0
 193.545898438 358.267578125 217.109375 359.634765625 277.368164062 350.963867188 c 0
 301.584960938 347.478515625 322.28515625 346.016601562 323.500976562 347.705078125 c 0
 328.557617188 354.731445312 323.189453125 455.30078125 315.399414062 499.484375 c 0
 309.485351562 533.021484375 309.150390625 547.411132812 314.145507812 553.2890625 c 0
 322.209960938 562.779296875 343.087890625 560.352539062 344.96484375 549.706054688 c 0xe0
 346.567382812 540.619140625 358.5078125 384.685546875 359.521484375 359.615234375 c 0
 360.272460938 341.038085938 358.606445312 341.609375 410.081054688 342.287109375 c 0
 425.961914062 342.49609375 431.311523438 340.165039062 432.672851562 332.446289062 c 0
 434.885742188 319.8984375 416.731445312 310.793945312 386.784179688 309.4296875 c 0
 368.270507812 308.587890625 364.559570312 306.549804688 362.048828125 295.841796875 c 0
 358.40625 280.30859375 354.532226562 153.455078125 356.806640625 124.216796875 c 0
 357.744140625 112.184570312 358.26171875 89.345703125 357.971679688 72.8271484375 c 0
 357.682617188 56.310546875 358.995117188 34.341796875 360.923828125 23.400390625 c 0
 365.5234375 -2.68359375 354.084960938 -17.8935546875 339.984375 -4.4423828125 c 0
 324.392578125 10.4326171875 320.651367188 66.2470703125 324.09765625 232.615234375 c 0
 325.796875 314.69921875 328.748046875 309.995117188 272.090820312 315.5234375 c 0
 232.846679688 319.3515625 212.892578125 318.181640625 168.328125 309.436523438 c 0
 138.088867188 303.502929688 112.481445312 297.499023438 111.666015625 296.15234375 c 0
 110.438476562 294.125 112.032226562 268.772460938 120.776367188 151.208007812 c 0
 121.997070312 134.802734375 125.192382812 99.84375 127.88671875 73.423828125 c 0
 131.735351562 35.6806640625 130.958984375 23.8046875 124.248046875 17.7939453125 c 0
 104.32421875 -0.0498046875 99.1826171875 23.90234375 82.8984375 210.39453125 c 0
 78.6025390625 259.584960938 74.38671875 304.381835938 73.498046875 310.279296875 c 0
 72.611328125 316.161132812 72.826171875 335.958984375 73.974609375 354.274414062 c 0
 75.1181640625 372.528320312 71.658203125 420.280273438 66.3173828125 459.956054688 c 0
 60.9765625 499.630859375 56.6083984375 532.837890625 56.6513671875 533.447265625 c 0
 56.693359375 534.036132812 60.822265625 536.256835938 65.42578125 538.166015625 c 0xd0
EndSplineSet
EndChar

StartChar: three
Encoding: 51 51 62
Width: 511
VWidth: -95
Flags: W
HStem: 548.514 29.5352<367.44 414.639>
VStem: 63.5215 14.0566<75.4196 97.4967>
LayerCount: 2
Back
Fore
SplineSet
301.162109375 563.022460938 m 0
 337.377929688 579.275390625 345.162109375 580.877929688 374.134765625 578.048828125 c 0
 435.756835938 572.029296875 457.918945312 556.28125 457.918945312 518.513671875 c 0
 457.918945312 500.405273438 435.577148438 447.703125 412.548828125 411.486328125 c 0
 402.581054688 395.810546875 388.100585938 371.423828125 379.810546875 356.3515625 c 0
 371.649414062 341.512695312 355.438476562 316.891601562 343.865234375 301.756835938 c 0
 332.291015625 286.622070312 322.784179688 271.385742188 322.784179688 267.97265625 c 0
 322.784179688 263.889648438 335.486328125 261.756835938 359.810546875 261.756835938 c 0
 393.865234375 261.756835938 398.833984375 260.237304688 421.703125 242.837890625 c 0
 439 229.676757812 448.234375 217.83203125 452.043945312 203.918945312 c 0
 458.502929688 180.328125 455.948242188 174.729492188 416.280273438 125.541015625 c 0
 381.944335938 82.96484375 368.729492188 73.220703125 290.3515625 32.685546875 c 0
 207.6484375 -10.0869140625 80.7978515625 -5.78515625 70.638671875 40.134765625 c 0
 69.0078125 47.505859375 65.19140625 60.4052734375 62.2431640625 68.513671875 c 0
 58.3125 79.32421875 58.6611328125 85.58984375 63.521484375 91.486328125 c 0
 71.9873046875 101.756835938 81.517578125 101.756835938 77.578125 91.486328125 c 0
 75.919921875 87.162109375 77.802734375 81.37109375 81.97265625 77.97265625 c 0
 85.8447265625 74.818359375 90.79296875 65.810546875 92.513671875 58.7841796875 c 0
 94.63671875 50.115234375 100.891601562 44.3271484375 110.622070312 42.02734375 c 0
 118.729492188 40.1103515625 127.943359375 37.0751953125 130.891601562 35.3486328125 c 0
 153.604492188 22.0478515625 268.189453125 52.0703125 327.108398438 86.759765625 c 0
 383.32421875 119.858398438 421.9921875 170.434570312 416.681640625 203.918945312 c 0
 413.594726562 223.377929688 413.594726562 223.377929688 376.296875 229.666992188 c 0
 340.081054688 235.7734375 303.99609375 234.75390625 273.053710938 226.751953125 c 0
 261.162109375 223.676757812 257.918945312 224.806640625 257.918945312 232.02734375 c 0
 257.918945312 240.287109375 298.400390625 299.594726562 335.400390625 345.541015625 c 0
 355.803710938 370.877929688 407.239257812 467.162109375 417.696289062 499.594726562 c 0
 427.108398438 528.784179688 427.108398438 528.784179688 414.946289062 538.513671875 c 0
 408.458984375 543.703125 397.360351562 548.369140625 391.162109375 548.513671875 c 0
 384.59375 548.666015625 374.134765625 549.838867188 367.108398438 551.209960938 c 0
 353.366210938 553.890625 297.377929688 534.298828125 268.729492188 516.782226562 c 0
 244.946289062 502.241210938 230.891601562 501.6796875 230.891601562 515.270507812 c 0
 230.891601562 527.619140625 247.6484375 539.006835938 301.162109375 563.022460938 c 0
EndSplineSet
EndChar

StartChar: six
Encoding: 54 54 63
Width: 413
VWidth: -105
Flags: W
HStem: 522.027 65.2969<269.234 298.426>
VStem: 160.324 91.8916<466.424 506.275>
LayerCount: 2
Back
Fore
SplineSet
265.729492188 584.106445312 m 0
 285.729492188 593.336914062 284.061523438 593.153320312 294.918945312 587.32421875 c 0
 315.012695312 576.536132812 312.756835938 522.02734375 292.215820312 522.02734375 c 0
 285.3984375 522.02734375 252.215820312 482.567382812 252.215820312 474.458984375 c 0
 252.215820312 471.432617188 255.189453125 467.865234375 258.97265625 466.3515625 c 0
 262.637695312 464.885742188 258.432617188 464.01953125 249.784179688 464.458984375 c 0
 235.309570312 465.1953125 232.19140625 462.02734375 216 430.134765625 c 0
 206.120117188 410.67578125 194.423828125 382.94140625 189.784179688 367.97265625 c 0
 185.091796875 352.837890625 177.481445312 333.9296875 172.486328125 325 c 2
 163.567382812 309.053710938 l 1
 187.891601562 328.388671875 l 2
 217.622070312 352.020507812 233.064453125 356.1171875 253.296875 345.741210938 c 0
 266.473632812 338.984375 271.946289062 338.780273438 287.622070312 344.458984375 c 0
 305.791992188 351.04296875 306.810546875 350.688476562 327.3515625 330.643554688 c 0
 348.6953125 309.813476562 352.975585938 303.108398438 369.083984375 265.270507812 c 0
 382.890625 232.837890625 373.448242188 130.732421875 354.537109375 107.97265625 c 0
 350.587890625 103.219726562 331.405273438 91.412109375 311.946289062 81.7568359375 c 0
 292.486328125 72.1015625 260.716796875 53.154296875 241.405273438 39.6875 c 0
 160.865234375 -16.4794921875 151.381835938 -15.814453125 130.999023438 47.4326171875 c 0
 122.986328125 72.296875 110.516601562 105.188476562 103.02734375 121.215820312 c 0
 95.7021484375 136.891601562 89.9091796875 153.10546875 90.3779296875 156.622070312 c 0
 92.541015625 172.837890625 89.5390625 187.293945312 84.6484375 184.219726562 c 0
 75.8125 178.666015625 72.5224609375 195.541015625 79.806640625 209.053710938 c 0
 87.3515625 223.051757812 100.693359375 295 102.459960938 331.215820312 c 0
 103.119140625 344.729492188 108.599609375 360.591796875 116 370.405273438 c 0
 122.9296875 379.594726562 127.116210938 389.165039062 125.458984375 392.02734375 c 0
 123.67578125 395.108398438 124.541015625 398.458984375 127.622070312 400.405273438 c 0
 130.455078125 402.194335938 131.423828125 407.162109375 129.784179688 411.486328125 c 0
 128.143554688 415.810546875 129.4765625 419.32421875 132.756835938 419.32421875 c 0
 140.489257812 419.32421875 160.32421875 451.215820312 160.32421875 463.6484375 c 0
 160.32421875 468.571289062 163.209960938 479.865234375 166.541015625 487.97265625 c 0
 169.87109375 496.081054688 172.254882812 505.241210938 171.67578125 507.703125 c 0
 171.078125 510.2421875 179.784179688 510.846679688 191.134765625 509.053710938 c 0
 209.513671875 506.15234375 210.708007812 506.569335938 202.486328125 513.017578125 c 0
 191.134765625 521.920898438 190.30859375 527.432617188 200.32421875 527.432617188 c 0
 204.228515625 527.432617188 213.837890625 533.434570312 221.946289062 540.9375 c 0
 238.703125 556.444335938 242.31640625 557.662109375 238.0078125 546.3515625 c 0
 236.360351562 542.02734375 237.693359375 538.243164062 240.865234375 538.243164062 c 0
 253.296875 538.243164062 254.344726562 555.924804688 242.486328125 565.607421875 c 0
 228.432617188 577.083007812 227.466796875 583.235351562 240.32421875 579.377929688 c 0
 245.53125 577.81640625 256.541015625 579.865234375 265.729492188 584.106445312 c 0
322.662109375 286.891601562 m 0
 316.668945312 296.622070312 308.481445312 305.94921875 304.6484375 307.413085938 c 0
 295.74609375 310.8125 267.940429688 299.32421875 258.904296875 288.513671875 c 0
 252.841796875 281.259765625 254.377929688 277.772460938 268.432617188 266.891601562 c 0
 283.567382812 255.174804688 284.326171875 253.186523438 276.270507812 246.3515625 c 0
 268.908203125 240.10546875 264.377929688 240.010742188 250.32421875 245.810546875 c 0
 241.134765625 249.603515625 227.69921875 254.08203125 221.134765625 255.541015625 c 0
 214.6484375 256.982421875 208.97265625 260.765625 208.97265625 263.6484375 c 0
 208.97265625 266.53125 205.189453125 267.666992188 200.865234375 266.081054688 c 0
 196.541015625 264.495117188 192.756835938 265.504882812 192.756835938 268.243164062 c 0
 192.756835938 271.177734375 190.32421875 273.377929688 187.081054688 273.377929688 c 0
 183.837890625 273.377929688 182.563476562 269.32421875 184.108398438 263.918945312 c 0
 185.99609375 257.3125 181.67578125 251.19921875 169.784179688 243.6484375 c 0
 158.594726562 236.543945312 151.044921875 226.3515625 147.764648438 213.918945312 c 0
 141.203125 189.053710938 141.530273438 130.318359375 148.330078125 112.296875 c 0
 151.373046875 104.235351562 156.741210938 85 160.32421875 69.32421875 c 0
 163.907226562 53.6484375 168.98828125 39.599609375 171.67578125 37.9384765625 c 0
 177.833007812 34.1328125 230.2890625 65.2705078125 241.396484375 79.32421875 c 0
 245.893554688 85.0146484375 267.3515625 98.6337890625 289.513671875 109.865234375 c 0
 324.6484375 127.669921875 330.430664062 132.764648438 337.055664062 151.756835938 c 0
 348.369140625 184.189453125 340.518554688 257.899414062 322.662109375 286.891601562 c 0
223.567382812 302.567382812 m 0
 225.274414062 304.274414062 221.946289062 305.5546875 216.541015625 305.270507812 c 0
 210.053710938 304.928710938 208.859375 303.734375 213.296875 302.02734375 c 0
 217.081054688 300.571289062 221.821289062 300.821289062 223.567382812 302.567382812 c 0
165.458984375 259.865234375 m 0
 169.513671875 264.729492188 170.053710938 267.97265625 166.810546875 267.97265625 c 0
 160.32421875 267.97265625 152.396484375 258.063476562 156 254.458984375 c 0
 157.44140625 253.017578125 161.85546875 255.541015625 165.458984375 259.865234375 c 0
EndSplineSet
EndChar

StartChar: T
Encoding: 84 84 64
Width: 703
VWidth: -5
Flags: W
HStem: 508.243 38.1084<369.449 628.664> 515.731 38.5811<103.085 325.656>
VStem: 338.06 20.7246<576.526 592.558> 651.916 28.1758<450.127 484.819>
LayerCount: 2
Back
Fore
SplineSet
56.9404296875 585.810546875 m 0x70
 63.9248046875 598.454101562 78.5830078125 595 86.7626953125 578.784179688 c 0
 100.102539062 552.338867188 113.377929688 550.038085938 227.97265625 554.3125 c 0x70
 321.486328125 557.799804688 334.659179688 559.432617188 344.729492188 568.784179688 c 0
 354.458984375 577.818359375 354.65234375 578.784179688 346.081054688 575.541015625 c 0
 338.186523438 572.553710938 336.498046875 573.918945312 338.059570312 582.02734375 c 0
 340.87109375 596.622070312 358.784179688 598.958007812 358.784179688 584.729492188 c 0
 358.784179688 578.243164062 361.100585938 573.377929688 364.189453125 573.377929688 c 0
 367.034179688 573.377929688 369.594726562 568.513671875 369.594726562 563.108398438 c 0
 369.594726562 549.528320312 391.215820312 546.3515625 483.6484375 546.3515625 c 0
 569.594726562 546.3515625 601.864257812 541.197265625 644.189453125 520.709960938 c 0
 678.784179688 503.96484375 689.155273438 486.69921875 680.091796875 460.946289062 c 0
 673.051757812 440.946289062 654.184570312 440.583984375 651.916015625 460.405273438 c 0
 649.485351562 481.640625 633.377929688 493.049804688 595.541015625 500.334960938 c 0
 576.622070312 503.977539062 559.083984375 507.4921875 556.081054688 508.243164062 c 0xb0
 553.109375 508.986328125 509.053710938 509.3515625 458.243164062 509.053710938 c 2
 365.810546875 508.513671875 l 1
 362.02734375 490.946289062 l 2
 359.946289062 481.284179688 355.932617188 449.053710938 353.108398438 419.32421875 c 0
 350.271484375 389.465820312 343.326171875 339.865234375 337.591796875 308.513671875 c 0
 312.48046875 171.215820312 304.405273438 124.021484375 296.431640625 67.97265625 c 0
 291.741210938 35 286.046875 6.5869140625 283.6484375 4.189453125 c 0
 276.72265625 -2.7373046875 262.553710938 6.3515625 256.682617188 21.486328125 c 0
 246.6171875 47.4326171875 247.108398438 56.8203125 259.791992188 80.9462890625 c 0
 266.61328125 93.9189453125 272.296875 110.380859375 272.296875 117.162109375 c 0
 272.296875 123.9765625 280.938476562 180.405273438 291.416992188 242.02734375 c 0
 321.751953125 420.405273438 332.5 504.52734375 325.810546875 511.215820312 c 0
 322.791992188 514.234375 302.02734375 516.228515625 278.784179688 515.731445312 c 0
 173.918945312 513.48828125 112.806640625 515.1640625 102.567382812 520.564453125 c 0
 71.7568359375 536.814453125 48.3583984375 570.2734375 56.9404296875 585.810546875 c 0x70
EndSplineSet
EndChar

StartChar: G
Encoding: 71 71 65
Width: 433
VWidth: -40
Flags: W
HStem: 441.081 10.8105<357.867 368.674>
VStem: 357.865 10.8105<441.083 451.89> 369.661 34.8037<112.469 219.679>
LayerCount: 2
Back
Fore
SplineSet
357.865234375 446.486328125 m 0
 357.865234375 449.729492188 360.02734375 451.891601562 363.270507812 451.891601562 c 0
 366.513671875 451.891601562 368.67578125 449.729492188 368.67578125 446.486328125 c 0
 368.67578125 443.243164062 366.513671875 441.081054688 363.270507812 441.081054688 c 0
 360.02734375 441.081054688 357.865234375 443.243164062 357.865234375 446.486328125 c 0
367.053710938 505.61328125 m 0
 378.946289062 512.473632812 390.774414062 512.8125 400.567382812 506.573242188 c 0
 410.358398438 500.3359375 405.97265625 481.133789062 395.162109375 482.90625 c 0
 390.405273438 483.686523438 382.134765625 479.458984375 376.784179688 473.513671875 c 0
 368.02734375 463.784179688 367.97265625 462.703125 376.243164062 462.703125 c 0
 381.6484375 462.703125 383.985351562 460.365234375 381.918945312 457.02734375 c 0
 379.645507812 453.354492188 375.162109375 454.212890625 369.215820312 459.458984375 c 0
 360.893554688 466.802734375 354.622070312 466.118164062 302.729492188 452.205078125 c 0
 230.837890625 432.9296875 198.719726562 415.55078125 155.162109375 372.353515625 c 0
 91.103515625 308.827148438 79.5810546875 284.865234375 73.583984375 202.703125 c 0
 70.70703125 163.28515625 75.7509765625 131.3515625 93.904296875 74.0537109375 c 0
 100.43359375 53.4462890625 123.810546875 40.9873046875 156.243164062 40.830078125 c 0
 184.150390625 40.6953125 265.97265625 60.6845703125 309.215820312 78.2001953125 c 0
 337.32421875 89.5859375 346.1953125 96.2158203125 353.571289062 111.3515625 c 0
 364.8984375 134.594726562 375.364257812 196.822265625 369.661132812 207.02734375 c 0
 367.298828125 211.25390625 352.189453125 221.15625 335.432617188 229.458984375 c 0
 309.090820312 242.51171875 301.377929688 243.928710938 272.189453125 241.081054688 c 0
 241.918945312 238.127929688 237.038085938 235.85546875 217.61328125 215.67578125 c 0
 187.956054688 184.865234375 141.6484375 176.95703125 141.6484375 202.703125 c 0
 141.6484375 215.384765625 197.865234375 261.622070312 233 277.837890625 c 0
 266.21875 293.169921875 286.513671875 292.30078125 328.67578125 273.7421875 c 0
 395.162109375 244.4765625 401.899414062 237.921875 404.46484375 200 c 0
 405.606445312 183.134765625 402.698242188 152.97265625 397.8984375 131.891601562 c 0
 383.303710938 67.7880859375 344.891601562 40.822265625 230.837890625 14.611328125 c 0
 150.296875 -3.8974609375 106.430664062 0.908203125 78.0361328125 31.3515625 c 0
 70.52734375 39.40234375 59.8603515625 65.4052734375 51.6484375 95.67578125 c 0
 39.5185546875 140.389648438 38.25390625 152.97265625 41.1083984375 200.541015625 c 0
 42.8916015625 230.270507812 47.7509765625 267.243164062 51.9052734375 282.703125 c 0
 72.6923828125 360.049804688 176.243164062 452.611328125 274.081054688 481.30078125 c 0
 291.918945312 486.53125 312.3515625 493.608398438 319.486328125 497.02734375 c 0
 326.513671875 500.39453125 338.157226562 502.5 344.891601562 501.622070312 c 0
 351.918945312 500.705078125 361.5546875 502.440429688 367.053710938 505.61328125 c 0
EndSplineSet
EndChar

StartChar: g
Encoding: 103 103 66
Width: 421
VWidth: -140
Flags: W
HStem: -194.054 33.7744<94.2298 251.551>
LayerCount: 2
Back
Fore
SplineSet
351.68359375 330.270507812 m 0
 379.985351562 374.3359375 408.557617188 364.865234375 400.6015625 314.053710938 c 0
 396.9453125 290.708007812 383.0703125 265.405273438 335.983398438 196.215820312 c 0
 325.315429688 180.541015625 312.081054688 160.591796875 306.756835938 152.162109375 c 2
 297.02734375 136.756835938 l 1
 322.432617188 97.837890625 l 2
 346.426757812 61.0810546875 347.670898438 57.357421875 344.83203125 30.810546875 c 0
 341.981445312 4.1630859375 310.139648438 -103.243164062 294.673828125 -138.377929688 c 0
 290.575195312 -147.6875 279.729492188 -163.784179688 270.270507812 -174.594726562 c 2
 253.243164062 -194.053710938 l 1
 197.567382812 -194.053710938 l 2
 144.594726562 -194.053710938 95.791015625 -185.865234375 71.6220703125 -172.921875 c 0
 44.0537109375 -158.158203125 33.1494140625 -113.674804688 54.32421875 -102.362304688 c 0
 68.8857421875 -94.5830078125 75.9462890625 -99.458984375 75.9462890625 -117.296875 c 0
 75.9462890625 -145.614257812 135.946289062 -170.817382812 182.432617188 -162.028320312 c 0
 194.865234375 -159.677734375 211.713867188 -158.909179688 220.810546875 -160.279296875 c 0
 249.154296875 -164.545898438 263.899414062 -136.215820312 308.73828125 8.6484375 c 0
 316.64453125 34.189453125 315.008789062 44.32421875 298.2734375 73.513671875 c 0
 274.100585938 115.67578125 269.208007812 118.104492188 245.67578125 99.62109375 c 0
 160.810546875 32.962890625 106.970703125 16.6767578125 71.0810546875 46.806640625 c 0
 43.7734375 69.7314453125 37.1865234375 87.02734375 42.998046875 120.541015625 c 0
 49.84375 160.016601562 58.4970703125 181.081054688 84.9697265625 222.703125 c 0
 121.754882812 280.541015625 170.283203125 318.821289062 224.594726562 332.844726562 c 0
 263.513671875 342.893554688 279.837890625 340.15625 306.215820312 319.161132812 c 0
 317.02734375 310.556640625 328.079101562 303.243164062 330.270507812 303.243164062 c 0
 332.541015625 303.243164062 341.961914062 315.134765625 351.68359375 330.270507812 c 0
287.296875 294.420898438 m 0
 267.084960938 311.891601562 194.274414062 304.865234375 182.68359375 284.32421875 c 0
 180.243164062 280 175.081054688 276.114257812 171.622070312 275.999023438 c 0
 163.295898438 275.71875 97.5673828125 192.432617188 97.5673828125 182.162109375 c 0
 97.5673828125 177.837890625 94.32421875 171.930664062 90 168.377929688 c 0
 85.8720703125 164.987304688 79.484375 150 75.9462890625 135.405273438 c 0
 70.048828125 111.081054688 70.5322265625 106.928710938 81.263671875 89.7294921875 c 0
 101.140625 57.8720703125 128.377929688 58.251953125 178.108398438 91.083984375 c 0
 210 112.138671875 275.946289062 172.071289062 275.946289062 180 c 0
 275.946289062 182.67578125 280.624023438 194.594726562 286.340820312 206.486328125 c 0
 299.334960938 233.513671875 299.87890625 283.544921875 287.296875 294.420898438 c 0
EndSplineSet
EndChar

StartChar: period
Encoding: 46 46 67
Width: 254
VWidth: 70
Flags: W
HStem: -45.3516 15.1357<93.398 105.424>
VStem: 143.567 50.8105<71.5855 121.139>
LayerCount: 2
Back
Fore
SplineSet
93.296875 -37.837890625 m 0
 94.822265625 -31.8916015625 98.1201171875 -28.5693359375 100.865234375 -30.2158203125 c 0
 108.118164062 -34.568359375 106.810546875 -41.8916015625 98.162109375 -45.3515625 c 0
 92.7294921875 -47.5244140625 91.3564453125 -45.4052734375 93.296875 -37.837890625 c 0
150.053710938 117.567382812 m 0
 160.525390625 128.0390625 175.928710938 124.594726562 181.4765625 110.541015625 c 0
 184.463867188 102.97265625 189.30859375 97.02734375 192.486328125 97.02734375 c 0
 196.310546875 97.02734375 196.927734375 88.6484375 194.377929688 71.3515625 c 0
 192.307617188 57.296875 189.983398438 37.1123046875 189.243164062 26.7568359375 c 0
 188.509765625 16.486328125 187.64453125 5.984375 187.3515625 3.7841796875 c 0
 187.0546875 1.5576171875 174.377929688 -6.5810546875 159.243164062 -14.2626953125 c 0
 129.513671875 -29.3525390625 106.784179688 -28.80859375 88.4326171875 -12.56640625 c 0
 74.0927734375 0.125 76.541015625 11.9384765625 97.0810546875 29.173828125 c 0
 107.3515625 37.791015625 114.38671875 47.3369140625 113.02734375 50.810546875 c 0
 111.6953125 54.21484375 118.052734375 67.296875 127.081054688 79.7294921875 c 0
 136.109375 92.162109375 143.567382812 104.388671875 143.567382812 106.756835938 c 0
 143.567382812 109.279296875 146.270507812 113.784179688 150.053710938 117.567382812 c 0
138.162109375 32.703125 m 0
 138.162109375 44.5947265625 124.493164062 46.6513671875 120.197265625 35.4052734375 c 0
 116.892578125 26.7568359375 128.581054688 13.3916015625 134.377929688 19.189453125 c 0
 136.48046875 21.291015625 138.162109375 27.296875 138.162109375 32.703125 c 0
EndSplineSet
EndChar

StartChar: zero
Encoding: 48 48 68
Width: 437
VWidth: -50
Flags: W
LayerCount: 2
Back
Fore
SplineSet
199.918945312 533.440429688 m 0
 222.622070312 548.369140625 244.489257812 560.810546875 248.02734375 560.810546875 c 0
 255.522460938 560.810546875 251.270507812 538.541015625 242.622070312 532.501953125 c 0
 235.234375 527.34375 258.296875 507.946289062 277.215820312 503.405273438 c 0
 347.486328125 486.541015625 358.38671875 479.05859375 382.587890625 431.081054688 c 0
 409.521484375 377.6875 409.625976562 340.810546875 383.05859375 265.134765625 c 0
 372.431640625 234.865234375 363.703125 206.586914062 363.703125 202.432617188 c 0
 363.703125 189.51171875 318.630859375 107.837890625 294.19921875 76.486328125 c 0
 273.905273438 50.4443359375 263.162109375 42.4453125 224.784179688 24.8017578125 c 0
 177.756835938 3.1826171875 146.090820312 -1.37890625 124.243164062 10.31640625 c 0
 106.508789062 19.810546875 99.986328125 30.541015625 87.9599609375 70 c 0
 71.5791015625 123.750976562 71.9111328125 267.837890625 88.5537109375 327.296875 c 0
 100.204101562 368.918945312 125.349609375 427.047851562 143.037109375 453.243164062 c 0
 148.51171875 461.3515625 151.478515625 471.44140625 149.711914062 475.946289062 c 0
 144.078125 490.313476562 157.215820312 505.358398438 199.918945312 533.440429688 c 0
247.486328125 489.458984375 m 0
 238.296875 492.522460938 227.522460938 496.375976562 222.622070312 498.352539062 c 0
 209.922851562 503.47265625 168.486328125 446.756835938 137.932617188 382.432617188 c 0
 122.784179688 350.541015625 104.6171875 282.526367188 104.00390625 255.405273438 c 0
 100.884765625 117.567382812 108.229492188 68.3642578125 135.053710938 47.3828125 c 0
 153.333984375 33.0849609375 157.756835938 33.4560546875 208.02734375 53.5078125 c 0
 239.918945312 66.228515625 255.521484375 76.1513671875 269.65625 92.703125 c 0
 295.288085938 122.715820312 326.698242188 186.756835938 344.155273438 244.594726562 c 0
 352.3125 271.622070312 360.73046875 298.047851562 363.096679688 304.053710938 c 0
 370.151367188 321.961914062 370.2734375 375.946289062 363.307617188 397.02734375 c 0
 352.76953125 428.918945312 325.604492188 469.586914062 315.594726562 468.45703125 c 0
 307.306640625 467.521484375 299.377929688 469.69140625 274.513671875 479.701171875 c 0
 268.387695312 482.16796875 256.67578125 486.396484375 247.486328125 489.458984375 c 0
EndSplineSet
EndChar

StartChar: braceright
Encoding: 125 125 69
Width: 446
VWidth: 0
Flags: W
HStem: 22.4678 35.2783<217.569 276.688> 289.579 40.7715<364.062 420.596> 470.988 22.0059<162.324 222.172>
LayerCount: 2
Back
Fore
SplineSet
227.236328125 505.138671875 m 0
 246.26953125 510.861328125 276.716796875 517.03515625 295.479492188 518.9765625 c 0
 324.516601562 521.982421875 331.40625 520.764648438 343.704101562 510.4453125 c 0
 355.0625 500.9140625 358.521484375 493.022460938 360.3125 472.559570312 c 0
 362.291015625 449.942382812 360.35546875 444.158203125 344.828125 426.276367188 c 0
 320.672851562 398.461914062 275.118164062 329.970703125 275.775390625 322.458007812 c 0
 276.049804688 319.322265625 280.490234375 318.186523438 285.209960938 320.045898438 c 0
 322.453125 334.70703125 345.20703125 340.217773438 351.629882812 336.129882812 c 0
 355.703125 333.537109375 369.991210938 330.909179688 383.063476562 330.350585938 c 0
 413.563476562 329.044921875 426.032226562 319.489257812 418.805664062 302.958007812 c 0
 415.140625 294.573242188 408.510742188 290.662109375 396.125976562 289.579101562 c 0
 382.8828125 288.419921875 374.510742188 282.803710938 361.711914062 266.4921875 c 0
 338.400390625 236.779296875 318.120117188 223.067382812 294.418945312 220.994140625 c 0
 275.033203125 219.297851562 268.490234375 212.373046875 280.513671875 206.278320312 c 0
 293.116210938 199.890625 310.52734375 163.258789062 317.438476562 128.594726562 c 0
 323.709960938 97.1298828125 323.317382812 88.6923828125 314.466796875 64.849609375 c 0
 302.184570312 31.76171875 283.115234375 18.455078125 253.729492188 22.4677734375 c 0
 230.1953125 25.6826171875 163.051757812 16.9833984375 130.329101562 6.482421875 c 0
 103.939453125 -1.986328125 92.3818359375 -0.1279296875 91.25390625 12.7646484375 c 0
 90.7958984375 17.99609375 86.5673828125 26.462890625 81.38671875 32.521484375 c 0
 76.30859375 38.45703125 65.3486328125 54.4501953125 56.4755859375 68.8662109375 c 0
 27.0048828125 116.75 38.4208984375 136.744140625 70.8232421875 93.99609375 c 0
 80.8525390625 80.765625 92.275390625 66.734375 96.390625 62.591796875 c 0
 100.57421875 58.3798828125 107.102539062 51.591796875 111.313476562 47.076171875 c 0
 117.728515625 40.1962890625 130.075195312 40.384765625 197.7421875 48.3984375 c 2
 276.688476562 57.74609375 l 1
 283.7421875 82.23828125 l 2
 292.340820312 112.087890625 286.172851562 138.338867188 264.00390625 166.243164062 c 0
 255.649414062 176.758789062 240.05859375 202.40234375 229.704101562 222.657226562 c 2
 210.719726562 259.79296875 l 1
 226.538085938 299.159179688 l 2
 236.05859375 322.8515625 260.590820312 363.452148438 288.154296875 401.1328125 c 0
 313.173828125 435.336914062 333.6328125 467.40625 333.24609375 471.819335938 c 0
 331.912109375 487.0703125 306.291015625 488.42578125 245.481445312 476.4609375 c 0
 198.006835938 467.12109375 184.75390625 466.116210938 173.250976562 470.98828125 c 0
 153.4453125 479.375 154.698242188 490.78515625 175.666015625 492.994140625 c 0
 185.1953125 493.998046875 208.203125 499.416992188 227.236328125 505.138671875 c 0
326.920898438 280.540039062 m 2
 345.48828125 300.884765625 l 1
 329.319335938 299.639648438 l 2
 316.383789062 298.642578125 274.94921875 278.91015625 264.206054688 268.630859375 c 0
 259.5859375 264.208007812 278.711914062 257.880859375 293.262695312 259.017578125 c 0
 302.920898438 259.770507812 315.038085938 267.51953125 326.920898438 280.540039062 c 2
EndSplineSet
EndChar

StartChar: k
Encoding: 107 107 71
Width: 368
VWidth: -170
Flags: W
VStem: 105.352 210.811<352.162 428.919>
LayerCount: 2
Back
Fore
SplineSet
109.134765625 453.6328125 m 0
 114.634765625 458.912109375 124.270507812 457.567382812 131.296875 450.541015625 c 0
 139.661132812 442.176757812 139.265625 418.6484375 130.088867188 378.6484375 c 0
 125.997070312 360.810546875 120.946289062 331.743164062 118.865234375 314.053710938 c 0
 115.176757812 282.703125 115.353515625 282.092773438 125.891601562 289.87109375 c 0
 194 340.141601562 213.525390625 350.228515625 257.243164062 357.729492188 c 0
 304.810546875 365.890625 316.162109375 364.817382812 316.162109375 352.162109375 c 0
 316.162109375 341.266601562 310.215820312 338.211914062 268.053710938 327.451171875 c 0
 229.67578125 317.65625 164.609375 282.842773438 144.510742188 261.3515625 c 2
 132.377929688 248.377929688 l 1
 145.891601562 230 l 2
 153.443359375 219.729492188 162.982421875 209.594726562 167.513671875 207.02734375 c 0
 171.837890625 204.576171875 175.622070312 199.405273438 175.622070312 195.946289062 c 0
 175.622070312 192.377929688 185.3515625 174.865234375 197.243164062 157.02734375 c 0
 209.134765625 139.189453125 218.865234375 122.405273438 218.865234375 119.729492188 c 0
 218.865234375 110.572265625 268.51953125 31.0810546875 286.39453125 11.6220703125 c 2
 304.270507812 -7.837890625 l 1
 324.270507812 0.541015625 l 2
 335.081054688 5.0693359375 345.387695312 7.8017578125 346.703125 6.486328125 c 0
 348.036132812 5.15234375 345.247070312 -3.513671875 340.525390625 -12.703125 c 0
 319.598632812 -53.4296875 265.252929688 -35.4052734375 231.330078125 23.513671875 c 0
 223.23828125 37.5673828125 215.374023438 50.126953125 213.729492188 51.6220703125 c 0
 212.116210938 53.0888671875 206.283203125 62.97265625 200.970703125 73.2431640625 c 0
 167.979492188 137.02734375 112.405273438 221.061523438 105.891601562 217.012695312 c 0
 103.549804688 215.556640625 99.8173828125 202.432617188 97.7490234375 188.377929688 c 0
 87.087890625 115.946289062 84.4287109375 87.43359375 87.8203125 81.8916015625 c 0
 93.2138671875 73.0771484375 93.3916015625 28.9189453125 88.076171875 18.1083984375 c 0
 81.634765625 5.0068359375 63.875 6.2158203125 56.3232421875 20.2705078125 c 0
 48.5107421875 34.810546875 52.64453125 142.97265625 62.767578125 188.918945312 c 0
 69.080078125 217.567382812 68.8603515625 220.736328125 60.2158203125 225.67578125 c 0
 51.5078125 230.65234375 51.7861328125 232.432617188 63.7294921875 248.108398438 c 0
 75.26171875 263.243164062 75.92578125 266.936523438 69.70703125 281.3515625 c 0
 58.748046875 306.756835938 60.4267578125 325.146484375 74.541015625 334.313476562 c 0
 88.6064453125 343.448242188 105.3515625 394.865234375 105.3515625 428.918945312 c 0
 105.3515625 440.270507812 107.09765625 451.676757812 109.134765625 453.6328125 c 0
EndSplineSet
EndChar

StartChar: greater
Encoding: 62 62 72
Width: 496
VWidth: 70
Flags: W
LayerCount: 2
Back
Fore
SplineSet
153.118164062 570 m 0
 156.97265625 579.729492188 156.97265625 579.729492188 175.891601562 570.565429688 c 0
 184.442382812 566.423828125 205.081054688 561.319335938 221.296875 559.3359375 c 0
 258.053710938 554.838867188 328.32421875 532.97265625 365.081054688 514.594726562 c 0
 380.35546875 506.958007812 410.486328125 484.418945312 432.6484375 464.053710938 c 2
 472.6484375 427.296875 l 1
 464.270507812 412.162109375 l 2
 459.782226562 404.053710938 450.37109375 396.274414062 444 395.405273438 c 0
 437.513671875 394.520507812 432.108398438 390.098632812 432.108398438 385.67578125 c 0
 432.108398438 381.184570312 424.270507812 370.211914062 414.541015625 361.081054688 c 0
 404.877929688 352.013671875 377.513671875 325.865234375 353.729492188 302.97265625 c 0
 329.946289062 280.081054688 293.458984375 246.877929688 272.6484375 229.189453125 c 0
 251.924804688 211.57421875 195.325195312 157.296875 147.513671875 109.189453125 c 0
 99.701171875 61.0810546875 56.3046875 21.3515625 51.5673828125 21.3515625 c 0
 40.4111328125 21.3515625 34.916015625 35.4052734375 41.0009765625 48.3779296875 c 0
 47.080078125 61.3388671875 146.703125 163.344726562 201.837890625 213.0625 c 0
 225.081054688 234.021484375 253.216796875 259.5703125 264.541015625 270 c 0
 275.7890625 280.360351562 315.891601562 317.040039062 353.189453125 351.081054688 c 0
 390.486328125 385.122070312 421.233398438 414.465820312 421.155273438 415.946289062 c 0
 420.927734375 420.270507812 379.1953125 464.594726562 375.3515625 464.594726562 c 0
 373.52734375 464.594726562 364.541015625 470.270507812 354.810546875 477.567382812 c 0
 345.081054688 484.865234375 331.6015625 492.078125 324 494.053710938 c 0
 316.567382812 495.986328125 291.02734375 503.405273438 267.243164062 510.541015625 c 0
 243.458984375 517.67578125 217.553710938 524.8515625 209.67578125 526.486328125 c 0
 200.486328125 528.393554688 194.188476562 534.303710938 192.108398438 542.97265625 c 0
 189.405273438 554.234375 186.162109375 556.1484375 172.6484375 554.458984375 c 0
 154.810546875 552.229492188 148.169921875 557.513671875 153.118164062 570 c 0
EndSplineSet
EndChar

StartChar: grave
Encoding: 96 96 73
Width: 218
VWidth: 37
Flags: W
LayerCount: 2
Back
Fore
SplineSet
62.6484375 783.215820312 m 0
 67.779296875 791.865234375 73.83984375 799.162109375 75.8916015625 799.162109375 c 0
 77.9658203125 799.162109375 89.689453125 782.67578125 101.837890625 762.67578125 c 0
 113.986328125 742.67578125 132.79296875 720.272460938 143.458984375 713.094726562 c 0
 169.405273438 695.635742188 176.584960938 682.017578125 165.622070312 671.053710938 c 0
 157.809570312 663.2421875 154.541015625 663.661132812 131.837890625 675.377929688 c 0
 116.703125 683.190429688 100.036132812 698.028320312 89.9462890625 712.67578125 c 0
 80.63671875 726.189453125 71.8681640625 738.201171875 70.2158203125 739.703125 c 0
 68.5361328125 741.23046875 64.1884765625 747.810546875 60.2158203125 754.837890625 c 0
 54.2607421875 765.374023438 54.6318359375 769.703125 62.6484375 783.215820312 c 0
EndSplineSet
EndChar

StartChar: ampersand
Encoding: 38 38 74
Width: 478
VWidth: 163
Flags: W
HStem: 5 27.6885<108.717 223>
LayerCount: 2
Back
Fore
SplineSet
226.225585938 524.791992188 m 0
 255.340820312 533.975585938 266.010742188 533.821289062 295.580078125 523.7890625 c 0
 316.010742188 516.857421875 322.341796875 511.612304688 328.645507812 496.3984375 c 0
 332.975585938 485.944335938 336.375976562 468.978515625 336.294921875 458.225585938 c 0
 336.10546875 432.95703125 318.387695312 379.748046875 301.923828125 355 c 0
 262.9375 296.3984375 250.418945312 274.836914062 250.418945312 266.291015625 c 0
 250.418945312 251.236328125 316.8671875 146.028320312 326.763671875 145.413085938 c 0
 335.3046875 144.881835938 352.920898438 182.95703125 349.854492188 195.323242188 c 0
 347.455078125 205 349.209960938 208.909179688 356.87109375 210.959960938 c 0
 368.69921875 214.125 384.828125 206.654296875 384.828125 198.010742188 c 0
 384.828125 194.684570312 381.064453125 189.391601562 376.225585938 185.9140625 c 0
 371.661132812 182.633789062 366.740234375 173.548828125 365.7421875 166.559570312 c 0
 364.715820312 159.375 360.68359375 145.323242188 356.87109375 135.645507812 c 0
 350.485351562 119.436523438 350.973632812 116.021484375 362.515625 96.12890625 c 0
 369.573242188 83.966796875 379.66015625 61.1826171875 385.365234375 44.5166015625 c 0
 392.17578125 24.6240234375 402.927734375 7.8671875 417.623046875 -5.751953125 c 0
 431.064453125 -18.2099609375 438.911132812 -29.958984375 437.731445312 -35.8603515625 c 0
 434.295898438 -53.033203125 418.682617188 -49.30078125 397.251953125 -26.1826171875 c 0
 373.329101562 -0.3759765625 363.758789062 15.328125 363.501953125 29.193359375 c 0
 363.322265625 38.87109375 330.911132812 96.935546875 325.688476562 96.935546875 c 0
 324.240234375 96.935546875 318.161132812 90.484375 312.515625 82.95703125 c 0
 306.810546875 75.349609375 284.021484375 54.3984375 262.515625 36.9892578125 c 2
 223 5 l 1
 165.47265625 7.1796875 l 2
 100.418945312 9.6435546875 78.1064453125 17.5263671875 68.1650390625 41.5595703125 c 0
 44.1484375 99.619140625 81.064453125 182.45703125 153.107421875 232.166992188 c 0
 171.924804688 245.150390625 191.99609375 259.361328125 198.268554688 264.139648438 c 2
 209.55859375 272.7421875 l 1
 187.78515625 320.591796875 l 2
 175.796875 346.935546875 164.233398438 376.415039062 162.056640625 386.182617188 c 0
 157.86328125 405 168.540039062 477.124023438 176.225585938 481.8984375 c 0
 178.502929688 483.3125 180.526367188 488.87109375 180.526367188 493.709960938 c 0
 180.526367188 504.494140625 196.65625 515.463867188 226.225585938 524.791992188 c 0
288.590820312 499.930664062 m 0
 271.924804688 506.817382812 229.813476562 506.254882812 225.424804688 499.0859375 c 0
 223.852539062 496.518554688 216.279296875 491.850585938 209.290039062 489.139648438 c 0
 202.30078125 486.4296875 197.631835938 481.508789062 199.34375 478.65625 c 0
 201.166992188 475.6171875 199.615234375 467.903320312 195.775390625 460.9140625 c 0
 185.629882812 442.450195312 185.466796875 398.010742188 195.444335938 371.12890625 c 0
 206.220703125 342.096679688 228.301757812 301.330078125 233.21484375 301.396484375 c 0
 237.15234375 301.450195312 261.171875 334.5703125 261.171875 339.946289062 c 0
 261.171875 341.7265625 269.59375 357.150390625 279.958984375 374.35546875 c 0
 303.604492188 413.602539062 311.499023438 441.7890625 307.060546875 471.12890625 c 0
 304.295898438 489.409179688 300.77734375 494.89453125 288.590820312 499.930664062 c 0
250.150390625 206.61328125 m 0
 249.999023438 209.939453125 243.53125 220.053710938 235.365234375 229.731445312 c 2
 220.849609375 246.935546875 l 1
 181.6015625 220.860351562 l 2
 152.569335938 201.572265625 135.708007812 185.200195312 116.817382812 157.95703125 c 0
 94.0751953125 125.161132812 91.19140625 117.891601562 90.47265625 91.5595703125 c 0
 89.7548828125 65.21484375 91.484375 60.376953125 106.333007812 47.2041015625 c 0
 120.814453125 34.3583984375 127.30078125 32.455078125 155.795898438 32.6884765625 c 0
 174.075195312 32.837890625 194.302734375 32.837890625 201.494140625 32.6884765625 c 0
 208.532226562 32.5419921875 222.461914062 38.529296875 232.139648438 45.8603515625 c 0
 241.817382812 53.19140625 252.081054688 59.3017578125 254.720703125 59.3017578125 c 0
 259.576171875 59.3017578125 285.333007812 89.4091796875 298.416015625 110.376953125 c 0
 305.189453125 121.232421875 303.51953125 125.430664062 278.107421875 161.452148438 c 0
 262.935546875 182.95703125 250.297851562 203.373046875 250.150390625 206.61328125 c 0
EndSplineSet
EndChar

StartChar: colon
Encoding: 58 58 75
Width: 262
VWidth: 0
Flags: W
VStem: 109.279 48.1279<88.3369 171.673> 149.162 32.2012<175.838 239.973>
LayerCount: 2
Back
Fore
SplineSet
158.3515625 235.487304688 m 0x40
 170.784179688 244.739257812 173.439453125 244.698242188 181.36328125 235.134765625 c 0x40
 186.737304688 228.6484375 186.243164062 221.891601562 178.891601562 201.3515625 c 0
 173.879882812 187.346679688 164.114257812 159.458984375 157.407226562 140 c 0
 139.709960938 88.6484375 134.392578125 80.314453125 120.513671875 82.1826171875 c 0
 110.66015625 83.509765625 108.734375 87.02734375 109.279296875 102.703125 c 0x80
 110.5390625 138.918945312 113.176757812 148.844726562 125.510742188 163.784179688 c 0
 136.520507812 177.120117188 149.162109375 209.189453125 149.162109375 223.784179688 c 0
 149.162109375 226.359375 153.486328125 231.8671875 158.3515625 235.487304688 c 0x40
168.081054688 544.32421875 m 0
 170.963867188 552.97265625 193.666992188 553.333007812 202.134765625 544.865234375 c 0
 210.956054688 536.043945312 210.577148438 510.810546875 201.177734375 481.081054688 c 0
 196.870117188 467.458984375 190.723632812 444.865234375 187.20703125 429.729492188 c 0
 177.03515625 385.946289062 157.810546875 373.7109375 144.740234375 402.703125 c 0
 140.173828125 412.83203125 141.3203125 424.32421875 149.97265625 455.134765625 c 0
 156.044921875 476.756835938 162.153320312 504.369140625 163.486328125 516.215820312 c 0
 164.82421875 528.108398438 166.891601562 540.756835938 168.081054688 544.32421875 c 0
EndSplineSet
EndChar

StartChar: backslash
Encoding: 92 92 76
Width: 467
VWidth: -18
Flags: W
VStem: 63.8994 20.9385<623.43 627.358> 71.8486 12.9893<587.641 611.728> 404.06 32.6445<5.83253 129.94>
LayerCount: 2
Back
Fore
SplineSet
71.8486328125 605.784179688 m 0x60
 76.0654296875 616.83984375 84.837890625 611.729492188 84.837890625 598.215820312 c 0
 84.837890625 592.270507812 81.189453125 587.405273438 76.7294921875 587.405273438 c 0
 67.9853515625 587.405273438 66.693359375 592.270507812 71.8486328125 605.784179688 c 0x60
57.203125 689.02734375 m 0
 58.669921875 705.338867188 85.9189453125 695.22265625 115.108398438 667.530273438 c 0
 139.122070312 644.748046875 150.91015625 626.32421875 181.594726562 563.622070312 c 0
 202.227539062 521.458984375 221.668945312 478.348632812 225.108398438 467.134765625 c 0
 228.588867188 455.784179688 233.583984375 445.556640625 236.458984375 443.891601562 c 0
 239.224609375 442.291015625 241.594726562 437.67578125 241.594726562 433.891601562 c 0
 241.594726562 414.97265625 363.04296875 232.202148438 381.053710938 224.014648438 c 0
 390.384765625 219.7734375 426.822265625 122.541015625 436.704101562 75.513671875 c 0
 447.720703125 23.0810546875 447.034179688 -1.6953125 434.567382812 -1.509765625 c 0
 419.703125 -1.2880859375 414.618164062 9.02734375 404.059570312 60.3779296875 c 0
 397.947265625 90.1083984375 390.662109375 122.458984375 387.87109375 132.270507812 c 0
 380.651367188 157.651367188 342.293945312 218.215820312 299.549804688 271.729492188 c 0
 260.248046875 320.93359375 216.502929688 398.756835938 185.913085938 473.891601562 c 0
 155.32421875 549.02734375 144.041015625 571.865234375 118.6171875 610.108398438 c 0
 96.3369140625 643.622070312 84.837890625 651.534179688 84.837890625 633.3515625 c 0x60
 84.837890625 629.474609375 81.32421875 624.991210938 77 623.3515625 c 0
 71.4921875 621.262695312 67.59765625 626.32421875 63.8994140625 640.377929688 c 0xa0
 58.3515625 661.458984375 56.158203125 677.396484375 57.203125 689.02734375 c 0
EndSplineSet
EndChar

StartChar: q
Encoding: 113 113 77
Width: 436
VWidth: -175
Flags: W
HStem: -38.7539 33.333<254.531 358.459> 281.222 30.4053<155.886 237.589>
VStem: 214.731 13.4053<-192.933 -171.198> 217.72 29.5703<-178.254 -40.3672> 247.29 17.0176<67.1602 266.622>
LayerCount: 2
Back
Fore
SplineSet
167.719726562 311.626953125 m 0xd0
 190.7265625 314.75390625 211.268554688 311.994140625 236.537109375 302.380859375 c 0
 245.139648438 299.108398438 253.075195312 299.203125 258.580078125 302.643554688 c 0
 263.418945312 305.66796875 270.946289062 306.568359375 275.78515625 304.702148438 c 0
 286.858398438 300.430664062 287.950195312 261.24609375 277.548828125 241.353515625 c 0
 264.038085938 215.514648438 262.161132812 190.81640625 264.307617188 67.16015625 c 0
 264.409179688 61.3134765625 262.1640625 43.7734375 259.38671875 28.71875 c 2
 254.279296875 1.03125 l 1
 270.408203125 -2.1943359375 l 2
 279.263671875 -3.9658203125 298.903320312 -5.4208984375 313.95703125 -5.4208984375 c 0
 345.139648438 -5.4208984375 362.095703125 -14.7275390625 359.010742188 -30.1513671875 c 0
 357.127929688 -39.5654296875 352.666015625 -40.240234375 302.12890625 -38.75390625 c 2
 247.290039062 -37.140625 l 1xc8
 247.290039062 -66.7109375 l 2xd0
 247.290039062 -110.796875 236.53515625 -178.719726562 228.13671875 -187.678710938 c 0
 213.377929688 -203.421875 209.318359375 -187.140625 214.731445312 -133.915039062 c 0xe0
 217.57421875 -105.958007812 219.390625 -73.7685546875 218.795898438 -61.8720703125 c 2
 217.719726562 -40.3671875 l 1
 188.6875 -36.8720703125 l 2
 172.55859375 -34.9306640625 150.814453125 -29.3154296875 139.762695312 -24.2373046875 c 0
 123.633789062 -16.8271484375 120.311523438 -12.7587890625 122.200195312 -2.732421875 c 0
 125.391601562 14.20703125 139.225585938 16.4052734375 166.107421875 4.244140625 c 0
 198.365234375 -10.3486328125 220.879882812 -6.9765625 227.21875 13.396484375 c 0
 232.73828125 31.138671875 236.170898438 150.493164062 231.161132812 150.493164062 c 0
 229.423828125 150.493164062 222.2421875 144.041992188 215.6015625 136.514648438 c 0
 195.776367188 114.045898438 172.55859375 107.1875 136 113 c 0
 90.57421875 120.220703125 83.58984375 130.600585938 88.3427734375 183.827148438 c 0
 92.8544921875 234.364257812 110.901367188 282.973632812 130.623046875 297.7109375 c 0
 138.572265625 303.650390625 155.354492188 309.946289062 167.719726562 311.626953125 c 0xd0
238.150390625 276.776367188 m 0
 226.734375 281.400390625 179.010742188 284.323242188 165.569335938 281.221679688 c 0
 160.247070312 279.993164062 155.892578125 274.149414062 155.892578125 268.235351562 c 0
 155.892578125 262.158203125 150.671875 252.106445312 143.884765625 245.1171875 c 0
 124.125976562 224.768554688 119.010742188 212.859375 115.016601562 177.913085938 c 2
 111.268554688 145.1171875 l 1
 149.171875 145.1171875 l 2
 185.73046875 145.1171875 187.540039062 145.727539062 200.182617188 162.321289062 c 0
 213.291015625 179.525390625 247.290039062 254.803710938 247.290039062 266.622070312 c 0
 247.290039062 270.038085938 242.989257812 274.81640625 238.150390625 276.776367188 c 0
EndSplineSet
EndChar

StartChar: l
Encoding: 108 108 78
Width: 164
VWidth: 0
Flags: W
HStem: 536.556 20G<70.9766 87.4326>
VStem: 68.4521 32.041<290.987 548.949>
LayerCount: 2
Back
Fore
SplineSet
70.9765625 542.645507812 m 2
 74.9140625 556.555664062 l 1
 87.4326171875 546.797851562 l 2
 99.099609375 537.70703125 100 533.790039062 100.640625 489.352539062 c 0
 102.615234375 352.24609375 102.073242188 310.100585938 98.1416015625 294.880859375 c 0
 95.7548828125 285.64453125 91.349609375 251.420898438 88.2509765625 218.05078125 c 0
 85.15234375 184.681640625 81.76953125 151.513671875 80.6572265625 143.591796875 c 0
 79.037109375 132.055664062 81.03515625 128.891601562 91.0498046875 127.138671875 c 0
 101.291992188 125.344726562 102.934570312 122.751953125 100.493164062 112.229492188 c 0
 98.841796875 105.106445312 98.029296875 88.41015625 98.6513671875 74.357421875 c 0
 99.275390625 60.302734375 97.5537109375 45.7998046875 94.748046875 41.458984375 c 0
 92.0595703125 37.2998046875 88.6650390625 26.5478515625 87.4365234375 18.30078125 c 0
 84.32421875 -2.58984375 70.9873046875 -7.8271484375 57.205078125 6.431640625 c 0
 40.1708984375 24.0556640625 39.466796875 64.0234375 53.671875 206.88671875 c 0
 67.6591796875 347.559570312 70.6064453125 401.693359375 68.4521484375 478.397460938 c 0
 67.6767578125 506.001953125 68.81640625 535.017578125 70.9765625 542.645507812 c 2
EndSplineSet
EndChar

